%
M48
M72
T01C0.0354
T02C0.0380
T03C0.0394
T04C0.0400
T05C0.1083
%
T01
X3500Y12000
X3500Y15000
T02
X21500Y12750
X20500Y12750
X19500Y12750
X18500Y12750
X17500Y12750
X16500Y12750
X15500Y12750
X14500Y12750
X13500Y12750
X12500Y12750
X11500Y12750
X10500Y12750
X9500Y12750
X8500Y12750
X8500Y13750
X8500Y14750
X8500Y15750
X8500Y16750
X8500Y17750
X8500Y18750
X9500Y18750
X10500Y18750
X11500Y18750
X12500Y18750
X13500Y18750
X14500Y18750
X15500Y18750
X16500Y18750
X17500Y18750
X18500Y18750
X19500Y18750
X20500Y18750
X21500Y18750
T03
X3795Y20669
X4795Y20669
X5795Y20669
X6795Y20669
X7795Y20669
X8795Y20669
X9795Y20669
X10795Y20669
X11795Y20669
X12795Y20669
X13795Y20669
X14795Y20669
X15795Y20669
X16795Y20669
X17795Y20669
X18795Y20669
X19795Y20669
X20795Y20669
X21795Y20669
X22795Y20669
X22795Y21669
X21795Y21669
X20795Y21669
X19795Y21669
X18795Y21669
X17795Y21669
X16795Y21669
X15795Y21669
X14795Y21669
X13795Y21669
X12795Y21669
X11795Y21669
X10795Y21669
X9795Y21669
X8795Y21669
X7795Y21669
X6795Y21669
X5795Y21669
X4795Y21669
X3795Y21669
T04
X22250Y4000
X22250Y5000
X22250Y6000
X22250Y7000
X22250Y8000
X22250Y9000
X22250Y10000
X22250Y11000
X20250Y11000
X20250Y10000
X20250Y9000
X20250Y8000
X20250Y7000
X20250Y6000
X20250Y5000
X20250Y4000
X18250Y4000
X18250Y5000
X18250Y6000
X18250Y7000
X18250Y8000
X18250Y9000
X18250Y10000
X18250Y11000
X16250Y11000
X16250Y10000
X16250Y9000
X16250Y8000
X16250Y7000
X16250Y6000
X16250Y5000
X16250Y4000
X14250Y4000
X14250Y5000
X14250Y6000
X14250Y7000
X14250Y8000
X14250Y9000
X14250Y10000
X14250Y11000
X12250Y11000
X12250Y10000
X12250Y9000
X12250Y8000
X12250Y7000
X12250Y6000
X12250Y5000
X12250Y4000
X10250Y4000
X10250Y5000
X10250Y6000
X10250Y7000
X10250Y8000
X10250Y9000
X10250Y10000
X10250Y11000
X8250Y11000
X8250Y10000
X8250Y9000
X8250Y8000
X8250Y7000
X8250Y6000
X8250Y5000
X8250Y4000
X6250Y4000
X6250Y5000
X6250Y6000
X6250Y7000
X6250Y8000
X6250Y9000
X6250Y10000
X6250Y11000
X4250Y11000
X4250Y10000
X4250Y9000
X4250Y8000
X4250Y7000
X4250Y6000
X4250Y5000
X4250Y4000
X3500Y16500
X3500Y17500
X3500Y18500
T05
X24713Y1878
X24713Y21169
X1878Y21169
X1878Y1878
M30
