%
M48
M72
T01C0.03543
T02C0.03800
T03C0.03937
T04C0.04000
T05C0.10827
%
T01
X35000Y120000
X35000Y150000
T02
X215000Y127500
X205000Y127500
X195000Y127500
X185000Y127500
X175000Y127500
X165000Y127500
X155000Y127500
X145000Y127500
X135000Y127500
X125000Y127500
X115000Y127500
X105000Y127500
X95000Y127500
X85000Y127500
X85000Y137500
X85000Y147500
X85000Y157500
X85000Y167500
X85000Y177500
X85000Y187500
X95000Y187500
X105000Y187500
X115000Y187500
X125000Y187500
X135000Y187500
X145000Y187500
X155000Y187500
X165000Y187500
X175000Y187500
X185000Y187500
X195000Y187500
X205000Y187500
X215000Y187500
T03
X37953Y206693
X47953Y206693
X57953Y206693
X67953Y206693
X77953Y206693
X87953Y206693
X97953Y206693
X107953Y206693
X117953Y206693
X127953Y206693
X137953Y206693
X147953Y206693
X157953Y206693
X167953Y206693
X177953Y206693
X187953Y206693
X197953Y206693
X207953Y206693
X217953Y206693
X227953Y206693
X227953Y216693
X217953Y216693
X207953Y216693
X197953Y216693
X187953Y216693
X177953Y216693
X167953Y216693
X157953Y216693
X147953Y216693
X137953Y216693
X127953Y216693
X117953Y216693
X107953Y216693
X97953Y216693
X87953Y216693
X77953Y216693
X67953Y216693
X57953Y216693
X47953Y216693
X37953Y216693
T04
X222500Y40000
X222500Y50000
X222500Y60000
X222500Y70000
X222500Y80000
X222500Y90000
X222500Y100000
X222500Y110000
X202500Y110000
X202500Y100000
X202500Y90000
X202500Y80000
X202500Y70000
X202500Y60000
X202500Y50000
X202500Y40000
X182500Y40000
X182500Y50000
X182500Y60000
X182500Y70000
X182500Y80000
X182500Y90000
X182500Y100000
X182500Y110000
X162500Y110000
X162500Y100000
X162500Y90000
X162500Y80000
X162500Y70000
X162500Y60000
X162500Y50000
X162500Y40000
X142500Y40000
X142500Y50000
X142500Y60000
X142500Y70000
X142500Y80000
X142500Y90000
X142500Y100000
X142500Y110000
X122500Y110000
X122500Y100000
X122500Y90000
X122500Y80000
X122500Y70000
X122500Y60000
X122500Y50000
X122500Y40000
X102500Y40000
X102500Y50000
X102500Y60000
X102500Y70000
X102500Y80000
X102500Y90000
X102500Y100000
X102500Y110000
X82500Y110000
X82500Y100000
X82500Y90000
X82500Y80000
X82500Y70000
X82500Y60000
X82500Y50000
X82500Y40000
X62500Y40000
X62500Y50000
X62500Y60000
X62500Y70000
X62500Y80000
X62500Y90000
X62500Y100000
X62500Y110000
X42500Y110000
X42500Y100000
X42500Y90000
X42500Y80000
X42500Y70000
X42500Y60000
X42500Y50000
X42500Y40000
X35000Y165000
X35000Y175000
X35000Y185000
T05
X247126Y18780
X247126Y211693
X18780Y211693
X18780Y18780
M30
