G75*
%MOIN*%
%OFA0B0*%
%FSLAX25Y25*%
%IPPOS*%
%LPD*%
%AMOC8*
5,1,8,0,0,1.08239X$1,22.5*
%
%ADD10C,0.00400*%
%ADD11C,0.00600*%
%ADD12C,0.00800*%
%ADD13C,0.00500*%
%ADD14C,0.00100*%
%ADD15C,0.00000*%
D10*
X0013467Y0037700D02*
X0012700Y0038467D01*
X0013467Y0037700D02*
X0015002Y0037700D01*
X0015769Y0038467D01*
X0015769Y0039235D01*
X0015002Y0040002D01*
X0014235Y0040002D01*
X0015002Y0040002D02*
X0015769Y0040769D01*
X0015769Y0041537D01*
X0015002Y0042304D01*
X0013467Y0042304D01*
X0012700Y0041537D01*
X0017304Y0038467D02*
X0018071Y0038467D01*
X0018071Y0037700D01*
X0017304Y0037700D01*
X0017304Y0038467D01*
X0019606Y0038467D02*
X0020373Y0037700D01*
X0021908Y0037700D01*
X0022675Y0038467D01*
X0022675Y0039235D01*
X0021908Y0040002D01*
X0021141Y0040002D01*
X0021908Y0040002D02*
X0022675Y0040769D01*
X0022675Y0041537D01*
X0021908Y0042304D01*
X0020373Y0042304D01*
X0019606Y0041537D01*
X0024210Y0042304D02*
X0024210Y0039235D01*
X0025744Y0037700D01*
X0027279Y0039235D01*
X0027279Y0042304D01*
X0027477Y0047700D02*
X0027477Y0052304D01*
X0029012Y0052304D02*
X0031314Y0052304D01*
X0032081Y0051537D01*
X0032081Y0048467D01*
X0031314Y0047700D01*
X0029012Y0047700D01*
X0029012Y0052304D01*
X0024408Y0052304D02*
X0024408Y0047700D01*
X0022873Y0048467D02*
X0022873Y0050002D01*
X0021339Y0050002D01*
X0022873Y0051537D02*
X0022106Y0052304D01*
X0020571Y0052304D01*
X0019804Y0051537D01*
X0019804Y0048467D01*
X0020571Y0047700D01*
X0022106Y0047700D01*
X0022873Y0048467D01*
X0024408Y0052304D02*
X0027477Y0047700D01*
X0018269Y0048467D02*
X0018269Y0051537D01*
X0017502Y0052304D01*
X0015200Y0052304D01*
X0015200Y0047700D01*
X0017502Y0047700D01*
X0018269Y0048467D01*
X0017502Y0057700D02*
X0015967Y0057700D01*
X0015200Y0058467D01*
X0016735Y0060002D02*
X0017502Y0060002D01*
X0018269Y0059235D01*
X0018269Y0058467D01*
X0017502Y0057700D01*
X0019804Y0057700D02*
X0020571Y0057700D01*
X0020571Y0058467D01*
X0019804Y0058467D01*
X0019804Y0057700D01*
X0022106Y0058467D02*
X0022873Y0057700D01*
X0024408Y0057700D01*
X0025175Y0058467D01*
X0025175Y0059235D01*
X0024408Y0060002D01*
X0023641Y0060002D01*
X0024408Y0060002D02*
X0025175Y0060769D01*
X0025175Y0061537D01*
X0024408Y0062304D01*
X0022873Y0062304D01*
X0022106Y0061537D01*
X0018269Y0061537D02*
X0018269Y0060769D01*
X0017502Y0060002D01*
X0018269Y0061537D02*
X0017502Y0062304D01*
X0015967Y0062304D01*
X0015200Y0061537D01*
X0015200Y0067700D02*
X0015200Y0070769D01*
X0016735Y0072304D01*
X0018269Y0070769D01*
X0018269Y0067700D01*
X0019804Y0068467D02*
X0020571Y0067700D01*
X0022106Y0067700D01*
X0022873Y0068467D01*
X0022873Y0070002D01*
X0021339Y0070002D01*
X0022873Y0071537D02*
X0022106Y0072304D01*
X0020571Y0072304D01*
X0019804Y0071537D01*
X0019804Y0068467D01*
X0018269Y0070002D02*
X0015200Y0070002D01*
X0024408Y0067700D02*
X0024408Y0072304D01*
X0027477Y0067700D01*
X0027477Y0072304D01*
X0029012Y0072304D02*
X0031314Y0072304D01*
X0032081Y0071537D01*
X0032081Y0068467D01*
X0031314Y0067700D01*
X0029012Y0067700D01*
X0029012Y0072304D01*
X0028269Y0077700D02*
X0028269Y0080769D01*
X0026735Y0082304D01*
X0025200Y0080769D01*
X0025200Y0077700D01*
X0025200Y0080002D02*
X0028269Y0080002D01*
X0027502Y0087700D02*
X0025200Y0087700D01*
X0025200Y0092304D01*
X0027502Y0092304D01*
X0028269Y0091537D01*
X0028269Y0090769D01*
X0027502Y0090002D01*
X0025200Y0090002D01*
X0027502Y0090002D02*
X0028269Y0089235D01*
X0028269Y0088467D01*
X0027502Y0087700D01*
X0027502Y0097700D02*
X0025967Y0097700D01*
X0025200Y0098467D01*
X0025200Y0101537D01*
X0025967Y0102304D01*
X0027502Y0102304D01*
X0028269Y0101537D01*
X0028269Y0098467D02*
X0027502Y0097700D01*
X0027477Y0107700D02*
X0024408Y0107700D01*
X0024408Y0112304D01*
X0022873Y0112304D02*
X0022873Y0107700D01*
X0019804Y0112304D01*
X0019804Y0107700D01*
X0018269Y0107700D02*
X0018269Y0110769D01*
X0016735Y0112304D01*
X0015200Y0110769D01*
X0015200Y0107700D01*
X0015200Y0110002D02*
X0018269Y0110002D01*
X0029012Y0111537D02*
X0029012Y0108467D01*
X0029779Y0107700D01*
X0031314Y0107700D01*
X0032081Y0108467D01*
X0032081Y0110002D01*
X0030546Y0110002D01*
X0029012Y0111537D02*
X0029779Y0112304D01*
X0031314Y0112304D01*
X0032081Y0111537D01*
X0029779Y0062304D02*
X0029779Y0059235D01*
X0028244Y0057700D01*
X0026710Y0059235D01*
X0026710Y0062304D01*
X0065058Y0017804D02*
X0066793Y0017804D01*
X0065925Y0017804D02*
X0065925Y0012600D01*
X0065058Y0012600D02*
X0066793Y0012600D01*
X0070230Y0012600D02*
X0071965Y0016070D01*
X0074519Y0016070D02*
X0076254Y0016070D01*
X0077121Y0015202D01*
X0077121Y0012600D01*
X0074519Y0012600D01*
X0073652Y0013467D01*
X0074519Y0014335D01*
X0077121Y0014335D01*
X0078808Y0012600D02*
X0078808Y0016070D01*
X0081410Y0016070D01*
X0082278Y0015202D01*
X0082278Y0012600D01*
X0089121Y0012600D02*
X0089121Y0017804D01*
X0092591Y0017804D01*
X0094277Y0016070D02*
X0094277Y0012600D01*
X0094277Y0014335D02*
X0096012Y0016070D01*
X0096880Y0016070D01*
X0099442Y0016070D02*
X0101177Y0016070D01*
X0102044Y0015202D01*
X0102044Y0012600D01*
X0099442Y0012600D01*
X0098574Y0013467D01*
X0099442Y0014335D01*
X0102044Y0014335D01*
X0103731Y0012600D02*
X0103731Y0016070D01*
X0106333Y0016070D01*
X0107200Y0015202D01*
X0107200Y0012600D01*
X0108887Y0013467D02*
X0108887Y0015202D01*
X0109755Y0016070D01*
X0112357Y0016070D01*
X0114044Y0015202D02*
X0114044Y0013467D01*
X0114911Y0012600D01*
X0116646Y0012600D01*
X0117513Y0013467D01*
X0117513Y0015202D01*
X0116646Y0016070D01*
X0114911Y0016070D01*
X0114044Y0015202D01*
X0112357Y0012600D02*
X0109755Y0012600D01*
X0108887Y0013467D01*
X0116074Y0012600D02*
X0117808Y0012600D01*
X0116941Y0012600D02*
X0116941Y0017804D01*
X0116074Y0017804D02*
X0117808Y0017804D01*
X0119511Y0017804D02*
X0122113Y0017804D01*
X0122981Y0016937D01*
X0122981Y0013467D01*
X0122113Y0012600D01*
X0119511Y0012600D01*
X0119511Y0017804D01*
X0124668Y0017804D02*
X0124668Y0012600D01*
X0128137Y0012600D02*
X0128137Y0017804D01*
X0126402Y0016070D01*
X0124668Y0017804D01*
X0129824Y0017804D02*
X0131559Y0017804D01*
X0130691Y0017804D02*
X0130691Y0012600D01*
X0129824Y0012600D02*
X0131559Y0012600D01*
X0133262Y0012600D02*
X0136731Y0012600D01*
X0133262Y0012600D02*
X0133262Y0017804D01*
X0143574Y0016937D02*
X0144442Y0017804D01*
X0146177Y0017804D01*
X0147044Y0016937D01*
X0147044Y0016070D01*
X0143574Y0012600D01*
X0147044Y0012600D01*
X0148731Y0013467D02*
X0152200Y0016937D01*
X0152200Y0013467D01*
X0151333Y0012600D01*
X0149598Y0012600D01*
X0148731Y0013467D01*
X0148731Y0016937D01*
X0149598Y0017804D01*
X0151333Y0017804D01*
X0152200Y0016937D01*
X0153887Y0016070D02*
X0155622Y0017804D01*
X0155622Y0012600D01*
X0153887Y0012600D02*
X0157357Y0012600D01*
X0159044Y0013467D02*
X0159911Y0012600D01*
X0161646Y0012600D01*
X0162513Y0013467D01*
X0162513Y0014335D01*
X0161646Y0015202D01*
X0159044Y0015202D01*
X0159044Y0013467D01*
X0159044Y0015202D02*
X0160778Y0016937D01*
X0162513Y0017804D01*
X0090856Y0015202D02*
X0089121Y0015202D01*
X0070230Y0012600D02*
X0068495Y0016070D01*
X0205196Y0140076D02*
X0205196Y0143146D01*
X0205196Y0144680D02*
X0209800Y0144680D01*
X0209800Y0147750D01*
X0209800Y0149284D02*
X0209800Y0152354D01*
X0209800Y0153888D02*
X0205196Y0153888D01*
X0209800Y0156957D01*
X0205196Y0156957D01*
X0205963Y0158492D02*
X0206731Y0158492D01*
X0207498Y0159259D01*
X0207498Y0160794D01*
X0208265Y0161561D01*
X0209033Y0161561D01*
X0209800Y0160794D01*
X0209800Y0159259D01*
X0209033Y0158492D01*
X0205963Y0158492D02*
X0205196Y0159259D01*
X0205196Y0160794D01*
X0205963Y0161561D01*
X0205963Y0163096D02*
X0207498Y0164631D01*
X0209800Y0164631D01*
X0207498Y0164631D02*
X0205963Y0166165D01*
X0205196Y0166165D01*
X0205196Y0163096D02*
X0205963Y0163096D01*
X0205196Y0152354D02*
X0205196Y0149284D01*
X0209800Y0149284D01*
X0207498Y0149284D02*
X0207498Y0150819D01*
X0205196Y0147750D02*
X0205196Y0144680D01*
X0207498Y0144680D02*
X0207498Y0146215D01*
X0209800Y0141611D02*
X0205196Y0141611D01*
X0039305Y0195643D02*
X0036903Y0195643D01*
X0038104Y0195643D02*
X0038104Y0199246D01*
X0036903Y0198045D01*
D11*
X0071914Y0027705D02*
X0074050Y0025570D01*
X0076185Y0027705D01*
X0076185Y0021300D01*
X0078360Y0022368D02*
X0079427Y0021300D01*
X0082630Y0021300D01*
X0082630Y0025570D01*
X0084805Y0025570D02*
X0089076Y0021300D01*
X0091251Y0021300D02*
X0093386Y0021300D01*
X0092318Y0021300D02*
X0092318Y0025570D01*
X0091251Y0025570D01*
X0089076Y0025570D02*
X0084805Y0021300D01*
X0078360Y0022368D02*
X0078360Y0025570D01*
X0071914Y0027705D02*
X0071914Y0021300D01*
X0092318Y0027705D02*
X0092318Y0028773D01*
X0101993Y0026638D02*
X0101993Y0022368D01*
X0103061Y0021300D01*
X0105196Y0021300D01*
X0106264Y0022368D01*
X0108439Y0022368D02*
X0108439Y0024503D01*
X0109506Y0025570D01*
X0111642Y0025570D01*
X0112709Y0024503D01*
X0112709Y0022368D01*
X0111642Y0021300D01*
X0109506Y0021300D01*
X0108439Y0022368D01*
X0106264Y0026638D02*
X0105196Y0027705D01*
X0103061Y0027705D01*
X0101993Y0026638D01*
X0114884Y0025570D02*
X0114884Y0021300D01*
X0114884Y0025570D02*
X0118087Y0025570D01*
X0119155Y0024503D01*
X0119155Y0021300D01*
X0122397Y0022368D02*
X0123465Y0021300D01*
X0122397Y0022368D02*
X0122397Y0026638D01*
X0121330Y0025570D02*
X0123465Y0025570D01*
X0125627Y0025570D02*
X0125627Y0021300D01*
X0125627Y0023435D02*
X0127762Y0025570D01*
X0128830Y0025570D01*
X0130998Y0024503D02*
X0130998Y0022368D01*
X0132066Y0021300D01*
X0134201Y0021300D01*
X0135268Y0022368D01*
X0135268Y0024503D01*
X0134201Y0025570D01*
X0132066Y0025570D01*
X0130998Y0024503D01*
X0137444Y0027705D02*
X0138511Y0027705D01*
X0138511Y0021300D01*
X0137444Y0021300D02*
X0139579Y0021300D01*
X0148186Y0022368D02*
X0152456Y0026638D01*
X0152456Y0022368D01*
X0151389Y0021300D01*
X0149254Y0021300D01*
X0148186Y0022368D01*
X0148186Y0026638D01*
X0149254Y0027705D01*
X0151389Y0027705D01*
X0152456Y0026638D01*
X0154632Y0022368D02*
X0155699Y0022368D01*
X0155699Y0021300D01*
X0154632Y0021300D01*
X0154632Y0022368D01*
X0157854Y0022368D02*
X0158922Y0021300D01*
X0161057Y0021300D01*
X0162125Y0022368D01*
X0162125Y0023435D01*
X0161057Y0024503D01*
X0159989Y0024503D01*
X0161057Y0024503D02*
X0162125Y0025570D01*
X0162125Y0026638D01*
X0161057Y0027705D01*
X0158922Y0027705D01*
X0157854Y0026638D01*
D12*
X0160000Y0035000D02*
X0157500Y0037500D01*
X0157500Y0042500D01*
X0160000Y0045000D01*
X0157500Y0047500D01*
X0157500Y0052500D01*
X0160000Y0055000D01*
X0157500Y0057500D01*
X0157500Y0062500D01*
X0160000Y0065000D01*
X0157500Y0067500D01*
X0157500Y0072500D01*
X0160000Y0075000D01*
X0157500Y0077500D01*
X0157500Y0082500D01*
X0160000Y0085000D01*
X0157500Y0087500D01*
X0157500Y0092500D01*
X0160000Y0095000D01*
X0157500Y0097500D01*
X0157500Y0102500D01*
X0160000Y0105000D01*
X0157500Y0107500D01*
X0157500Y0112500D01*
X0160000Y0115000D01*
X0165000Y0115000D01*
X0167500Y0112500D01*
X0167500Y0107500D01*
X0165000Y0105000D01*
X0167500Y0102500D01*
X0167500Y0097500D01*
X0165000Y0095000D01*
X0167500Y0092500D01*
X0167500Y0087500D01*
X0165000Y0085000D01*
X0167500Y0082500D01*
X0167500Y0077500D01*
X0165000Y0075000D01*
X0167500Y0072500D01*
X0167500Y0067500D01*
X0165000Y0065000D01*
X0167500Y0062500D01*
X0167500Y0057500D01*
X0165000Y0055000D01*
X0167500Y0052500D01*
X0167500Y0047500D01*
X0165000Y0045000D01*
X0167500Y0042500D01*
X0167500Y0037500D01*
X0165000Y0035000D01*
X0160000Y0035000D01*
X0147500Y0037500D02*
X0147500Y0042500D01*
X0145000Y0045000D01*
X0147500Y0047500D01*
X0147500Y0052500D01*
X0145000Y0055000D01*
X0147500Y0057500D01*
X0147500Y0062500D01*
X0145000Y0065000D01*
X0147500Y0067500D01*
X0147500Y0072500D01*
X0145000Y0075000D01*
X0147500Y0077500D01*
X0147500Y0082500D01*
X0145000Y0085000D01*
X0147500Y0087500D01*
X0147500Y0092500D01*
X0145000Y0095000D01*
X0147500Y0097500D01*
X0147500Y0102500D01*
X0145000Y0105000D01*
X0147500Y0107500D01*
X0147500Y0112500D01*
X0145000Y0115000D01*
X0140000Y0115000D01*
X0137500Y0112500D01*
X0137500Y0107500D01*
X0140000Y0105000D01*
X0137500Y0102500D01*
X0137500Y0097500D01*
X0140000Y0095000D01*
X0137500Y0092500D01*
X0137500Y0087500D01*
X0140000Y0085000D01*
X0137500Y0082500D01*
X0137500Y0077500D01*
X0140000Y0075000D01*
X0137500Y0072500D01*
X0137500Y0067500D01*
X0140000Y0065000D01*
X0137500Y0062500D01*
X0137500Y0057500D01*
X0140000Y0055000D01*
X0137500Y0052500D01*
X0137500Y0047500D01*
X0140000Y0045000D01*
X0137500Y0042500D01*
X0137500Y0037500D01*
X0140000Y0035000D01*
X0145000Y0035000D01*
X0147500Y0037500D01*
X0127500Y0037500D02*
X0127500Y0042500D01*
X0125000Y0045000D01*
X0127500Y0047500D01*
X0127500Y0052500D01*
X0125000Y0055000D01*
X0127500Y0057500D01*
X0127500Y0062500D01*
X0125000Y0065000D01*
X0127500Y0067500D01*
X0127500Y0072500D01*
X0125000Y0075000D01*
X0127500Y0077500D01*
X0127500Y0082500D01*
X0125000Y0085000D01*
X0127500Y0087500D01*
X0127500Y0092500D01*
X0125000Y0095000D01*
X0127500Y0097500D01*
X0127500Y0102500D01*
X0125000Y0105000D01*
X0127500Y0107500D01*
X0127500Y0112500D01*
X0125000Y0115000D01*
X0120000Y0115000D01*
X0117500Y0112500D01*
X0117500Y0107500D01*
X0120000Y0105000D01*
X0117500Y0102500D01*
X0117500Y0097500D01*
X0120000Y0095000D01*
X0117500Y0092500D01*
X0117500Y0087500D01*
X0120000Y0085000D01*
X0117500Y0082500D01*
X0117500Y0077500D01*
X0120000Y0075000D01*
X0117500Y0072500D01*
X0117500Y0067500D01*
X0120000Y0065000D01*
X0117500Y0062500D01*
X0117500Y0057500D01*
X0120000Y0055000D01*
X0117500Y0052500D01*
X0117500Y0047500D01*
X0120000Y0045000D01*
X0117500Y0042500D01*
X0117500Y0037500D01*
X0120000Y0035000D01*
X0125000Y0035000D01*
X0127500Y0037500D01*
X0107500Y0037500D02*
X0107500Y0042500D01*
X0105000Y0045000D01*
X0107500Y0047500D01*
X0107500Y0052500D01*
X0105000Y0055000D01*
X0107500Y0057500D01*
X0107500Y0062500D01*
X0105000Y0065000D01*
X0107500Y0067500D01*
X0107500Y0072500D01*
X0105000Y0075000D01*
X0107500Y0077500D01*
X0107500Y0082500D01*
X0105000Y0085000D01*
X0107500Y0087500D01*
X0107500Y0092500D01*
X0105000Y0095000D01*
X0107500Y0097500D01*
X0107500Y0102500D01*
X0105000Y0105000D01*
X0107500Y0107500D01*
X0107500Y0112500D01*
X0105000Y0115000D01*
X0100000Y0115000D01*
X0097500Y0112500D01*
X0097500Y0107500D01*
X0100000Y0105000D01*
X0097500Y0102500D01*
X0097500Y0097500D01*
X0100000Y0095000D01*
X0097500Y0092500D01*
X0097500Y0087500D01*
X0100000Y0085000D01*
X0097500Y0082500D01*
X0097500Y0077500D01*
X0100000Y0075000D01*
X0097500Y0072500D01*
X0097500Y0067500D01*
X0100000Y0065000D01*
X0097500Y0062500D01*
X0097500Y0057500D01*
X0100000Y0055000D01*
X0097500Y0052500D01*
X0097500Y0047500D01*
X0100000Y0045000D01*
X0097500Y0042500D01*
X0097500Y0037500D01*
X0100000Y0035000D01*
X0105000Y0035000D01*
X0107500Y0037500D01*
X0087500Y0037500D02*
X0087500Y0042500D01*
X0085000Y0045000D01*
X0087500Y0047500D01*
X0087500Y0052500D01*
X0085000Y0055000D01*
X0087500Y0057500D01*
X0087500Y0062500D01*
X0085000Y0065000D01*
X0087500Y0067500D01*
X0087500Y0072500D01*
X0085000Y0075000D01*
X0087500Y0077500D01*
X0087500Y0082500D01*
X0085000Y0085000D01*
X0087500Y0087500D01*
X0087500Y0092500D01*
X0085000Y0095000D01*
X0087500Y0097500D01*
X0087500Y0102500D01*
X0085000Y0105000D01*
X0087500Y0107500D01*
X0087500Y0112500D01*
X0085000Y0115000D01*
X0080000Y0115000D01*
X0077500Y0112500D01*
X0077500Y0107500D01*
X0080000Y0105000D01*
X0077500Y0102500D01*
X0077500Y0097500D01*
X0080000Y0095000D01*
X0077500Y0092500D01*
X0077500Y0087500D01*
X0080000Y0085000D01*
X0077500Y0082500D01*
X0077500Y0077500D01*
X0080000Y0075000D01*
X0077500Y0072500D01*
X0077500Y0067500D01*
X0080000Y0065000D01*
X0077500Y0062500D01*
X0077500Y0057500D01*
X0080000Y0055000D01*
X0077500Y0052500D01*
X0077500Y0047500D01*
X0080000Y0045000D01*
X0077500Y0042500D01*
X0077500Y0037500D01*
X0080000Y0035000D01*
X0085000Y0035000D01*
X0087500Y0037500D01*
X0067500Y0037500D02*
X0067500Y0042500D01*
X0065000Y0045000D01*
X0067500Y0047500D01*
X0067500Y0052500D01*
X0065000Y0055000D01*
X0067500Y0057500D01*
X0067500Y0062500D01*
X0065000Y0065000D01*
X0067500Y0067500D01*
X0067500Y0072500D01*
X0065000Y0075000D01*
X0067500Y0077500D01*
X0067500Y0082500D01*
X0065000Y0085000D01*
X0067500Y0087500D01*
X0067500Y0092500D01*
X0065000Y0095000D01*
X0067500Y0097500D01*
X0067500Y0102500D01*
X0065000Y0105000D01*
X0067500Y0107500D01*
X0067500Y0112500D01*
X0065000Y0115000D01*
X0060000Y0115000D01*
X0057500Y0112500D01*
X0057500Y0107500D01*
X0060000Y0105000D01*
X0057500Y0102500D01*
X0057500Y0097500D01*
X0060000Y0095000D01*
X0057500Y0092500D01*
X0057500Y0087500D01*
X0060000Y0085000D01*
X0057500Y0082500D01*
X0057500Y0077500D01*
X0060000Y0075000D01*
X0057500Y0072500D01*
X0057500Y0067500D01*
X0060000Y0065000D01*
X0057500Y0062500D01*
X0057500Y0057500D01*
X0060000Y0055000D01*
X0057500Y0052500D01*
X0057500Y0047500D01*
X0060000Y0045000D01*
X0057500Y0042500D01*
X0057500Y0037500D01*
X0060000Y0035000D01*
X0065000Y0035000D01*
X0067500Y0037500D01*
X0047500Y0037500D02*
X0047500Y0042500D01*
X0045000Y0045000D01*
X0047500Y0047500D01*
X0047500Y0052500D01*
X0045000Y0055000D01*
X0047500Y0057500D01*
X0047500Y0062500D01*
X0045000Y0065000D01*
X0047500Y0067500D01*
X0047500Y0072500D01*
X0045000Y0075000D01*
X0047500Y0077500D01*
X0047500Y0082500D01*
X0045000Y0085000D01*
X0047500Y0087500D01*
X0047500Y0092500D01*
X0045000Y0095000D01*
X0047500Y0097500D01*
X0047500Y0102500D01*
X0045000Y0105000D01*
X0047500Y0107500D01*
X0047500Y0112500D01*
X0045000Y0115000D01*
X0040000Y0115000D01*
X0037500Y0112500D01*
X0037500Y0107500D01*
X0040000Y0105000D01*
X0037500Y0102500D01*
X0037500Y0097500D01*
X0040000Y0095000D01*
X0037500Y0092500D01*
X0037500Y0087500D01*
X0040000Y0085000D01*
X0037500Y0082500D01*
X0037500Y0077500D01*
X0040000Y0075000D01*
X0037500Y0072500D01*
X0037500Y0067500D01*
X0040000Y0065000D01*
X0037500Y0062500D01*
X0037500Y0057500D01*
X0040000Y0055000D01*
X0037500Y0052500D01*
X0037500Y0047500D01*
X0040000Y0045000D01*
X0037500Y0042500D01*
X0037500Y0037500D01*
X0040000Y0035000D01*
X0045000Y0035000D01*
X0047500Y0037500D01*
X0035000Y0124000D02*
X0035000Y0125000D01*
X0032000Y0125000D01*
X0032000Y0145000D01*
X0035000Y0145000D01*
X0035000Y0146000D01*
X0035000Y0145000D02*
X0038000Y0145000D01*
X0038000Y0125000D01*
X0035000Y0125000D01*
X0032500Y0160000D02*
X0030000Y0162500D01*
X0030000Y0167500D01*
X0032500Y0170000D01*
X0030000Y0172500D01*
X0030000Y0177500D01*
X0032500Y0180000D01*
X0030000Y0182500D01*
X0030000Y0187500D01*
X0032500Y0190000D01*
X0037500Y0190000D01*
X0040000Y0187500D01*
X0040000Y0182500D01*
X0037500Y0180000D01*
X0040000Y0177500D01*
X0040000Y0172500D01*
X0037500Y0170000D01*
X0040000Y0167500D01*
X0040000Y0162500D01*
X0037500Y0160000D01*
X0032500Y0160000D01*
X0080000Y0192500D02*
X0080000Y0122500D01*
X0220000Y0122500D01*
X0220000Y0152500D01*
X0215000Y0152500D01*
X0215000Y0162500D01*
X0220000Y0162500D01*
X0220000Y0192500D01*
X0080000Y0192500D01*
X0177500Y0112500D02*
X0177500Y0107500D01*
X0180000Y0105000D01*
X0177500Y0102500D01*
X0177500Y0097500D01*
X0180000Y0095000D01*
X0177500Y0092500D01*
X0177500Y0087500D01*
X0180000Y0085000D01*
X0177500Y0082500D01*
X0177500Y0077500D01*
X0180000Y0075000D01*
X0177500Y0072500D01*
X0177500Y0067500D01*
X0180000Y0065000D01*
X0177500Y0062500D01*
X0177500Y0057500D01*
X0180000Y0055000D01*
X0177500Y0052500D01*
X0177500Y0047500D01*
X0180000Y0045000D01*
X0177500Y0042500D01*
X0177500Y0037500D01*
X0180000Y0035000D01*
X0185000Y0035000D01*
X0187500Y0037500D01*
X0187500Y0042500D01*
X0185000Y0045000D01*
X0187500Y0047500D01*
X0187500Y0052500D01*
X0185000Y0055000D01*
X0187500Y0057500D01*
X0187500Y0062500D01*
X0185000Y0065000D01*
X0187500Y0067500D01*
X0187500Y0072500D01*
X0185000Y0075000D01*
X0187500Y0077500D01*
X0187500Y0082500D01*
X0185000Y0085000D01*
X0187500Y0087500D01*
X0187500Y0092500D01*
X0185000Y0095000D01*
X0187500Y0097500D01*
X0187500Y0102500D01*
X0185000Y0105000D01*
X0187500Y0107500D01*
X0187500Y0112500D01*
X0185000Y0115000D01*
X0180000Y0115000D01*
X0177500Y0112500D01*
X0197500Y0112500D02*
X0197500Y0107500D01*
X0200000Y0105000D01*
X0197500Y0102500D01*
X0197500Y0097500D01*
X0200000Y0095000D01*
X0197500Y0092500D01*
X0197500Y0087500D01*
X0200000Y0085000D01*
X0197500Y0082500D01*
X0197500Y0077500D01*
X0200000Y0075000D01*
X0197500Y0072500D01*
X0197500Y0067500D01*
X0200000Y0065000D01*
X0197500Y0062500D01*
X0197500Y0057500D01*
X0200000Y0055000D01*
X0197500Y0052500D01*
X0197500Y0047500D01*
X0200000Y0045000D01*
X0197500Y0042500D01*
X0197500Y0037500D01*
X0200000Y0035000D01*
X0205000Y0035000D01*
X0207500Y0037500D01*
X0207500Y0042500D01*
X0205000Y0045000D01*
X0207500Y0047500D01*
X0207500Y0052500D01*
X0205000Y0055000D01*
X0207500Y0057500D01*
X0207500Y0062500D01*
X0205000Y0065000D01*
X0207500Y0067500D01*
X0207500Y0072500D01*
X0205000Y0075000D01*
X0207500Y0077500D01*
X0207500Y0082500D01*
X0205000Y0085000D01*
X0207500Y0087500D01*
X0207500Y0092500D01*
X0205000Y0095000D01*
X0207500Y0097500D01*
X0207500Y0102500D01*
X0205000Y0105000D01*
X0207500Y0107500D01*
X0207500Y0112500D01*
X0205000Y0115000D01*
X0200000Y0115000D01*
X0197500Y0112500D01*
X0217500Y0112500D02*
X0217500Y0107500D01*
X0220000Y0105000D01*
X0217500Y0102500D01*
X0217500Y0097500D01*
X0220000Y0095000D01*
X0217500Y0092500D01*
X0217500Y0087500D01*
X0220000Y0085000D01*
X0217500Y0082500D01*
X0217500Y0077500D01*
X0220000Y0075000D01*
X0217500Y0072500D01*
X0217500Y0067500D01*
X0220000Y0065000D01*
X0217500Y0062500D01*
X0217500Y0057500D01*
X0220000Y0055000D01*
X0217500Y0052500D01*
X0217500Y0047500D01*
X0220000Y0045000D01*
X0217500Y0042500D01*
X0217500Y0037500D01*
X0220000Y0035000D01*
X0225000Y0035000D01*
X0227500Y0037500D01*
X0227500Y0042500D01*
X0225000Y0045000D01*
X0227500Y0047500D01*
X0227500Y0052500D01*
X0225000Y0055000D01*
X0227500Y0057500D01*
X0227500Y0062500D01*
X0225000Y0065000D01*
X0227500Y0067500D01*
X0227500Y0072500D01*
X0225000Y0075000D01*
X0227500Y0077500D01*
X0227500Y0082500D01*
X0225000Y0085000D01*
X0227500Y0087500D01*
X0227500Y0092500D01*
X0225000Y0095000D01*
X0227500Y0097500D01*
X0227500Y0102500D01*
X0225000Y0105000D01*
X0227500Y0107500D01*
X0227500Y0112500D01*
X0225000Y0115000D01*
X0220000Y0115000D01*
X0217500Y0112500D01*
D13*
X0214299Y0051764D02*
X0211297Y0051764D01*
X0214299Y0048762D01*
X0215050Y0049512D01*
X0215050Y0051014D01*
X0214299Y0051764D01*
X0211297Y0051764D02*
X0210546Y0051014D01*
X0210546Y0049512D01*
X0211297Y0048762D01*
X0214299Y0048762D01*
X0215050Y0047160D02*
X0215050Y0044158D01*
X0215050Y0045659D02*
X0210546Y0045659D01*
X0212047Y0044158D01*
X0211297Y0042556D02*
X0212798Y0042556D01*
X0213549Y0041806D01*
X0213549Y0039554D01*
X0215050Y0039554D02*
X0210546Y0039554D01*
X0210546Y0041806D01*
X0211297Y0042556D01*
X0210546Y0037953D02*
X0210546Y0036451D01*
X0210546Y0037202D02*
X0214299Y0037202D01*
X0215050Y0036451D01*
X0215050Y0035701D01*
X0214299Y0034950D01*
X0195050Y0035701D02*
X0195050Y0036451D01*
X0194299Y0037202D01*
X0190546Y0037202D01*
X0190546Y0036451D02*
X0190546Y0037953D01*
X0190546Y0039554D02*
X0190546Y0041806D01*
X0191297Y0042556D01*
X0192798Y0042556D01*
X0193549Y0041806D01*
X0193549Y0039554D01*
X0195050Y0039554D02*
X0190546Y0039554D01*
X0191297Y0044158D02*
X0190546Y0044908D01*
X0190546Y0046410D01*
X0191297Y0047160D01*
X0194299Y0047160D01*
X0195050Y0046410D01*
X0195050Y0044908D01*
X0194299Y0044158D01*
X0192798Y0044908D02*
X0192798Y0047160D01*
X0192798Y0044908D02*
X0192047Y0044158D01*
X0191297Y0044158D01*
X0195050Y0035701D02*
X0194299Y0034950D01*
X0175050Y0035701D02*
X0175050Y0036451D01*
X0174299Y0037202D01*
X0170546Y0037202D01*
X0170546Y0036451D02*
X0170546Y0037953D01*
X0170546Y0039554D02*
X0170546Y0041806D01*
X0171297Y0042556D01*
X0172798Y0042556D01*
X0173549Y0041806D01*
X0173549Y0039554D01*
X0175050Y0039554D02*
X0170546Y0039554D01*
X0171297Y0044158D02*
X0172047Y0044158D01*
X0172798Y0044908D01*
X0172798Y0046410D01*
X0173549Y0047160D01*
X0174299Y0047160D01*
X0175050Y0046410D01*
X0175050Y0044908D01*
X0174299Y0044158D01*
X0173549Y0044158D01*
X0172798Y0044908D01*
X0172798Y0046410D02*
X0172047Y0047160D01*
X0171297Y0047160D01*
X0170546Y0046410D01*
X0170546Y0044908D01*
X0171297Y0044158D01*
X0175050Y0035701D02*
X0174299Y0034950D01*
X0155050Y0035701D02*
X0155050Y0036451D01*
X0154299Y0037202D01*
X0150546Y0037202D01*
X0150546Y0036451D02*
X0150546Y0037953D01*
X0150546Y0039554D02*
X0150546Y0041806D01*
X0151297Y0042556D01*
X0152798Y0042556D01*
X0153549Y0041806D01*
X0153549Y0039554D01*
X0155050Y0039554D02*
X0150546Y0039554D01*
X0150546Y0044158D02*
X0150546Y0047160D01*
X0151297Y0047160D01*
X0154299Y0044158D01*
X0155050Y0044158D01*
X0155050Y0035701D02*
X0154299Y0034950D01*
X0135050Y0035701D02*
X0135050Y0036451D01*
X0134299Y0037202D01*
X0130546Y0037202D01*
X0130546Y0036451D02*
X0130546Y0037953D01*
X0130546Y0039554D02*
X0130546Y0041806D01*
X0131297Y0042556D01*
X0132798Y0042556D01*
X0133549Y0041806D01*
X0133549Y0039554D01*
X0135050Y0039554D02*
X0130546Y0039554D01*
X0132798Y0044158D02*
X0132798Y0046410D01*
X0133549Y0047160D01*
X0134299Y0047160D01*
X0135050Y0046410D01*
X0135050Y0044908D01*
X0134299Y0044158D01*
X0132798Y0044158D01*
X0131297Y0045659D01*
X0130546Y0047160D01*
X0135050Y0035701D02*
X0134299Y0034950D01*
X0115050Y0035701D02*
X0115050Y0036451D01*
X0114299Y0037202D01*
X0110546Y0037202D01*
X0110546Y0036451D02*
X0110546Y0037953D01*
X0110546Y0039554D02*
X0110546Y0041806D01*
X0111297Y0042556D01*
X0112798Y0042556D01*
X0113549Y0041806D01*
X0113549Y0039554D01*
X0115050Y0039554D02*
X0110546Y0039554D01*
X0110546Y0044158D02*
X0112798Y0044158D01*
X0112047Y0045659D01*
X0112047Y0046410D01*
X0112798Y0047160D01*
X0114299Y0047160D01*
X0115050Y0046410D01*
X0115050Y0044908D01*
X0114299Y0044158D01*
X0110546Y0044158D02*
X0110546Y0047160D01*
X0115050Y0035701D02*
X0114299Y0034950D01*
X0095050Y0035701D02*
X0095050Y0036451D01*
X0094299Y0037202D01*
X0090546Y0037202D01*
X0090546Y0036451D02*
X0090546Y0037953D01*
X0090546Y0039554D02*
X0090546Y0041806D01*
X0091297Y0042556D01*
X0092798Y0042556D01*
X0093549Y0041806D01*
X0093549Y0039554D01*
X0095050Y0039554D02*
X0090546Y0039554D01*
X0092798Y0044158D02*
X0092798Y0047160D01*
X0090546Y0046410D02*
X0092798Y0044158D01*
X0095050Y0046410D02*
X0090546Y0046410D01*
X0095050Y0035701D02*
X0094299Y0034950D01*
X0075050Y0035701D02*
X0075050Y0036451D01*
X0074299Y0037202D01*
X0070546Y0037202D01*
X0070546Y0036451D02*
X0070546Y0037953D01*
X0070546Y0039554D02*
X0070546Y0041806D01*
X0071297Y0042556D01*
X0072798Y0042556D01*
X0073549Y0041806D01*
X0073549Y0039554D01*
X0075050Y0039554D02*
X0070546Y0039554D01*
X0071297Y0044158D02*
X0070546Y0044908D01*
X0070546Y0046410D01*
X0071297Y0047160D01*
X0072047Y0047160D01*
X0072798Y0046410D01*
X0073549Y0047160D01*
X0074299Y0047160D01*
X0075050Y0046410D01*
X0075050Y0044908D01*
X0074299Y0044158D01*
X0072798Y0045659D02*
X0072798Y0046410D01*
X0075050Y0035701D02*
X0074299Y0034950D01*
X0055050Y0035701D02*
X0055050Y0036451D01*
X0054299Y0037202D01*
X0050546Y0037202D01*
X0050546Y0036451D02*
X0050546Y0037953D01*
X0050546Y0039554D02*
X0050546Y0041806D01*
X0051297Y0042556D01*
X0052798Y0042556D01*
X0053549Y0041806D01*
X0053549Y0039554D01*
X0055050Y0039554D02*
X0050546Y0039554D01*
X0051297Y0044158D02*
X0050546Y0044908D01*
X0050546Y0046410D01*
X0051297Y0047160D01*
X0052047Y0047160D01*
X0055050Y0044158D01*
X0055050Y0047160D01*
X0055050Y0035701D02*
X0054299Y0034950D01*
X0035050Y0035701D02*
X0035050Y0036451D01*
X0034299Y0037202D01*
X0030546Y0037202D01*
X0030546Y0036451D02*
X0030546Y0037953D01*
X0030546Y0039554D02*
X0030546Y0041806D01*
X0031297Y0042556D01*
X0032798Y0042556D01*
X0033549Y0041806D01*
X0033549Y0039554D01*
X0035050Y0039554D02*
X0030546Y0039554D01*
X0032047Y0044158D02*
X0030546Y0045659D01*
X0035050Y0045659D01*
X0035050Y0044158D02*
X0035050Y0047160D01*
X0035050Y0035701D02*
X0034299Y0034950D01*
X0027550Y0159950D02*
X0023046Y0159950D01*
X0024547Y0161451D01*
X0023046Y0162953D01*
X0027550Y0162953D01*
X0027550Y0164554D02*
X0027550Y0166055D01*
X0027550Y0165305D02*
X0023046Y0165305D01*
X0023046Y0166055D02*
X0023046Y0164554D01*
X0023046Y0167623D02*
X0023046Y0169875D01*
X0023797Y0170626D01*
X0026799Y0170626D01*
X0027550Y0169875D01*
X0027550Y0167623D01*
X0023046Y0167623D01*
X0023046Y0172227D02*
X0023046Y0173728D01*
X0023046Y0172978D02*
X0027550Y0172978D01*
X0027550Y0173728D02*
X0027550Y0172227D01*
X0026799Y0175296D02*
X0023797Y0175296D01*
X0023046Y0176047D01*
X0023046Y0177548D01*
X0023797Y0178299D01*
X0026799Y0178299D01*
X0027550Y0177548D01*
X0027550Y0176047D01*
X0026799Y0175296D01*
X0026799Y0179900D02*
X0023046Y0179900D01*
X0023046Y0182903D02*
X0026799Y0182903D01*
X0027550Y0182152D01*
X0027550Y0180651D01*
X0026799Y0179900D01*
X0023046Y0184504D02*
X0023046Y0187507D01*
X0023046Y0186006D02*
X0027550Y0186006D01*
X0036703Y0200443D02*
X0039203Y0200443D01*
X0039203Y0201693D01*
X0042953Y0201693D01*
X0042953Y0211693D01*
X0032953Y0211693D01*
X0032953Y0201693D01*
X0036703Y0201693D01*
X0036703Y0200443D01*
X0036703Y0201693D02*
X0039203Y0201693D01*
X0042953Y0201693D02*
X0232953Y0201693D01*
X0232953Y0221693D01*
X0032953Y0221693D01*
X0032953Y0211693D01*
D14*
X0041550Y0144578D02*
X0041550Y0143577D01*
X0041550Y0143104D02*
X0041050Y0142604D01*
X0041050Y0142854D02*
X0041050Y0142103D01*
X0041550Y0142103D02*
X0040049Y0142103D01*
X0040049Y0142854D01*
X0040299Y0143104D01*
X0040799Y0143104D01*
X0041050Y0142854D01*
X0040549Y0143577D02*
X0040049Y0144077D01*
X0041550Y0144077D01*
D15*
X0016811Y0005000D02*
X0249094Y0005000D01*
X0249379Y0005003D01*
X0249665Y0005014D01*
X0249950Y0005031D01*
X0250234Y0005055D01*
X0250518Y0005086D01*
X0250801Y0005124D01*
X0251082Y0005169D01*
X0251363Y0005220D01*
X0251643Y0005278D01*
X0251921Y0005343D01*
X0252197Y0005415D01*
X0252471Y0005493D01*
X0252744Y0005578D01*
X0253014Y0005670D01*
X0253282Y0005768D01*
X0253548Y0005872D01*
X0253811Y0005983D01*
X0254071Y0006100D01*
X0254329Y0006223D01*
X0254583Y0006353D01*
X0254834Y0006489D01*
X0255082Y0006630D01*
X0255326Y0006778D01*
X0255567Y0006931D01*
X0255803Y0007091D01*
X0256036Y0007256D01*
X0256265Y0007426D01*
X0256490Y0007602D01*
X0256710Y0007784D01*
X0256926Y0007970D01*
X0257137Y0008162D01*
X0257344Y0008359D01*
X0257546Y0008561D01*
X0257743Y0008768D01*
X0257935Y0008979D01*
X0258121Y0009195D01*
X0258303Y0009415D01*
X0258479Y0009640D01*
X0258649Y0009869D01*
X0258814Y0010102D01*
X0258974Y0010338D01*
X0259127Y0010579D01*
X0259275Y0010823D01*
X0259416Y0011071D01*
X0259552Y0011322D01*
X0259682Y0011576D01*
X0259805Y0011834D01*
X0259922Y0012094D01*
X0260033Y0012357D01*
X0260137Y0012623D01*
X0260235Y0012891D01*
X0260327Y0013161D01*
X0260412Y0013434D01*
X0260490Y0013708D01*
X0260562Y0013984D01*
X0260627Y0014262D01*
X0260685Y0014542D01*
X0260736Y0014823D01*
X0260781Y0015104D01*
X0260819Y0015387D01*
X0260850Y0015671D01*
X0260874Y0015955D01*
X0260891Y0016240D01*
X0260902Y0016526D01*
X0260905Y0016811D01*
X0260906Y0016811D02*
X0260906Y0213661D01*
X0260905Y0213661D02*
X0260902Y0213946D01*
X0260891Y0214232D01*
X0260874Y0214517D01*
X0260850Y0214801D01*
X0260819Y0215085D01*
X0260781Y0215368D01*
X0260736Y0215649D01*
X0260685Y0215930D01*
X0260627Y0216210D01*
X0260562Y0216488D01*
X0260490Y0216764D01*
X0260412Y0217038D01*
X0260327Y0217311D01*
X0260235Y0217581D01*
X0260137Y0217849D01*
X0260033Y0218115D01*
X0259922Y0218378D01*
X0259805Y0218638D01*
X0259682Y0218896D01*
X0259552Y0219150D01*
X0259416Y0219401D01*
X0259275Y0219649D01*
X0259127Y0219893D01*
X0258974Y0220134D01*
X0258814Y0220370D01*
X0258649Y0220603D01*
X0258479Y0220832D01*
X0258303Y0221057D01*
X0258121Y0221277D01*
X0257935Y0221493D01*
X0257743Y0221704D01*
X0257546Y0221911D01*
X0257344Y0222113D01*
X0257137Y0222310D01*
X0256926Y0222502D01*
X0256710Y0222688D01*
X0256490Y0222870D01*
X0256265Y0223046D01*
X0256036Y0223216D01*
X0255803Y0223381D01*
X0255567Y0223541D01*
X0255326Y0223694D01*
X0255082Y0223842D01*
X0254834Y0223983D01*
X0254583Y0224119D01*
X0254329Y0224249D01*
X0254071Y0224372D01*
X0253811Y0224489D01*
X0253548Y0224600D01*
X0253282Y0224704D01*
X0253014Y0224802D01*
X0252744Y0224894D01*
X0252471Y0224979D01*
X0252197Y0225057D01*
X0251921Y0225129D01*
X0251643Y0225194D01*
X0251363Y0225252D01*
X0251082Y0225303D01*
X0250801Y0225348D01*
X0250518Y0225386D01*
X0250234Y0225417D01*
X0249950Y0225441D01*
X0249665Y0225458D01*
X0249379Y0225469D01*
X0249094Y0225472D01*
X0016811Y0225472D01*
X0016526Y0225469D01*
X0016240Y0225458D01*
X0015955Y0225441D01*
X0015671Y0225417D01*
X0015387Y0225386D01*
X0015104Y0225348D01*
X0014823Y0225303D01*
X0014542Y0225252D01*
X0014262Y0225194D01*
X0013984Y0225129D01*
X0013708Y0225057D01*
X0013434Y0224979D01*
X0013161Y0224894D01*
X0012891Y0224802D01*
X0012623Y0224704D01*
X0012357Y0224600D01*
X0012094Y0224489D01*
X0011834Y0224372D01*
X0011576Y0224249D01*
X0011322Y0224119D01*
X0011071Y0223983D01*
X0010823Y0223842D01*
X0010579Y0223694D01*
X0010338Y0223541D01*
X0010102Y0223381D01*
X0009869Y0223216D01*
X0009640Y0223046D01*
X0009415Y0222870D01*
X0009195Y0222688D01*
X0008979Y0222502D01*
X0008768Y0222310D01*
X0008561Y0222113D01*
X0008359Y0221911D01*
X0008162Y0221704D01*
X0007970Y0221493D01*
X0007784Y0221277D01*
X0007602Y0221057D01*
X0007426Y0220832D01*
X0007256Y0220603D01*
X0007091Y0220370D01*
X0006931Y0220134D01*
X0006778Y0219893D01*
X0006630Y0219649D01*
X0006489Y0219401D01*
X0006353Y0219150D01*
X0006223Y0218896D01*
X0006100Y0218638D01*
X0005983Y0218378D01*
X0005872Y0218115D01*
X0005768Y0217849D01*
X0005670Y0217581D01*
X0005578Y0217311D01*
X0005493Y0217038D01*
X0005415Y0216764D01*
X0005343Y0216488D01*
X0005278Y0216210D01*
X0005220Y0215930D01*
X0005169Y0215649D01*
X0005124Y0215368D01*
X0005086Y0215085D01*
X0005055Y0214801D01*
X0005031Y0214517D01*
X0005014Y0214232D01*
X0005003Y0213946D01*
X0005000Y0213661D01*
X0005000Y0016811D01*
X0005003Y0016526D01*
X0005014Y0016240D01*
X0005031Y0015955D01*
X0005055Y0015671D01*
X0005086Y0015387D01*
X0005124Y0015104D01*
X0005169Y0014823D01*
X0005220Y0014542D01*
X0005278Y0014262D01*
X0005343Y0013984D01*
X0005415Y0013708D01*
X0005493Y0013434D01*
X0005578Y0013161D01*
X0005670Y0012891D01*
X0005768Y0012623D01*
X0005872Y0012357D01*
X0005983Y0012094D01*
X0006100Y0011834D01*
X0006223Y0011576D01*
X0006353Y0011322D01*
X0006489Y0011071D01*
X0006630Y0010823D01*
X0006778Y0010579D01*
X0006931Y0010338D01*
X0007091Y0010102D01*
X0007256Y0009869D01*
X0007426Y0009640D01*
X0007602Y0009415D01*
X0007784Y0009195D01*
X0007970Y0008979D01*
X0008162Y0008768D01*
X0008359Y0008561D01*
X0008561Y0008359D01*
X0008768Y0008162D01*
X0008979Y0007970D01*
X0009195Y0007784D01*
X0009415Y0007602D01*
X0009640Y0007426D01*
X0009869Y0007256D01*
X0010102Y0007091D01*
X0010338Y0006931D01*
X0010579Y0006778D01*
X0010823Y0006630D01*
X0011071Y0006489D01*
X0011322Y0006353D01*
X0011576Y0006223D01*
X0011834Y0006100D01*
X0012094Y0005983D01*
X0012357Y0005872D01*
X0012623Y0005768D01*
X0012891Y0005670D01*
X0013161Y0005578D01*
X0013434Y0005493D01*
X0013708Y0005415D01*
X0013984Y0005343D01*
X0014262Y0005278D01*
X0014542Y0005220D01*
X0014823Y0005169D01*
X0015104Y0005124D01*
X0015387Y0005086D01*
X0015671Y0005055D01*
X0015955Y0005031D01*
X0016240Y0005014D01*
X0016526Y0005003D01*
X0016811Y0005000D01*
X0013367Y0018780D02*
X0013369Y0018927D01*
X0013375Y0019073D01*
X0013385Y0019219D01*
X0013399Y0019365D01*
X0013417Y0019511D01*
X0013438Y0019656D01*
X0013464Y0019800D01*
X0013494Y0019944D01*
X0013527Y0020086D01*
X0013564Y0020228D01*
X0013605Y0020369D01*
X0013650Y0020508D01*
X0013699Y0020647D01*
X0013751Y0020784D01*
X0013808Y0020919D01*
X0013867Y0021053D01*
X0013931Y0021185D01*
X0013998Y0021315D01*
X0014068Y0021444D01*
X0014142Y0021571D01*
X0014219Y0021695D01*
X0014300Y0021818D01*
X0014384Y0021938D01*
X0014471Y0022056D01*
X0014561Y0022171D01*
X0014654Y0022284D01*
X0014751Y0022395D01*
X0014850Y0022503D01*
X0014952Y0022608D01*
X0015057Y0022710D01*
X0015165Y0022809D01*
X0015276Y0022906D01*
X0015389Y0022999D01*
X0015504Y0023089D01*
X0015622Y0023176D01*
X0015742Y0023260D01*
X0015865Y0023341D01*
X0015989Y0023418D01*
X0016116Y0023492D01*
X0016245Y0023562D01*
X0016375Y0023629D01*
X0016507Y0023693D01*
X0016641Y0023752D01*
X0016776Y0023809D01*
X0016913Y0023861D01*
X0017052Y0023910D01*
X0017191Y0023955D01*
X0017332Y0023996D01*
X0017474Y0024033D01*
X0017616Y0024066D01*
X0017760Y0024096D01*
X0017904Y0024122D01*
X0018049Y0024143D01*
X0018195Y0024161D01*
X0018341Y0024175D01*
X0018487Y0024185D01*
X0018633Y0024191D01*
X0018780Y0024193D01*
X0018927Y0024191D01*
X0019073Y0024185D01*
X0019219Y0024175D01*
X0019365Y0024161D01*
X0019511Y0024143D01*
X0019656Y0024122D01*
X0019800Y0024096D01*
X0019944Y0024066D01*
X0020086Y0024033D01*
X0020228Y0023996D01*
X0020369Y0023955D01*
X0020508Y0023910D01*
X0020647Y0023861D01*
X0020784Y0023809D01*
X0020919Y0023752D01*
X0021053Y0023693D01*
X0021185Y0023629D01*
X0021315Y0023562D01*
X0021444Y0023492D01*
X0021571Y0023418D01*
X0021695Y0023341D01*
X0021818Y0023260D01*
X0021938Y0023176D01*
X0022056Y0023089D01*
X0022171Y0022999D01*
X0022284Y0022906D01*
X0022395Y0022809D01*
X0022503Y0022710D01*
X0022608Y0022608D01*
X0022710Y0022503D01*
X0022809Y0022395D01*
X0022906Y0022284D01*
X0022999Y0022171D01*
X0023089Y0022056D01*
X0023176Y0021938D01*
X0023260Y0021818D01*
X0023341Y0021695D01*
X0023418Y0021571D01*
X0023492Y0021444D01*
X0023562Y0021315D01*
X0023629Y0021185D01*
X0023693Y0021053D01*
X0023752Y0020919D01*
X0023809Y0020784D01*
X0023861Y0020647D01*
X0023910Y0020508D01*
X0023955Y0020369D01*
X0023996Y0020228D01*
X0024033Y0020086D01*
X0024066Y0019944D01*
X0024096Y0019800D01*
X0024122Y0019656D01*
X0024143Y0019511D01*
X0024161Y0019365D01*
X0024175Y0019219D01*
X0024185Y0019073D01*
X0024191Y0018927D01*
X0024193Y0018780D01*
X0024191Y0018633D01*
X0024185Y0018487D01*
X0024175Y0018341D01*
X0024161Y0018195D01*
X0024143Y0018049D01*
X0024122Y0017904D01*
X0024096Y0017760D01*
X0024066Y0017616D01*
X0024033Y0017474D01*
X0023996Y0017332D01*
X0023955Y0017191D01*
X0023910Y0017052D01*
X0023861Y0016913D01*
X0023809Y0016776D01*
X0023752Y0016641D01*
X0023693Y0016507D01*
X0023629Y0016375D01*
X0023562Y0016245D01*
X0023492Y0016116D01*
X0023418Y0015989D01*
X0023341Y0015865D01*
X0023260Y0015742D01*
X0023176Y0015622D01*
X0023089Y0015504D01*
X0022999Y0015389D01*
X0022906Y0015276D01*
X0022809Y0015165D01*
X0022710Y0015057D01*
X0022608Y0014952D01*
X0022503Y0014850D01*
X0022395Y0014751D01*
X0022284Y0014654D01*
X0022171Y0014561D01*
X0022056Y0014471D01*
X0021938Y0014384D01*
X0021818Y0014300D01*
X0021695Y0014219D01*
X0021571Y0014142D01*
X0021444Y0014068D01*
X0021315Y0013998D01*
X0021185Y0013931D01*
X0021053Y0013867D01*
X0020919Y0013808D01*
X0020784Y0013751D01*
X0020647Y0013699D01*
X0020508Y0013650D01*
X0020369Y0013605D01*
X0020228Y0013564D01*
X0020086Y0013527D01*
X0019944Y0013494D01*
X0019800Y0013464D01*
X0019656Y0013438D01*
X0019511Y0013417D01*
X0019365Y0013399D01*
X0019219Y0013385D01*
X0019073Y0013375D01*
X0018927Y0013369D01*
X0018780Y0013367D01*
X0018633Y0013369D01*
X0018487Y0013375D01*
X0018341Y0013385D01*
X0018195Y0013399D01*
X0018049Y0013417D01*
X0017904Y0013438D01*
X0017760Y0013464D01*
X0017616Y0013494D01*
X0017474Y0013527D01*
X0017332Y0013564D01*
X0017191Y0013605D01*
X0017052Y0013650D01*
X0016913Y0013699D01*
X0016776Y0013751D01*
X0016641Y0013808D01*
X0016507Y0013867D01*
X0016375Y0013931D01*
X0016245Y0013998D01*
X0016116Y0014068D01*
X0015989Y0014142D01*
X0015865Y0014219D01*
X0015742Y0014300D01*
X0015622Y0014384D01*
X0015504Y0014471D01*
X0015389Y0014561D01*
X0015276Y0014654D01*
X0015165Y0014751D01*
X0015057Y0014850D01*
X0014952Y0014952D01*
X0014850Y0015057D01*
X0014751Y0015165D01*
X0014654Y0015276D01*
X0014561Y0015389D01*
X0014471Y0015504D01*
X0014384Y0015622D01*
X0014300Y0015742D01*
X0014219Y0015865D01*
X0014142Y0015989D01*
X0014068Y0016116D01*
X0013998Y0016245D01*
X0013931Y0016375D01*
X0013867Y0016507D01*
X0013808Y0016641D01*
X0013751Y0016776D01*
X0013699Y0016913D01*
X0013650Y0017052D01*
X0013605Y0017191D01*
X0013564Y0017332D01*
X0013527Y0017474D01*
X0013494Y0017616D01*
X0013464Y0017760D01*
X0013438Y0017904D01*
X0013417Y0018049D01*
X0013399Y0018195D01*
X0013385Y0018341D01*
X0013375Y0018487D01*
X0013369Y0018633D01*
X0013367Y0018780D01*
X0013367Y0211693D02*
X0013369Y0211840D01*
X0013375Y0211986D01*
X0013385Y0212132D01*
X0013399Y0212278D01*
X0013417Y0212424D01*
X0013438Y0212569D01*
X0013464Y0212713D01*
X0013494Y0212857D01*
X0013527Y0212999D01*
X0013564Y0213141D01*
X0013605Y0213282D01*
X0013650Y0213421D01*
X0013699Y0213560D01*
X0013751Y0213697D01*
X0013808Y0213832D01*
X0013867Y0213966D01*
X0013931Y0214098D01*
X0013998Y0214228D01*
X0014068Y0214357D01*
X0014142Y0214484D01*
X0014219Y0214608D01*
X0014300Y0214731D01*
X0014384Y0214851D01*
X0014471Y0214969D01*
X0014561Y0215084D01*
X0014654Y0215197D01*
X0014751Y0215308D01*
X0014850Y0215416D01*
X0014952Y0215521D01*
X0015057Y0215623D01*
X0015165Y0215722D01*
X0015276Y0215819D01*
X0015389Y0215912D01*
X0015504Y0216002D01*
X0015622Y0216089D01*
X0015742Y0216173D01*
X0015865Y0216254D01*
X0015989Y0216331D01*
X0016116Y0216405D01*
X0016245Y0216475D01*
X0016375Y0216542D01*
X0016507Y0216606D01*
X0016641Y0216665D01*
X0016776Y0216722D01*
X0016913Y0216774D01*
X0017052Y0216823D01*
X0017191Y0216868D01*
X0017332Y0216909D01*
X0017474Y0216946D01*
X0017616Y0216979D01*
X0017760Y0217009D01*
X0017904Y0217035D01*
X0018049Y0217056D01*
X0018195Y0217074D01*
X0018341Y0217088D01*
X0018487Y0217098D01*
X0018633Y0217104D01*
X0018780Y0217106D01*
X0018927Y0217104D01*
X0019073Y0217098D01*
X0019219Y0217088D01*
X0019365Y0217074D01*
X0019511Y0217056D01*
X0019656Y0217035D01*
X0019800Y0217009D01*
X0019944Y0216979D01*
X0020086Y0216946D01*
X0020228Y0216909D01*
X0020369Y0216868D01*
X0020508Y0216823D01*
X0020647Y0216774D01*
X0020784Y0216722D01*
X0020919Y0216665D01*
X0021053Y0216606D01*
X0021185Y0216542D01*
X0021315Y0216475D01*
X0021444Y0216405D01*
X0021571Y0216331D01*
X0021695Y0216254D01*
X0021818Y0216173D01*
X0021938Y0216089D01*
X0022056Y0216002D01*
X0022171Y0215912D01*
X0022284Y0215819D01*
X0022395Y0215722D01*
X0022503Y0215623D01*
X0022608Y0215521D01*
X0022710Y0215416D01*
X0022809Y0215308D01*
X0022906Y0215197D01*
X0022999Y0215084D01*
X0023089Y0214969D01*
X0023176Y0214851D01*
X0023260Y0214731D01*
X0023341Y0214608D01*
X0023418Y0214484D01*
X0023492Y0214357D01*
X0023562Y0214228D01*
X0023629Y0214098D01*
X0023693Y0213966D01*
X0023752Y0213832D01*
X0023809Y0213697D01*
X0023861Y0213560D01*
X0023910Y0213421D01*
X0023955Y0213282D01*
X0023996Y0213141D01*
X0024033Y0212999D01*
X0024066Y0212857D01*
X0024096Y0212713D01*
X0024122Y0212569D01*
X0024143Y0212424D01*
X0024161Y0212278D01*
X0024175Y0212132D01*
X0024185Y0211986D01*
X0024191Y0211840D01*
X0024193Y0211693D01*
X0024191Y0211546D01*
X0024185Y0211400D01*
X0024175Y0211254D01*
X0024161Y0211108D01*
X0024143Y0210962D01*
X0024122Y0210817D01*
X0024096Y0210673D01*
X0024066Y0210529D01*
X0024033Y0210387D01*
X0023996Y0210245D01*
X0023955Y0210104D01*
X0023910Y0209965D01*
X0023861Y0209826D01*
X0023809Y0209689D01*
X0023752Y0209554D01*
X0023693Y0209420D01*
X0023629Y0209288D01*
X0023562Y0209158D01*
X0023492Y0209029D01*
X0023418Y0208902D01*
X0023341Y0208778D01*
X0023260Y0208655D01*
X0023176Y0208535D01*
X0023089Y0208417D01*
X0022999Y0208302D01*
X0022906Y0208189D01*
X0022809Y0208078D01*
X0022710Y0207970D01*
X0022608Y0207865D01*
X0022503Y0207763D01*
X0022395Y0207664D01*
X0022284Y0207567D01*
X0022171Y0207474D01*
X0022056Y0207384D01*
X0021938Y0207297D01*
X0021818Y0207213D01*
X0021695Y0207132D01*
X0021571Y0207055D01*
X0021444Y0206981D01*
X0021315Y0206911D01*
X0021185Y0206844D01*
X0021053Y0206780D01*
X0020919Y0206721D01*
X0020784Y0206664D01*
X0020647Y0206612D01*
X0020508Y0206563D01*
X0020369Y0206518D01*
X0020228Y0206477D01*
X0020086Y0206440D01*
X0019944Y0206407D01*
X0019800Y0206377D01*
X0019656Y0206351D01*
X0019511Y0206330D01*
X0019365Y0206312D01*
X0019219Y0206298D01*
X0019073Y0206288D01*
X0018927Y0206282D01*
X0018780Y0206280D01*
X0018633Y0206282D01*
X0018487Y0206288D01*
X0018341Y0206298D01*
X0018195Y0206312D01*
X0018049Y0206330D01*
X0017904Y0206351D01*
X0017760Y0206377D01*
X0017616Y0206407D01*
X0017474Y0206440D01*
X0017332Y0206477D01*
X0017191Y0206518D01*
X0017052Y0206563D01*
X0016913Y0206612D01*
X0016776Y0206664D01*
X0016641Y0206721D01*
X0016507Y0206780D01*
X0016375Y0206844D01*
X0016245Y0206911D01*
X0016116Y0206981D01*
X0015989Y0207055D01*
X0015865Y0207132D01*
X0015742Y0207213D01*
X0015622Y0207297D01*
X0015504Y0207384D01*
X0015389Y0207474D01*
X0015276Y0207567D01*
X0015165Y0207664D01*
X0015057Y0207763D01*
X0014952Y0207865D01*
X0014850Y0207970D01*
X0014751Y0208078D01*
X0014654Y0208189D01*
X0014561Y0208302D01*
X0014471Y0208417D01*
X0014384Y0208535D01*
X0014300Y0208655D01*
X0014219Y0208778D01*
X0014142Y0208902D01*
X0014068Y0209029D01*
X0013998Y0209158D01*
X0013931Y0209288D01*
X0013867Y0209420D01*
X0013808Y0209554D01*
X0013751Y0209689D01*
X0013699Y0209826D01*
X0013650Y0209965D01*
X0013605Y0210104D01*
X0013564Y0210245D01*
X0013527Y0210387D01*
X0013494Y0210529D01*
X0013464Y0210673D01*
X0013438Y0210817D01*
X0013417Y0210962D01*
X0013399Y0211108D01*
X0013385Y0211254D01*
X0013375Y0211400D01*
X0013369Y0211546D01*
X0013367Y0211693D01*
X0241713Y0211693D02*
X0241715Y0211840D01*
X0241721Y0211986D01*
X0241731Y0212132D01*
X0241745Y0212278D01*
X0241763Y0212424D01*
X0241784Y0212569D01*
X0241810Y0212713D01*
X0241840Y0212857D01*
X0241873Y0212999D01*
X0241910Y0213141D01*
X0241951Y0213282D01*
X0241996Y0213421D01*
X0242045Y0213560D01*
X0242097Y0213697D01*
X0242154Y0213832D01*
X0242213Y0213966D01*
X0242277Y0214098D01*
X0242344Y0214228D01*
X0242414Y0214357D01*
X0242488Y0214484D01*
X0242565Y0214608D01*
X0242646Y0214731D01*
X0242730Y0214851D01*
X0242817Y0214969D01*
X0242907Y0215084D01*
X0243000Y0215197D01*
X0243097Y0215308D01*
X0243196Y0215416D01*
X0243298Y0215521D01*
X0243403Y0215623D01*
X0243511Y0215722D01*
X0243622Y0215819D01*
X0243735Y0215912D01*
X0243850Y0216002D01*
X0243968Y0216089D01*
X0244088Y0216173D01*
X0244211Y0216254D01*
X0244335Y0216331D01*
X0244462Y0216405D01*
X0244591Y0216475D01*
X0244721Y0216542D01*
X0244853Y0216606D01*
X0244987Y0216665D01*
X0245122Y0216722D01*
X0245259Y0216774D01*
X0245398Y0216823D01*
X0245537Y0216868D01*
X0245678Y0216909D01*
X0245820Y0216946D01*
X0245962Y0216979D01*
X0246106Y0217009D01*
X0246250Y0217035D01*
X0246395Y0217056D01*
X0246541Y0217074D01*
X0246687Y0217088D01*
X0246833Y0217098D01*
X0246979Y0217104D01*
X0247126Y0217106D01*
X0247273Y0217104D01*
X0247419Y0217098D01*
X0247565Y0217088D01*
X0247711Y0217074D01*
X0247857Y0217056D01*
X0248002Y0217035D01*
X0248146Y0217009D01*
X0248290Y0216979D01*
X0248432Y0216946D01*
X0248574Y0216909D01*
X0248715Y0216868D01*
X0248854Y0216823D01*
X0248993Y0216774D01*
X0249130Y0216722D01*
X0249265Y0216665D01*
X0249399Y0216606D01*
X0249531Y0216542D01*
X0249661Y0216475D01*
X0249790Y0216405D01*
X0249917Y0216331D01*
X0250041Y0216254D01*
X0250164Y0216173D01*
X0250284Y0216089D01*
X0250402Y0216002D01*
X0250517Y0215912D01*
X0250630Y0215819D01*
X0250741Y0215722D01*
X0250849Y0215623D01*
X0250954Y0215521D01*
X0251056Y0215416D01*
X0251155Y0215308D01*
X0251252Y0215197D01*
X0251345Y0215084D01*
X0251435Y0214969D01*
X0251522Y0214851D01*
X0251606Y0214731D01*
X0251687Y0214608D01*
X0251764Y0214484D01*
X0251838Y0214357D01*
X0251908Y0214228D01*
X0251975Y0214098D01*
X0252039Y0213966D01*
X0252098Y0213832D01*
X0252155Y0213697D01*
X0252207Y0213560D01*
X0252256Y0213421D01*
X0252301Y0213282D01*
X0252342Y0213141D01*
X0252379Y0212999D01*
X0252412Y0212857D01*
X0252442Y0212713D01*
X0252468Y0212569D01*
X0252489Y0212424D01*
X0252507Y0212278D01*
X0252521Y0212132D01*
X0252531Y0211986D01*
X0252537Y0211840D01*
X0252539Y0211693D01*
X0252537Y0211546D01*
X0252531Y0211400D01*
X0252521Y0211254D01*
X0252507Y0211108D01*
X0252489Y0210962D01*
X0252468Y0210817D01*
X0252442Y0210673D01*
X0252412Y0210529D01*
X0252379Y0210387D01*
X0252342Y0210245D01*
X0252301Y0210104D01*
X0252256Y0209965D01*
X0252207Y0209826D01*
X0252155Y0209689D01*
X0252098Y0209554D01*
X0252039Y0209420D01*
X0251975Y0209288D01*
X0251908Y0209158D01*
X0251838Y0209029D01*
X0251764Y0208902D01*
X0251687Y0208778D01*
X0251606Y0208655D01*
X0251522Y0208535D01*
X0251435Y0208417D01*
X0251345Y0208302D01*
X0251252Y0208189D01*
X0251155Y0208078D01*
X0251056Y0207970D01*
X0250954Y0207865D01*
X0250849Y0207763D01*
X0250741Y0207664D01*
X0250630Y0207567D01*
X0250517Y0207474D01*
X0250402Y0207384D01*
X0250284Y0207297D01*
X0250164Y0207213D01*
X0250041Y0207132D01*
X0249917Y0207055D01*
X0249790Y0206981D01*
X0249661Y0206911D01*
X0249531Y0206844D01*
X0249399Y0206780D01*
X0249265Y0206721D01*
X0249130Y0206664D01*
X0248993Y0206612D01*
X0248854Y0206563D01*
X0248715Y0206518D01*
X0248574Y0206477D01*
X0248432Y0206440D01*
X0248290Y0206407D01*
X0248146Y0206377D01*
X0248002Y0206351D01*
X0247857Y0206330D01*
X0247711Y0206312D01*
X0247565Y0206298D01*
X0247419Y0206288D01*
X0247273Y0206282D01*
X0247126Y0206280D01*
X0246979Y0206282D01*
X0246833Y0206288D01*
X0246687Y0206298D01*
X0246541Y0206312D01*
X0246395Y0206330D01*
X0246250Y0206351D01*
X0246106Y0206377D01*
X0245962Y0206407D01*
X0245820Y0206440D01*
X0245678Y0206477D01*
X0245537Y0206518D01*
X0245398Y0206563D01*
X0245259Y0206612D01*
X0245122Y0206664D01*
X0244987Y0206721D01*
X0244853Y0206780D01*
X0244721Y0206844D01*
X0244591Y0206911D01*
X0244462Y0206981D01*
X0244335Y0207055D01*
X0244211Y0207132D01*
X0244088Y0207213D01*
X0243968Y0207297D01*
X0243850Y0207384D01*
X0243735Y0207474D01*
X0243622Y0207567D01*
X0243511Y0207664D01*
X0243403Y0207763D01*
X0243298Y0207865D01*
X0243196Y0207970D01*
X0243097Y0208078D01*
X0243000Y0208189D01*
X0242907Y0208302D01*
X0242817Y0208417D01*
X0242730Y0208535D01*
X0242646Y0208655D01*
X0242565Y0208778D01*
X0242488Y0208902D01*
X0242414Y0209029D01*
X0242344Y0209158D01*
X0242277Y0209288D01*
X0242213Y0209420D01*
X0242154Y0209554D01*
X0242097Y0209689D01*
X0242045Y0209826D01*
X0241996Y0209965D01*
X0241951Y0210104D01*
X0241910Y0210245D01*
X0241873Y0210387D01*
X0241840Y0210529D01*
X0241810Y0210673D01*
X0241784Y0210817D01*
X0241763Y0210962D01*
X0241745Y0211108D01*
X0241731Y0211254D01*
X0241721Y0211400D01*
X0241715Y0211546D01*
X0241713Y0211693D01*
X0241713Y0018780D02*
X0241715Y0018927D01*
X0241721Y0019073D01*
X0241731Y0019219D01*
X0241745Y0019365D01*
X0241763Y0019511D01*
X0241784Y0019656D01*
X0241810Y0019800D01*
X0241840Y0019944D01*
X0241873Y0020086D01*
X0241910Y0020228D01*
X0241951Y0020369D01*
X0241996Y0020508D01*
X0242045Y0020647D01*
X0242097Y0020784D01*
X0242154Y0020919D01*
X0242213Y0021053D01*
X0242277Y0021185D01*
X0242344Y0021315D01*
X0242414Y0021444D01*
X0242488Y0021571D01*
X0242565Y0021695D01*
X0242646Y0021818D01*
X0242730Y0021938D01*
X0242817Y0022056D01*
X0242907Y0022171D01*
X0243000Y0022284D01*
X0243097Y0022395D01*
X0243196Y0022503D01*
X0243298Y0022608D01*
X0243403Y0022710D01*
X0243511Y0022809D01*
X0243622Y0022906D01*
X0243735Y0022999D01*
X0243850Y0023089D01*
X0243968Y0023176D01*
X0244088Y0023260D01*
X0244211Y0023341D01*
X0244335Y0023418D01*
X0244462Y0023492D01*
X0244591Y0023562D01*
X0244721Y0023629D01*
X0244853Y0023693D01*
X0244987Y0023752D01*
X0245122Y0023809D01*
X0245259Y0023861D01*
X0245398Y0023910D01*
X0245537Y0023955D01*
X0245678Y0023996D01*
X0245820Y0024033D01*
X0245962Y0024066D01*
X0246106Y0024096D01*
X0246250Y0024122D01*
X0246395Y0024143D01*
X0246541Y0024161D01*
X0246687Y0024175D01*
X0246833Y0024185D01*
X0246979Y0024191D01*
X0247126Y0024193D01*
X0247273Y0024191D01*
X0247419Y0024185D01*
X0247565Y0024175D01*
X0247711Y0024161D01*
X0247857Y0024143D01*
X0248002Y0024122D01*
X0248146Y0024096D01*
X0248290Y0024066D01*
X0248432Y0024033D01*
X0248574Y0023996D01*
X0248715Y0023955D01*
X0248854Y0023910D01*
X0248993Y0023861D01*
X0249130Y0023809D01*
X0249265Y0023752D01*
X0249399Y0023693D01*
X0249531Y0023629D01*
X0249661Y0023562D01*
X0249790Y0023492D01*
X0249917Y0023418D01*
X0250041Y0023341D01*
X0250164Y0023260D01*
X0250284Y0023176D01*
X0250402Y0023089D01*
X0250517Y0022999D01*
X0250630Y0022906D01*
X0250741Y0022809D01*
X0250849Y0022710D01*
X0250954Y0022608D01*
X0251056Y0022503D01*
X0251155Y0022395D01*
X0251252Y0022284D01*
X0251345Y0022171D01*
X0251435Y0022056D01*
X0251522Y0021938D01*
X0251606Y0021818D01*
X0251687Y0021695D01*
X0251764Y0021571D01*
X0251838Y0021444D01*
X0251908Y0021315D01*
X0251975Y0021185D01*
X0252039Y0021053D01*
X0252098Y0020919D01*
X0252155Y0020784D01*
X0252207Y0020647D01*
X0252256Y0020508D01*
X0252301Y0020369D01*
X0252342Y0020228D01*
X0252379Y0020086D01*
X0252412Y0019944D01*
X0252442Y0019800D01*
X0252468Y0019656D01*
X0252489Y0019511D01*
X0252507Y0019365D01*
X0252521Y0019219D01*
X0252531Y0019073D01*
X0252537Y0018927D01*
X0252539Y0018780D01*
X0252537Y0018633D01*
X0252531Y0018487D01*
X0252521Y0018341D01*
X0252507Y0018195D01*
X0252489Y0018049D01*
X0252468Y0017904D01*
X0252442Y0017760D01*
X0252412Y0017616D01*
X0252379Y0017474D01*
X0252342Y0017332D01*
X0252301Y0017191D01*
X0252256Y0017052D01*
X0252207Y0016913D01*
X0252155Y0016776D01*
X0252098Y0016641D01*
X0252039Y0016507D01*
X0251975Y0016375D01*
X0251908Y0016245D01*
X0251838Y0016116D01*
X0251764Y0015989D01*
X0251687Y0015865D01*
X0251606Y0015742D01*
X0251522Y0015622D01*
X0251435Y0015504D01*
X0251345Y0015389D01*
X0251252Y0015276D01*
X0251155Y0015165D01*
X0251056Y0015057D01*
X0250954Y0014952D01*
X0250849Y0014850D01*
X0250741Y0014751D01*
X0250630Y0014654D01*
X0250517Y0014561D01*
X0250402Y0014471D01*
X0250284Y0014384D01*
X0250164Y0014300D01*
X0250041Y0014219D01*
X0249917Y0014142D01*
X0249790Y0014068D01*
X0249661Y0013998D01*
X0249531Y0013931D01*
X0249399Y0013867D01*
X0249265Y0013808D01*
X0249130Y0013751D01*
X0248993Y0013699D01*
X0248854Y0013650D01*
X0248715Y0013605D01*
X0248574Y0013564D01*
X0248432Y0013527D01*
X0248290Y0013494D01*
X0248146Y0013464D01*
X0248002Y0013438D01*
X0247857Y0013417D01*
X0247711Y0013399D01*
X0247565Y0013385D01*
X0247419Y0013375D01*
X0247273Y0013369D01*
X0247126Y0013367D01*
X0246979Y0013369D01*
X0246833Y0013375D01*
X0246687Y0013385D01*
X0246541Y0013399D01*
X0246395Y0013417D01*
X0246250Y0013438D01*
X0246106Y0013464D01*
X0245962Y0013494D01*
X0245820Y0013527D01*
X0245678Y0013564D01*
X0245537Y0013605D01*
X0245398Y0013650D01*
X0245259Y0013699D01*
X0245122Y0013751D01*
X0244987Y0013808D01*
X0244853Y0013867D01*
X0244721Y0013931D01*
X0244591Y0013998D01*
X0244462Y0014068D01*
X0244335Y0014142D01*
X0244211Y0014219D01*
X0244088Y0014300D01*
X0243968Y0014384D01*
X0243850Y0014471D01*
X0243735Y0014561D01*
X0243622Y0014654D01*
X0243511Y0014751D01*
X0243403Y0014850D01*
X0243298Y0014952D01*
X0243196Y0015057D01*
X0243097Y0015165D01*
X0243000Y0015276D01*
X0242907Y0015389D01*
X0242817Y0015504D01*
X0242730Y0015622D01*
X0242646Y0015742D01*
X0242565Y0015865D01*
X0242488Y0015989D01*
X0242414Y0016116D01*
X0242344Y0016245D01*
X0242277Y0016375D01*
X0242213Y0016507D01*
X0242154Y0016641D01*
X0242097Y0016776D01*
X0242045Y0016913D01*
X0241996Y0017052D01*
X0241951Y0017191D01*
X0241910Y0017332D01*
X0241873Y0017474D01*
X0241840Y0017616D01*
X0241810Y0017760D01*
X0241784Y0017904D01*
X0241763Y0018049D01*
X0241745Y0018195D01*
X0241731Y0018341D01*
X0241721Y0018487D01*
X0241715Y0018633D01*
X0241713Y0018780D01*
M02*
