%
M48
M72
T01C0.02362
T02C0.02756
T03C0.03543
T04C0.04000
T05C0.04400
T06C0.11811
%
T01
X47067Y94000
X67067Y126500
X72067Y141500
X27067Y141500
T02
X54567Y176500
X44567Y176500
T03
X57067Y109000
X57067Y99000
X57067Y89000
X57067Y79000
X57067Y69000
X57067Y59000
X57067Y49000
X57067Y39000
X87067Y39000
X87067Y49000
X87067Y59000
X87067Y69000
X87067Y79000
X87067Y89000
X87067Y99000
X87067Y109000
T04
X12067Y159000
X22067Y159000
X32067Y159000
X42067Y159000
X52067Y159000
X62067Y159000
X72067Y159000
X82067Y159000
X32067Y101500
X32067Y89000
X32067Y76500
X32067Y64000
X32067Y51500
X32067Y39000
X32067Y26500
X32067Y14000
X22067Y14000
X22067Y26500
X22067Y39000
X22067Y51500
X22067Y64000
X22067Y76500
X22067Y89000
X22067Y101500
X12067Y101500
X12067Y89000
X12067Y76500
X12067Y64000
X12067Y51500
X12067Y39000
X12067Y26500
X12067Y14000
T05
X12067Y119000
X22067Y119000
X32067Y119000
X42067Y119000
X52067Y119000
X62067Y119000
X72067Y119000
X82067Y119000
X82067Y149000
X72067Y149000
X62067Y149000
X52067Y149000
X42067Y149000
X32067Y149000
X22067Y149000
X12067Y149000
T06
X74567Y19000
X19567Y179000
M30
