G75*
%MOIN*%
%OFA0B0*%
%FSLAX25Y25*%
%IPPOS*%
%LPD*%
%AMOC8*
5,1,8,0,0,1.08239X$1,22.5*
%
%ADD10C,0.00000*%
%ADD11R,0.06600X0.06600*%
%ADD12C,0.06600*%
%ADD13R,0.07400X0.07400*%
%ADD14C,0.07400*%
%ADD15R,0.06500X0.06500*%
%ADD16C,0.06500*%
%ADD17C,0.01000*%
%ADD18R,0.03562X0.03562*%
D10*
X0002067Y0001500D02*
X0002067Y0195201D01*
X0091988Y0195201D01*
X0091988Y0001500D01*
X0002067Y0001500D01*
X0068661Y0019000D02*
X0068663Y0019153D01*
X0068669Y0019307D01*
X0068679Y0019460D01*
X0068693Y0019612D01*
X0068711Y0019765D01*
X0068733Y0019916D01*
X0068758Y0020067D01*
X0068788Y0020218D01*
X0068822Y0020368D01*
X0068859Y0020516D01*
X0068900Y0020664D01*
X0068945Y0020810D01*
X0068994Y0020956D01*
X0069047Y0021100D01*
X0069103Y0021242D01*
X0069163Y0021383D01*
X0069227Y0021523D01*
X0069294Y0021661D01*
X0069365Y0021797D01*
X0069440Y0021931D01*
X0069517Y0022063D01*
X0069599Y0022193D01*
X0069683Y0022321D01*
X0069771Y0022447D01*
X0069862Y0022570D01*
X0069956Y0022691D01*
X0070054Y0022809D01*
X0070154Y0022925D01*
X0070258Y0023038D01*
X0070364Y0023149D01*
X0070473Y0023257D01*
X0070585Y0023362D01*
X0070699Y0023463D01*
X0070817Y0023562D01*
X0070936Y0023658D01*
X0071058Y0023751D01*
X0071183Y0023840D01*
X0071310Y0023927D01*
X0071439Y0024009D01*
X0071570Y0024089D01*
X0071703Y0024165D01*
X0071838Y0024238D01*
X0071975Y0024307D01*
X0072114Y0024372D01*
X0072254Y0024434D01*
X0072396Y0024492D01*
X0072539Y0024547D01*
X0072684Y0024598D01*
X0072830Y0024645D01*
X0072977Y0024688D01*
X0073125Y0024727D01*
X0073274Y0024763D01*
X0073424Y0024794D01*
X0073575Y0024822D01*
X0073726Y0024846D01*
X0073879Y0024866D01*
X0074031Y0024882D01*
X0074184Y0024894D01*
X0074337Y0024902D01*
X0074490Y0024906D01*
X0074644Y0024906D01*
X0074797Y0024902D01*
X0074950Y0024894D01*
X0075103Y0024882D01*
X0075255Y0024866D01*
X0075408Y0024846D01*
X0075559Y0024822D01*
X0075710Y0024794D01*
X0075860Y0024763D01*
X0076009Y0024727D01*
X0076157Y0024688D01*
X0076304Y0024645D01*
X0076450Y0024598D01*
X0076595Y0024547D01*
X0076738Y0024492D01*
X0076880Y0024434D01*
X0077020Y0024372D01*
X0077159Y0024307D01*
X0077296Y0024238D01*
X0077431Y0024165D01*
X0077564Y0024089D01*
X0077695Y0024009D01*
X0077824Y0023927D01*
X0077951Y0023840D01*
X0078076Y0023751D01*
X0078198Y0023658D01*
X0078317Y0023562D01*
X0078435Y0023463D01*
X0078549Y0023362D01*
X0078661Y0023257D01*
X0078770Y0023149D01*
X0078876Y0023038D01*
X0078980Y0022925D01*
X0079080Y0022809D01*
X0079178Y0022691D01*
X0079272Y0022570D01*
X0079363Y0022447D01*
X0079451Y0022321D01*
X0079535Y0022193D01*
X0079617Y0022063D01*
X0079694Y0021931D01*
X0079769Y0021797D01*
X0079840Y0021661D01*
X0079907Y0021523D01*
X0079971Y0021383D01*
X0080031Y0021242D01*
X0080087Y0021100D01*
X0080140Y0020956D01*
X0080189Y0020810D01*
X0080234Y0020664D01*
X0080275Y0020516D01*
X0080312Y0020368D01*
X0080346Y0020218D01*
X0080376Y0020067D01*
X0080401Y0019916D01*
X0080423Y0019765D01*
X0080441Y0019612D01*
X0080455Y0019460D01*
X0080465Y0019307D01*
X0080471Y0019153D01*
X0080473Y0019000D01*
X0080471Y0018847D01*
X0080465Y0018693D01*
X0080455Y0018540D01*
X0080441Y0018388D01*
X0080423Y0018235D01*
X0080401Y0018084D01*
X0080376Y0017933D01*
X0080346Y0017782D01*
X0080312Y0017632D01*
X0080275Y0017484D01*
X0080234Y0017336D01*
X0080189Y0017190D01*
X0080140Y0017044D01*
X0080087Y0016900D01*
X0080031Y0016758D01*
X0079971Y0016617D01*
X0079907Y0016477D01*
X0079840Y0016339D01*
X0079769Y0016203D01*
X0079694Y0016069D01*
X0079617Y0015937D01*
X0079535Y0015807D01*
X0079451Y0015679D01*
X0079363Y0015553D01*
X0079272Y0015430D01*
X0079178Y0015309D01*
X0079080Y0015191D01*
X0078980Y0015075D01*
X0078876Y0014962D01*
X0078770Y0014851D01*
X0078661Y0014743D01*
X0078549Y0014638D01*
X0078435Y0014537D01*
X0078317Y0014438D01*
X0078198Y0014342D01*
X0078076Y0014249D01*
X0077951Y0014160D01*
X0077824Y0014073D01*
X0077695Y0013991D01*
X0077564Y0013911D01*
X0077431Y0013835D01*
X0077296Y0013762D01*
X0077159Y0013693D01*
X0077020Y0013628D01*
X0076880Y0013566D01*
X0076738Y0013508D01*
X0076595Y0013453D01*
X0076450Y0013402D01*
X0076304Y0013355D01*
X0076157Y0013312D01*
X0076009Y0013273D01*
X0075860Y0013237D01*
X0075710Y0013206D01*
X0075559Y0013178D01*
X0075408Y0013154D01*
X0075255Y0013134D01*
X0075103Y0013118D01*
X0074950Y0013106D01*
X0074797Y0013098D01*
X0074644Y0013094D01*
X0074490Y0013094D01*
X0074337Y0013098D01*
X0074184Y0013106D01*
X0074031Y0013118D01*
X0073879Y0013134D01*
X0073726Y0013154D01*
X0073575Y0013178D01*
X0073424Y0013206D01*
X0073274Y0013237D01*
X0073125Y0013273D01*
X0072977Y0013312D01*
X0072830Y0013355D01*
X0072684Y0013402D01*
X0072539Y0013453D01*
X0072396Y0013508D01*
X0072254Y0013566D01*
X0072114Y0013628D01*
X0071975Y0013693D01*
X0071838Y0013762D01*
X0071703Y0013835D01*
X0071570Y0013911D01*
X0071439Y0013991D01*
X0071310Y0014073D01*
X0071183Y0014160D01*
X0071058Y0014249D01*
X0070936Y0014342D01*
X0070817Y0014438D01*
X0070699Y0014537D01*
X0070585Y0014638D01*
X0070473Y0014743D01*
X0070364Y0014851D01*
X0070258Y0014962D01*
X0070154Y0015075D01*
X0070054Y0015191D01*
X0069956Y0015309D01*
X0069862Y0015430D01*
X0069771Y0015553D01*
X0069683Y0015679D01*
X0069599Y0015807D01*
X0069517Y0015937D01*
X0069440Y0016069D01*
X0069365Y0016203D01*
X0069294Y0016339D01*
X0069227Y0016477D01*
X0069163Y0016617D01*
X0069103Y0016758D01*
X0069047Y0016900D01*
X0068994Y0017044D01*
X0068945Y0017190D01*
X0068900Y0017336D01*
X0068859Y0017484D01*
X0068822Y0017632D01*
X0068788Y0017782D01*
X0068758Y0017933D01*
X0068733Y0018084D01*
X0068711Y0018235D01*
X0068693Y0018388D01*
X0068679Y0018540D01*
X0068669Y0018693D01*
X0068663Y0018847D01*
X0068661Y0019000D01*
X0013661Y0179000D02*
X0013663Y0179153D01*
X0013669Y0179307D01*
X0013679Y0179460D01*
X0013693Y0179612D01*
X0013711Y0179765D01*
X0013733Y0179916D01*
X0013758Y0180067D01*
X0013788Y0180218D01*
X0013822Y0180368D01*
X0013859Y0180516D01*
X0013900Y0180664D01*
X0013945Y0180810D01*
X0013994Y0180956D01*
X0014047Y0181100D01*
X0014103Y0181242D01*
X0014163Y0181383D01*
X0014227Y0181523D01*
X0014294Y0181661D01*
X0014365Y0181797D01*
X0014440Y0181931D01*
X0014517Y0182063D01*
X0014599Y0182193D01*
X0014683Y0182321D01*
X0014771Y0182447D01*
X0014862Y0182570D01*
X0014956Y0182691D01*
X0015054Y0182809D01*
X0015154Y0182925D01*
X0015258Y0183038D01*
X0015364Y0183149D01*
X0015473Y0183257D01*
X0015585Y0183362D01*
X0015699Y0183463D01*
X0015817Y0183562D01*
X0015936Y0183658D01*
X0016058Y0183751D01*
X0016183Y0183840D01*
X0016310Y0183927D01*
X0016439Y0184009D01*
X0016570Y0184089D01*
X0016703Y0184165D01*
X0016838Y0184238D01*
X0016975Y0184307D01*
X0017114Y0184372D01*
X0017254Y0184434D01*
X0017396Y0184492D01*
X0017539Y0184547D01*
X0017684Y0184598D01*
X0017830Y0184645D01*
X0017977Y0184688D01*
X0018125Y0184727D01*
X0018274Y0184763D01*
X0018424Y0184794D01*
X0018575Y0184822D01*
X0018726Y0184846D01*
X0018879Y0184866D01*
X0019031Y0184882D01*
X0019184Y0184894D01*
X0019337Y0184902D01*
X0019490Y0184906D01*
X0019644Y0184906D01*
X0019797Y0184902D01*
X0019950Y0184894D01*
X0020103Y0184882D01*
X0020255Y0184866D01*
X0020408Y0184846D01*
X0020559Y0184822D01*
X0020710Y0184794D01*
X0020860Y0184763D01*
X0021009Y0184727D01*
X0021157Y0184688D01*
X0021304Y0184645D01*
X0021450Y0184598D01*
X0021595Y0184547D01*
X0021738Y0184492D01*
X0021880Y0184434D01*
X0022020Y0184372D01*
X0022159Y0184307D01*
X0022296Y0184238D01*
X0022431Y0184165D01*
X0022564Y0184089D01*
X0022695Y0184009D01*
X0022824Y0183927D01*
X0022951Y0183840D01*
X0023076Y0183751D01*
X0023198Y0183658D01*
X0023317Y0183562D01*
X0023435Y0183463D01*
X0023549Y0183362D01*
X0023661Y0183257D01*
X0023770Y0183149D01*
X0023876Y0183038D01*
X0023980Y0182925D01*
X0024080Y0182809D01*
X0024178Y0182691D01*
X0024272Y0182570D01*
X0024363Y0182447D01*
X0024451Y0182321D01*
X0024535Y0182193D01*
X0024617Y0182063D01*
X0024694Y0181931D01*
X0024769Y0181797D01*
X0024840Y0181661D01*
X0024907Y0181523D01*
X0024971Y0181383D01*
X0025031Y0181242D01*
X0025087Y0181100D01*
X0025140Y0180956D01*
X0025189Y0180810D01*
X0025234Y0180664D01*
X0025275Y0180516D01*
X0025312Y0180368D01*
X0025346Y0180218D01*
X0025376Y0180067D01*
X0025401Y0179916D01*
X0025423Y0179765D01*
X0025441Y0179612D01*
X0025455Y0179460D01*
X0025465Y0179307D01*
X0025471Y0179153D01*
X0025473Y0179000D01*
X0025471Y0178847D01*
X0025465Y0178693D01*
X0025455Y0178540D01*
X0025441Y0178388D01*
X0025423Y0178235D01*
X0025401Y0178084D01*
X0025376Y0177933D01*
X0025346Y0177782D01*
X0025312Y0177632D01*
X0025275Y0177484D01*
X0025234Y0177336D01*
X0025189Y0177190D01*
X0025140Y0177044D01*
X0025087Y0176900D01*
X0025031Y0176758D01*
X0024971Y0176617D01*
X0024907Y0176477D01*
X0024840Y0176339D01*
X0024769Y0176203D01*
X0024694Y0176069D01*
X0024617Y0175937D01*
X0024535Y0175807D01*
X0024451Y0175679D01*
X0024363Y0175553D01*
X0024272Y0175430D01*
X0024178Y0175309D01*
X0024080Y0175191D01*
X0023980Y0175075D01*
X0023876Y0174962D01*
X0023770Y0174851D01*
X0023661Y0174743D01*
X0023549Y0174638D01*
X0023435Y0174537D01*
X0023317Y0174438D01*
X0023198Y0174342D01*
X0023076Y0174249D01*
X0022951Y0174160D01*
X0022824Y0174073D01*
X0022695Y0173991D01*
X0022564Y0173911D01*
X0022431Y0173835D01*
X0022296Y0173762D01*
X0022159Y0173693D01*
X0022020Y0173628D01*
X0021880Y0173566D01*
X0021738Y0173508D01*
X0021595Y0173453D01*
X0021450Y0173402D01*
X0021304Y0173355D01*
X0021157Y0173312D01*
X0021009Y0173273D01*
X0020860Y0173237D01*
X0020710Y0173206D01*
X0020559Y0173178D01*
X0020408Y0173154D01*
X0020255Y0173134D01*
X0020103Y0173118D01*
X0019950Y0173106D01*
X0019797Y0173098D01*
X0019644Y0173094D01*
X0019490Y0173094D01*
X0019337Y0173098D01*
X0019184Y0173106D01*
X0019031Y0173118D01*
X0018879Y0173134D01*
X0018726Y0173154D01*
X0018575Y0173178D01*
X0018424Y0173206D01*
X0018274Y0173237D01*
X0018125Y0173273D01*
X0017977Y0173312D01*
X0017830Y0173355D01*
X0017684Y0173402D01*
X0017539Y0173453D01*
X0017396Y0173508D01*
X0017254Y0173566D01*
X0017114Y0173628D01*
X0016975Y0173693D01*
X0016838Y0173762D01*
X0016703Y0173835D01*
X0016570Y0173911D01*
X0016439Y0173991D01*
X0016310Y0174073D01*
X0016183Y0174160D01*
X0016058Y0174249D01*
X0015936Y0174342D01*
X0015817Y0174438D01*
X0015699Y0174537D01*
X0015585Y0174638D01*
X0015473Y0174743D01*
X0015364Y0174851D01*
X0015258Y0174962D01*
X0015154Y0175075D01*
X0015054Y0175191D01*
X0014956Y0175309D01*
X0014862Y0175430D01*
X0014771Y0175553D01*
X0014683Y0175679D01*
X0014599Y0175807D01*
X0014517Y0175937D01*
X0014440Y0176069D01*
X0014365Y0176203D01*
X0014294Y0176339D01*
X0014227Y0176477D01*
X0014163Y0176617D01*
X0014103Y0176758D01*
X0014047Y0176900D01*
X0013994Y0177044D01*
X0013945Y0177190D01*
X0013900Y0177336D01*
X0013859Y0177484D01*
X0013822Y0177632D01*
X0013788Y0177782D01*
X0013758Y0177933D01*
X0013733Y0178084D01*
X0013711Y0178235D01*
X0013693Y0178388D01*
X0013679Y0178540D01*
X0013669Y0178693D01*
X0013663Y0178847D01*
X0013661Y0179000D01*
D11*
X0012067Y0119000D03*
D12*
X0022067Y0119000D03*
X0032067Y0119000D03*
X0042067Y0119000D03*
X0052067Y0119000D03*
X0062067Y0119000D03*
X0072067Y0119000D03*
X0082067Y0119000D03*
X0082067Y0149000D03*
X0072067Y0149000D03*
X0062067Y0149000D03*
X0052067Y0149000D03*
X0042067Y0149000D03*
X0032067Y0149000D03*
X0022067Y0149000D03*
X0012067Y0149000D03*
D13*
X0012067Y0159000D03*
D14*
X0022067Y0159000D03*
X0032067Y0159000D03*
X0042067Y0159000D03*
X0052067Y0159000D03*
X0062067Y0159000D03*
X0072067Y0159000D03*
X0082067Y0159000D03*
X0087067Y0109000D03*
X0087067Y0099000D03*
X0087067Y0089000D03*
X0087067Y0079000D03*
X0087067Y0069000D03*
X0087067Y0059000D03*
X0087067Y0049000D03*
X0087067Y0039000D03*
X0057067Y0039000D03*
X0057067Y0049000D03*
X0057067Y0059000D03*
X0057067Y0069000D03*
X0057067Y0079000D03*
X0057067Y0089000D03*
X0057067Y0099000D03*
X0057067Y0109000D03*
X0032067Y0101500D03*
X0032067Y0089000D03*
X0032067Y0076500D03*
X0032067Y0064000D03*
X0032067Y0051500D03*
X0032067Y0039000D03*
X0032067Y0026500D03*
X0032067Y0014000D03*
X0022067Y0014000D03*
X0022067Y0026500D03*
X0022067Y0039000D03*
X0022067Y0051500D03*
X0022067Y0064000D03*
X0022067Y0076500D03*
X0022067Y0089000D03*
X0022067Y0101500D03*
X0012067Y0101500D03*
X0012067Y0089000D03*
X0012067Y0076500D03*
X0012067Y0064000D03*
X0012067Y0051500D03*
X0012067Y0039000D03*
X0012067Y0026500D03*
X0012067Y0014000D03*
D15*
X0044567Y0176500D03*
D16*
X0054567Y0176500D03*
D17*
X0049567Y0171500D01*
X0037067Y0171500D01*
X0032067Y0166500D01*
X0087067Y0166500D01*
X0089567Y0164000D01*
X0089567Y0121500D01*
X0087067Y0119000D01*
X0062067Y0119000D01*
X0072067Y0119000D01*
X0082067Y0119000D01*
X0079690Y0115330D02*
X0074444Y0115330D01*
X0074502Y0115355D02*
X0075712Y0116564D01*
X0076100Y0117500D01*
X0078034Y0117500D01*
X0078421Y0116564D01*
X0079631Y0115355D01*
X0081211Y0114700D01*
X0082922Y0114700D01*
X0084502Y0115355D01*
X0085712Y0116564D01*
X0086100Y0117500D01*
X0087688Y0117500D01*
X0090188Y0120000D01*
X0090488Y0120300D01*
X0090488Y0112933D01*
X0090454Y0112966D01*
X0089792Y0113447D01*
X0089063Y0113819D01*
X0088284Y0114072D01*
X0087476Y0114200D01*
X0087452Y0114200D01*
X0087452Y0109386D01*
X0086681Y0109386D01*
X0086681Y0114200D01*
X0086657Y0114200D01*
X0085849Y0114072D01*
X0085071Y0113819D01*
X0084341Y0113447D01*
X0083679Y0112966D01*
X0083100Y0112388D01*
X0082619Y0111725D01*
X0082248Y0110996D01*
X0081995Y0110218D01*
X0081867Y0109409D01*
X0081867Y0109386D01*
X0086681Y0109386D01*
X0086681Y0108614D01*
X0087452Y0108614D01*
X0087452Y0099386D01*
X0086681Y0099386D01*
X0086681Y0104200D01*
X0086681Y0108614D01*
X0081867Y0108614D01*
X0081867Y0108591D01*
X0081995Y0107782D01*
X0082248Y0107004D01*
X0082619Y0106275D01*
X0083100Y0105612D01*
X0083679Y0105034D01*
X0084341Y0104553D01*
X0085071Y0104181D01*
X0085628Y0104000D01*
X0085071Y0103819D01*
X0084341Y0103447D01*
X0083679Y0102966D01*
X0083100Y0102388D01*
X0082619Y0101725D01*
X0082248Y0100996D01*
X0081995Y0100218D01*
X0081867Y0099409D01*
X0081867Y0099386D01*
X0086681Y0099386D01*
X0086681Y0098614D01*
X0087452Y0098614D01*
X0087452Y0089386D01*
X0086681Y0089386D01*
X0086681Y0093800D01*
X0086681Y0098614D01*
X0081867Y0098614D01*
X0081867Y0098591D01*
X0081995Y0097782D01*
X0082248Y0097004D01*
X0082619Y0096275D01*
X0083100Y0095612D01*
X0083679Y0095034D01*
X0084341Y0094553D01*
X0085071Y0094181D01*
X0085628Y0094000D01*
X0085071Y0093819D01*
X0084341Y0093447D01*
X0083679Y0092966D01*
X0083100Y0092388D01*
X0082619Y0091725D01*
X0082248Y0090996D01*
X0081995Y0090218D01*
X0081867Y0089409D01*
X0081867Y0089386D01*
X0086681Y0089386D01*
X0086681Y0088614D01*
X0087452Y0088614D01*
X0087452Y0079386D01*
X0086681Y0079386D01*
X0086681Y0084200D01*
X0086681Y0088614D01*
X0081867Y0088614D01*
X0081867Y0088591D01*
X0081995Y0087782D01*
X0082248Y0087004D01*
X0082619Y0086275D01*
X0083100Y0085612D01*
X0083679Y0085034D01*
X0084341Y0084553D01*
X0085071Y0084181D01*
X0085628Y0084000D01*
X0085071Y0083819D01*
X0084341Y0083447D01*
X0083679Y0082966D01*
X0083100Y0082388D01*
X0082619Y0081725D01*
X0082248Y0080996D01*
X0081995Y0080218D01*
X0081867Y0079409D01*
X0081867Y0079386D01*
X0086681Y0079386D01*
X0086681Y0078614D01*
X0087452Y0078614D01*
X0087452Y0069386D01*
X0086681Y0069386D01*
X0086681Y0074200D01*
X0086681Y0078614D01*
X0081867Y0078614D01*
X0081867Y0078591D01*
X0081995Y0077782D01*
X0082248Y0077004D01*
X0082619Y0076275D01*
X0083100Y0075612D01*
X0083679Y0075034D01*
X0084341Y0074553D01*
X0085071Y0074181D01*
X0085628Y0074000D01*
X0085071Y0073819D01*
X0084341Y0073447D01*
X0083679Y0072966D01*
X0083100Y0072388D01*
X0082619Y0071725D01*
X0082248Y0070996D01*
X0081995Y0070218D01*
X0081867Y0069409D01*
X0081867Y0069386D01*
X0086681Y0069386D01*
X0086681Y0068614D01*
X0087452Y0068614D01*
X0087452Y0059386D01*
X0086681Y0059386D01*
X0086681Y0063800D01*
X0086681Y0068614D01*
X0081867Y0068614D01*
X0081867Y0068591D01*
X0081995Y0067782D01*
X0082248Y0067004D01*
X0082619Y0066275D01*
X0083100Y0065612D01*
X0083679Y0065034D01*
X0084341Y0064553D01*
X0085071Y0064181D01*
X0085628Y0064000D01*
X0085071Y0063819D01*
X0084341Y0063447D01*
X0083679Y0062966D01*
X0083100Y0062388D01*
X0082619Y0061725D01*
X0082248Y0060996D01*
X0081995Y0060218D01*
X0081867Y0059409D01*
X0081867Y0059386D01*
X0086681Y0059386D01*
X0086681Y0058614D01*
X0087452Y0058614D01*
X0087452Y0049386D01*
X0086681Y0049386D01*
X0086681Y0054200D01*
X0086681Y0058614D01*
X0081867Y0058614D01*
X0081867Y0058591D01*
X0081995Y0057782D01*
X0082248Y0057004D01*
X0082619Y0056275D01*
X0083100Y0055612D01*
X0083679Y0055034D01*
X0084341Y0054553D01*
X0085071Y0054181D01*
X0085628Y0054000D01*
X0085071Y0053819D01*
X0084341Y0053447D01*
X0083679Y0052966D01*
X0083100Y0052388D01*
X0082619Y0051725D01*
X0082248Y0050996D01*
X0081995Y0050218D01*
X0081867Y0049409D01*
X0081867Y0049386D01*
X0086681Y0049386D01*
X0086681Y0048614D01*
X0087452Y0048614D01*
X0087452Y0039386D01*
X0086681Y0039386D01*
X0086681Y0044200D01*
X0086681Y0048614D01*
X0081867Y0048614D01*
X0081867Y0048591D01*
X0081995Y0047782D01*
X0082248Y0047004D01*
X0082619Y0046275D01*
X0083100Y0045612D01*
X0083679Y0045034D01*
X0084341Y0044553D01*
X0085071Y0044181D01*
X0085628Y0044000D01*
X0085071Y0043819D01*
X0084341Y0043447D01*
X0083679Y0042966D01*
X0083100Y0042388D01*
X0082619Y0041725D01*
X0082248Y0040996D01*
X0081995Y0040218D01*
X0081867Y0039409D01*
X0081867Y0039386D01*
X0086681Y0039386D01*
X0086681Y0038614D01*
X0087452Y0038614D01*
X0087452Y0033800D01*
X0087476Y0033800D01*
X0088284Y0033928D01*
X0089063Y0034181D01*
X0089792Y0034553D01*
X0090454Y0035034D01*
X0090488Y0035067D01*
X0090488Y0022840D01*
X0090334Y0023863D01*
X0090334Y0023863D01*
X0088200Y0028295D01*
X0084854Y0031900D01*
X0080595Y0034359D01*
X0080595Y0034359D01*
X0075800Y0035454D01*
X0075800Y0035454D01*
X0070895Y0035086D01*
X0066317Y0033289D01*
X0062471Y0030223D01*
X0062471Y0030223D01*
X0059701Y0026159D01*
X0058567Y0022483D01*
X0058567Y0034534D01*
X0059729Y0035016D01*
X0061051Y0036338D01*
X0061767Y0038065D01*
X0061767Y0039935D01*
X0061051Y0041662D01*
X0059729Y0042984D01*
X0058002Y0043700D01*
X0056132Y0043700D01*
X0054404Y0042984D01*
X0053567Y0042147D01*
X0053567Y0043379D01*
X0054969Y0044781D01*
X0056132Y0044300D01*
X0058002Y0044300D01*
X0059729Y0045016D01*
X0061051Y0046338D01*
X0061767Y0048065D01*
X0061767Y0049935D01*
X0061051Y0051662D01*
X0059729Y0052984D01*
X0058002Y0053700D01*
X0056132Y0053700D01*
X0054404Y0052984D01*
X0053082Y0051662D01*
X0052367Y0049935D01*
X0052367Y0048065D01*
X0052848Y0046903D01*
X0051445Y0045500D01*
X0051067Y0045121D01*
X0051067Y0050879D01*
X0054969Y0054781D01*
X0056132Y0054300D01*
X0058002Y0054300D01*
X0059729Y0055016D01*
X0061051Y0056338D01*
X0061767Y0058065D01*
X0061767Y0059935D01*
X0061051Y0061662D01*
X0059729Y0062984D01*
X0058002Y0063700D01*
X0056132Y0063700D01*
X0054404Y0062984D01*
X0053082Y0061662D01*
X0052367Y0059935D01*
X0052367Y0058065D01*
X0052848Y0056903D01*
X0048567Y0052621D01*
X0048567Y0058379D01*
X0054969Y0064781D01*
X0056132Y0064300D01*
X0058002Y0064300D01*
X0059729Y0065016D01*
X0061051Y0066338D01*
X0061767Y0068065D01*
X0061767Y0069935D01*
X0061051Y0071662D01*
X0059729Y0072984D01*
X0058002Y0073700D01*
X0056132Y0073700D01*
X0054404Y0072984D01*
X0053082Y0071662D01*
X0052367Y0069935D01*
X0052367Y0068065D01*
X0052848Y0066903D01*
X0045567Y0059621D01*
X0045567Y0049621D01*
X0043945Y0048000D01*
X0035921Y0048000D01*
X0036033Y0048112D01*
X0036514Y0048775D01*
X0036886Y0049504D01*
X0037139Y0050282D01*
X0037252Y0051000D01*
X0032567Y0051000D01*
X0032567Y0052000D01*
X0037252Y0052000D01*
X0037139Y0052718D01*
X0036886Y0053496D01*
X0036514Y0054225D01*
X0036033Y0054888D01*
X0035454Y0055466D01*
X0034792Y0055947D01*
X0034063Y0056319D01*
X0033284Y0056572D01*
X0032567Y0056686D01*
X0032567Y0052000D01*
X0031567Y0052000D01*
X0031567Y0056686D01*
X0030849Y0056572D01*
X0030071Y0056319D01*
X0029341Y0055947D01*
X0028679Y0055466D01*
X0028100Y0054888D01*
X0027619Y0054225D01*
X0027248Y0053496D01*
X0026995Y0052718D01*
X0026881Y0052000D01*
X0031567Y0052000D01*
X0031567Y0051000D01*
X0026881Y0051000D01*
X0026995Y0050282D01*
X0027248Y0049504D01*
X0027619Y0048775D01*
X0028100Y0048112D01*
X0028213Y0048000D01*
X0027688Y0048000D01*
X0026285Y0049403D01*
X0026767Y0050565D01*
X0026767Y0052435D01*
X0026051Y0054162D01*
X0024729Y0055484D01*
X0023002Y0056200D01*
X0021132Y0056200D01*
X0019404Y0055484D01*
X0018082Y0054162D01*
X0017367Y0052435D01*
X0017367Y0050565D01*
X0018082Y0048838D01*
X0019404Y0047516D01*
X0021132Y0046800D01*
X0023002Y0046800D01*
X0024164Y0047281D01*
X0025567Y0045879D01*
X0026445Y0045000D01*
X0045188Y0045000D01*
X0047688Y0047500D01*
X0048067Y0047879D01*
X0048067Y0037121D01*
X0046445Y0035500D01*
X0035921Y0035500D01*
X0036033Y0035612D01*
X0036514Y0036275D01*
X0036886Y0037004D01*
X0037139Y0037782D01*
X0037252Y0038500D01*
X0032567Y0038500D01*
X0032567Y0039500D01*
X0037252Y0039500D01*
X0037139Y0040218D01*
X0036886Y0040996D01*
X0036514Y0041725D01*
X0036033Y0042388D01*
X0035454Y0042966D01*
X0034792Y0043447D01*
X0034063Y0043819D01*
X0033284Y0044072D01*
X0032567Y0044186D01*
X0032567Y0039500D01*
X0031567Y0039500D01*
X0031567Y0044186D01*
X0030849Y0044072D01*
X0030071Y0043819D01*
X0029341Y0043447D01*
X0028679Y0042966D01*
X0028100Y0042388D01*
X0027619Y0041725D01*
X0027248Y0040996D01*
X0026995Y0040218D01*
X0026881Y0039500D01*
X0031567Y0039500D01*
X0031567Y0038500D01*
X0026881Y0038500D01*
X0026995Y0037782D01*
X0027248Y0037004D01*
X0027619Y0036275D01*
X0028100Y0035612D01*
X0028213Y0035500D01*
X0027688Y0035500D01*
X0026285Y0036903D01*
X0026767Y0038065D01*
X0026767Y0039935D01*
X0026051Y0041662D01*
X0024729Y0042984D01*
X0023002Y0043700D01*
X0021132Y0043700D01*
X0019404Y0042984D01*
X0018082Y0041662D01*
X0017367Y0039935D01*
X0017367Y0038065D01*
X0018082Y0036338D01*
X0019404Y0035016D01*
X0021132Y0034300D01*
X0023002Y0034300D01*
X0024164Y0034781D01*
X0025567Y0033379D01*
X0026445Y0032500D01*
X0047688Y0032500D01*
X0050188Y0035000D01*
X0050567Y0035379D01*
X0050567Y0024621D01*
X0048945Y0023000D01*
X0035921Y0023000D01*
X0036033Y0023112D01*
X0036514Y0023775D01*
X0036886Y0024504D01*
X0037139Y0025282D01*
X0037252Y0026000D01*
X0032567Y0026000D01*
X0032567Y0027000D01*
X0037252Y0027000D01*
X0037139Y0027718D01*
X0036886Y0028496D01*
X0036514Y0029225D01*
X0036033Y0029888D01*
X0035454Y0030466D01*
X0034792Y0030947D01*
X0034063Y0031319D01*
X0033284Y0031572D01*
X0032567Y0031686D01*
X0032567Y0027000D01*
X0031567Y0027000D01*
X0031567Y0031686D01*
X0030849Y0031572D01*
X0030071Y0031319D01*
X0029341Y0030947D01*
X0028679Y0030466D01*
X0028100Y0029888D01*
X0027619Y0029225D01*
X0027248Y0028496D01*
X0026995Y0027718D01*
X0026881Y0027000D01*
X0031567Y0027000D01*
X0031567Y0026000D01*
X0026881Y0026000D01*
X0026995Y0025282D01*
X0027248Y0024504D01*
X0027619Y0023775D01*
X0028100Y0023112D01*
X0028213Y0023000D01*
X0027688Y0023000D01*
X0026285Y0024403D01*
X0026767Y0025565D01*
X0026767Y0027435D01*
X0026051Y0029162D01*
X0024729Y0030484D01*
X0023002Y0031200D01*
X0021132Y0031200D01*
X0019404Y0030484D01*
X0018082Y0029162D01*
X0017367Y0027435D01*
X0017367Y0025565D01*
X0018082Y0023838D01*
X0019404Y0022516D01*
X0021132Y0021800D01*
X0023002Y0021800D01*
X0024164Y0022281D01*
X0025567Y0020879D01*
X0026445Y0020000D01*
X0050188Y0020000D01*
X0052688Y0022500D01*
X0053567Y0023379D01*
X0053567Y0035853D01*
X0054404Y0035016D01*
X0055567Y0034534D01*
X0055567Y0012121D01*
X0051445Y0008000D01*
X0027688Y0008000D01*
X0025201Y0010487D01*
X0026051Y0011338D01*
X0026767Y0013065D01*
X0026767Y0014935D01*
X0026051Y0016662D01*
X0024729Y0017984D01*
X0023002Y0018700D01*
X0021132Y0018700D01*
X0019404Y0017984D01*
X0018082Y0016662D01*
X0017367Y0014935D01*
X0017367Y0013065D01*
X0018082Y0011338D01*
X0019404Y0010016D01*
X0021132Y0009300D01*
X0022145Y0009300D01*
X0025567Y0005879D01*
X0026445Y0005000D01*
X0052688Y0005000D01*
X0057688Y0010000D01*
X0058567Y0010879D01*
X0058567Y0015517D01*
X0059701Y0011841D01*
X0062471Y0007777D01*
X0062471Y0007777D01*
X0066317Y0004711D01*
X0070675Y0003000D01*
X0003567Y0003000D01*
X0003567Y0175517D01*
X0004701Y0171841D01*
X0007471Y0167777D01*
X0007471Y0167777D01*
X0007471Y0167777D01*
X0011317Y0164711D01*
X0013892Y0163700D01*
X0007952Y0163700D01*
X0007367Y0163114D01*
X0007367Y0154886D01*
X0007952Y0154300D01*
X0016181Y0154300D01*
X0016767Y0154886D01*
X0016767Y0162848D01*
X0019094Y0162674D01*
X0018082Y0161662D01*
X0017367Y0159935D01*
X0017367Y0158065D01*
X0018082Y0156338D01*
X0019404Y0155016D01*
X0021132Y0154300D01*
X0023002Y0154300D01*
X0024729Y0155016D01*
X0026051Y0156338D01*
X0026767Y0158065D01*
X0026767Y0159079D01*
X0027367Y0159679D01*
X0027367Y0158065D01*
X0028082Y0156338D01*
X0029404Y0155016D01*
X0031132Y0154300D01*
X0033002Y0154300D01*
X0034729Y0155016D01*
X0036051Y0156338D01*
X0036767Y0158065D01*
X0036767Y0159935D01*
X0036051Y0161662D01*
X0034729Y0162984D01*
X0033002Y0163700D01*
X0031388Y0163700D01*
X0032688Y0165000D01*
X0086445Y0165000D01*
X0088067Y0163379D01*
X0088067Y0122121D01*
X0086445Y0120500D01*
X0086100Y0120500D01*
X0085712Y0121436D01*
X0084502Y0122645D01*
X0082922Y0123300D01*
X0081211Y0123300D01*
X0079631Y0122645D01*
X0078421Y0121436D01*
X0078034Y0120500D01*
X0076100Y0120500D01*
X0075712Y0121436D01*
X0074502Y0122645D01*
X0072922Y0123300D01*
X0071211Y0123300D01*
X0069631Y0122645D01*
X0068421Y0121436D01*
X0068034Y0120500D01*
X0066100Y0120500D01*
X0065712Y0121436D01*
X0064502Y0122645D01*
X0062922Y0123300D01*
X0061211Y0123300D01*
X0059631Y0122645D01*
X0058421Y0121436D01*
X0057767Y0119855D01*
X0057767Y0118145D01*
X0058421Y0116564D01*
X0059631Y0115355D01*
X0061211Y0114700D01*
X0062922Y0114700D01*
X0064502Y0115355D01*
X0065712Y0116564D01*
X0066100Y0117500D01*
X0068034Y0117500D01*
X0068421Y0116564D01*
X0069631Y0115355D01*
X0071211Y0114700D01*
X0072922Y0114700D01*
X0074502Y0115355D01*
X0075477Y0116329D02*
X0078657Y0116329D01*
X0078105Y0117327D02*
X0076028Y0117327D01*
X0075759Y0121321D02*
X0078374Y0121321D01*
X0079305Y0122320D02*
X0074828Y0122320D01*
X0069848Y0124305D02*
X0069262Y0123719D01*
X0064871Y0123719D01*
X0064286Y0124305D01*
X0064286Y0125000D01*
X0026445Y0125000D01*
X0021445Y0130000D01*
X0020567Y0130879D01*
X0020567Y0144967D01*
X0019631Y0145355D01*
X0018421Y0146564D01*
X0017767Y0148145D01*
X0017767Y0149855D01*
X0018421Y0151436D01*
X0019631Y0152645D01*
X0021211Y0153300D01*
X0022922Y0153300D01*
X0024502Y0152645D01*
X0025712Y0151436D01*
X0026367Y0149855D01*
X0026367Y0148145D01*
X0025712Y0146564D01*
X0024502Y0145355D01*
X0023567Y0144967D01*
X0023567Y0132121D01*
X0027688Y0128000D01*
X0064286Y0128000D01*
X0064286Y0128695D01*
X0064871Y0129281D01*
X0069262Y0129281D01*
X0069848Y0128695D01*
X0069848Y0124305D01*
X0069848Y0124317D02*
X0088067Y0124317D01*
X0088067Y0125315D02*
X0069848Y0125315D01*
X0069848Y0126314D02*
X0088067Y0126314D01*
X0088067Y0127312D02*
X0069848Y0127312D01*
X0069848Y0128311D02*
X0088067Y0128311D01*
X0088067Y0129309D02*
X0026379Y0129309D01*
X0027377Y0128311D02*
X0064286Y0128311D01*
X0064286Y0124317D02*
X0003567Y0124317D01*
X0003567Y0125315D02*
X0026130Y0125315D01*
X0025131Y0126314D02*
X0003567Y0126314D01*
X0003567Y0127312D02*
X0024133Y0127312D01*
X0023134Y0128311D02*
X0003567Y0128311D01*
X0003567Y0129309D02*
X0022136Y0129309D01*
X0021137Y0130308D02*
X0003567Y0130308D01*
X0003567Y0131306D02*
X0020567Y0131306D01*
X0020567Y0132305D02*
X0003567Y0132305D01*
X0003567Y0133303D02*
X0020567Y0133303D01*
X0020567Y0134302D02*
X0003567Y0134302D01*
X0003567Y0135301D02*
X0020567Y0135301D01*
X0020567Y0136299D02*
X0003567Y0136299D01*
X0003567Y0137298D02*
X0020567Y0137298D01*
X0020567Y0138296D02*
X0003567Y0138296D01*
X0003567Y0139295D02*
X0020567Y0139295D01*
X0020567Y0140293D02*
X0003567Y0140293D01*
X0003567Y0141292D02*
X0020567Y0141292D01*
X0020567Y0142290D02*
X0003567Y0142290D01*
X0003567Y0143289D02*
X0020567Y0143289D01*
X0020567Y0144287D02*
X0003567Y0144287D01*
X0003567Y0145286D02*
X0009797Y0145286D01*
X0009631Y0145355D02*
X0011211Y0144700D01*
X0012922Y0144700D01*
X0014502Y0145355D01*
X0015712Y0146564D01*
X0016367Y0148145D01*
X0016367Y0149855D01*
X0015712Y0151436D01*
X0014502Y0152645D01*
X0012922Y0153300D01*
X0011211Y0153300D01*
X0009631Y0152645D01*
X0008421Y0151436D01*
X0007767Y0149855D01*
X0007767Y0148145D01*
X0008421Y0146564D01*
X0009631Y0145355D01*
X0008701Y0146284D02*
X0003567Y0146284D01*
X0003567Y0147283D02*
X0008124Y0147283D01*
X0007767Y0148281D02*
X0003567Y0148281D01*
X0003567Y0149280D02*
X0007767Y0149280D01*
X0007942Y0150278D02*
X0003567Y0150278D01*
X0003567Y0151277D02*
X0008355Y0151277D01*
X0009261Y0152275D02*
X0003567Y0152275D01*
X0003567Y0153274D02*
X0011148Y0153274D01*
X0012985Y0153274D02*
X0021148Y0153274D01*
X0022985Y0153274D02*
X0031148Y0153274D01*
X0031211Y0153300D02*
X0029631Y0152645D01*
X0028421Y0151436D01*
X0027767Y0149855D01*
X0027767Y0148145D01*
X0028421Y0146564D01*
X0029631Y0145355D01*
X0031211Y0144700D01*
X0032922Y0144700D01*
X0034502Y0145355D01*
X0035712Y0146564D01*
X0036367Y0148145D01*
X0036367Y0149855D01*
X0035712Y0151436D01*
X0034502Y0152645D01*
X0032922Y0153300D01*
X0031211Y0153300D01*
X0032985Y0153274D02*
X0041148Y0153274D01*
X0041211Y0153300D02*
X0039631Y0152645D01*
X0038421Y0151436D01*
X0037767Y0149855D01*
X0037767Y0148145D01*
X0038421Y0146564D01*
X0039631Y0145355D01*
X0041211Y0144700D01*
X0042922Y0144700D01*
X0044502Y0145355D01*
X0045712Y0146564D01*
X0046367Y0148145D01*
X0046367Y0149855D01*
X0045712Y0151436D01*
X0044502Y0152645D01*
X0042922Y0153300D01*
X0041211Y0153300D01*
X0041567Y0153814D02*
X0041567Y0158500D01*
X0042567Y0158500D01*
X0042567Y0159500D01*
X0047252Y0159500D01*
X0047139Y0160218D01*
X0046886Y0160996D01*
X0046514Y0161725D01*
X0046033Y0162388D01*
X0045454Y0162966D01*
X0044792Y0163447D01*
X0044063Y0163819D01*
X0043284Y0164072D01*
X0042567Y0164186D01*
X0042567Y0159500D01*
X0041567Y0159500D01*
X0041567Y0164186D01*
X0040849Y0164072D01*
X0040071Y0163819D01*
X0039341Y0163447D01*
X0038679Y0162966D01*
X0038100Y0162388D01*
X0037619Y0161725D01*
X0037248Y0160996D01*
X0036995Y0160218D01*
X0036881Y0159500D01*
X0041567Y0159500D01*
X0041567Y0158500D01*
X0036881Y0158500D01*
X0036995Y0157782D01*
X0037248Y0157004D01*
X0037619Y0156275D01*
X0038100Y0155612D01*
X0038679Y0155034D01*
X0039341Y0154553D01*
X0040071Y0154181D01*
X0040849Y0153928D01*
X0041567Y0153814D01*
X0041567Y0154272D02*
X0042567Y0154272D01*
X0042567Y0153814D02*
X0043284Y0153928D01*
X0044063Y0154181D01*
X0044792Y0154553D01*
X0045454Y0155034D01*
X0046033Y0155612D01*
X0046514Y0156275D01*
X0046886Y0157004D01*
X0047139Y0157782D01*
X0047252Y0158500D01*
X0042567Y0158500D01*
X0042567Y0153814D01*
X0042985Y0153274D02*
X0051148Y0153274D01*
X0051211Y0153300D02*
X0049631Y0152645D01*
X0048421Y0151436D01*
X0047767Y0149855D01*
X0047767Y0148145D01*
X0048421Y0146564D01*
X0049631Y0145355D01*
X0051211Y0144700D01*
X0052922Y0144700D01*
X0054502Y0145355D01*
X0055712Y0146564D01*
X0056367Y0148145D01*
X0056367Y0149855D01*
X0055712Y0151436D01*
X0054502Y0152645D01*
X0052922Y0153300D01*
X0051211Y0153300D01*
X0051132Y0154300D02*
X0053002Y0154300D01*
X0054729Y0155016D01*
X0056051Y0156338D01*
X0056767Y0158065D01*
X0056767Y0159935D01*
X0056051Y0161662D01*
X0054729Y0162984D01*
X0053002Y0163700D01*
X0051132Y0163700D01*
X0049404Y0162984D01*
X0048082Y0161662D01*
X0047367Y0159935D01*
X0047367Y0158065D01*
X0048082Y0156338D01*
X0049404Y0155016D01*
X0051132Y0154300D01*
X0052985Y0153274D02*
X0061148Y0153274D01*
X0061211Y0153300D02*
X0059631Y0152645D01*
X0058421Y0151436D01*
X0057767Y0149855D01*
X0057767Y0148145D01*
X0058421Y0146564D01*
X0059631Y0145355D01*
X0061211Y0144700D01*
X0062922Y0144700D01*
X0064502Y0145355D01*
X0065712Y0146564D01*
X0066367Y0148145D01*
X0066367Y0149855D01*
X0065712Y0151436D01*
X0064502Y0152645D01*
X0062922Y0153300D01*
X0061211Y0153300D01*
X0061132Y0154300D02*
X0063002Y0154300D01*
X0064729Y0155016D01*
X0066051Y0156338D01*
X0066767Y0158065D01*
X0066767Y0159935D01*
X0066051Y0161662D01*
X0064729Y0162984D01*
X0063002Y0163700D01*
X0061132Y0163700D01*
X0059404Y0162984D01*
X0058082Y0161662D01*
X0057367Y0159935D01*
X0057367Y0158065D01*
X0058082Y0156338D01*
X0059404Y0155016D01*
X0061132Y0154300D01*
X0062985Y0153274D02*
X0071148Y0153274D01*
X0071211Y0153300D02*
X0069631Y0152645D01*
X0068421Y0151436D01*
X0067767Y0149855D01*
X0067767Y0148145D01*
X0068421Y0146564D01*
X0069631Y0145355D01*
X0071211Y0144700D01*
X0072922Y0144700D01*
X0074502Y0145355D01*
X0075712Y0146564D01*
X0076367Y0148145D01*
X0076367Y0149855D01*
X0075712Y0151436D01*
X0074502Y0152645D01*
X0072922Y0153300D01*
X0071211Y0153300D01*
X0071132Y0154300D02*
X0073002Y0154300D01*
X0074729Y0155016D01*
X0076051Y0156338D01*
X0076767Y0158065D01*
X0076767Y0159935D01*
X0076051Y0161662D01*
X0074729Y0162984D01*
X0073002Y0163700D01*
X0071132Y0163700D01*
X0069404Y0162984D01*
X0068082Y0161662D01*
X0067367Y0159935D01*
X0067367Y0158065D01*
X0068082Y0156338D01*
X0069404Y0155016D01*
X0071132Y0154300D01*
X0072985Y0153274D02*
X0081148Y0153274D01*
X0081211Y0153300D02*
X0079631Y0152645D01*
X0078421Y0151436D01*
X0077767Y0149855D01*
X0077767Y0148145D01*
X0078421Y0146564D01*
X0079631Y0145355D01*
X0081211Y0144700D01*
X0082922Y0144700D01*
X0084502Y0145355D01*
X0085712Y0146564D01*
X0086367Y0148145D01*
X0086367Y0149855D01*
X0085712Y0151436D01*
X0084502Y0152645D01*
X0082922Y0153300D01*
X0081211Y0153300D01*
X0081132Y0154300D02*
X0083002Y0154300D01*
X0084729Y0155016D01*
X0086051Y0156338D01*
X0086767Y0158065D01*
X0086767Y0159935D01*
X0086051Y0161662D01*
X0084729Y0162984D01*
X0083002Y0163700D01*
X0081132Y0163700D01*
X0079404Y0162984D01*
X0078082Y0161662D01*
X0077367Y0159935D01*
X0077367Y0158065D01*
X0078082Y0156338D01*
X0079404Y0155016D01*
X0081132Y0154300D01*
X0082985Y0153274D02*
X0088067Y0153274D01*
X0088067Y0154272D02*
X0044242Y0154272D01*
X0045691Y0155271D02*
X0049149Y0155271D01*
X0048151Y0156269D02*
X0046510Y0156269D01*
X0046971Y0157268D02*
X0047697Y0157268D01*
X0047367Y0158266D02*
X0047215Y0158266D01*
X0047367Y0159265D02*
X0042567Y0159265D01*
X0042567Y0160263D02*
X0041567Y0160263D01*
X0041567Y0159265D02*
X0036767Y0159265D01*
X0036767Y0158266D02*
X0036918Y0158266D01*
X0037162Y0157268D02*
X0036436Y0157268D01*
X0035983Y0156269D02*
X0037623Y0156269D01*
X0038442Y0155271D02*
X0034984Y0155271D01*
X0034873Y0152275D02*
X0039261Y0152275D01*
X0038355Y0151277D02*
X0035778Y0151277D01*
X0036191Y0150278D02*
X0037942Y0150278D01*
X0037767Y0149280D02*
X0036367Y0149280D01*
X0036367Y0148281D02*
X0037767Y0148281D01*
X0038124Y0147283D02*
X0036010Y0147283D01*
X0035432Y0146284D02*
X0038701Y0146284D01*
X0039797Y0145286D02*
X0034336Y0145286D01*
X0029797Y0145286D02*
X0024336Y0145286D01*
X0024871Y0144281D02*
X0024286Y0143695D01*
X0024286Y0139305D01*
X0024871Y0138719D01*
X0029262Y0138719D01*
X0029848Y0139305D01*
X0029848Y0140000D01*
X0069286Y0140000D01*
X0069286Y0139305D01*
X0069871Y0138719D01*
X0074262Y0138719D01*
X0074848Y0139305D01*
X0074848Y0143695D01*
X0074262Y0144281D01*
X0069871Y0144281D01*
X0069286Y0143695D01*
X0069286Y0143000D01*
X0029848Y0143000D01*
X0029848Y0143695D01*
X0029262Y0144281D01*
X0024871Y0144281D01*
X0024286Y0143289D02*
X0023567Y0143289D01*
X0023567Y0144287D02*
X0088067Y0144287D01*
X0088067Y0143289D02*
X0074848Y0143289D01*
X0074848Y0142290D02*
X0088067Y0142290D01*
X0088067Y0141292D02*
X0074848Y0141292D01*
X0074848Y0140293D02*
X0088067Y0140293D01*
X0088067Y0139295D02*
X0074838Y0139295D01*
X0072067Y0141500D02*
X0027067Y0141500D01*
X0025432Y0146284D02*
X0028701Y0146284D01*
X0028124Y0147283D02*
X0026010Y0147283D01*
X0026367Y0148281D02*
X0027767Y0148281D01*
X0027767Y0149280D02*
X0026367Y0149280D01*
X0026191Y0150278D02*
X0027942Y0150278D01*
X0028355Y0151277D02*
X0025778Y0151277D01*
X0024873Y0152275D02*
X0029261Y0152275D01*
X0029149Y0155271D02*
X0024984Y0155271D01*
X0025983Y0156269D02*
X0028151Y0156269D01*
X0027697Y0157268D02*
X0026436Y0157268D01*
X0026767Y0158266D02*
X0027367Y0158266D01*
X0027367Y0159265D02*
X0026953Y0159265D01*
X0024567Y0159000D02*
X0032067Y0166500D01*
X0031945Y0164257D02*
X0087188Y0164257D01*
X0088067Y0163259D02*
X0084067Y0163259D01*
X0085453Y0162260D02*
X0088067Y0162260D01*
X0088067Y0161262D02*
X0086217Y0161262D01*
X0086631Y0160263D02*
X0088067Y0160263D01*
X0088067Y0159265D02*
X0086767Y0159265D01*
X0086767Y0158266D02*
X0088067Y0158266D01*
X0088067Y0157268D02*
X0086436Y0157268D01*
X0085983Y0156269D02*
X0088067Y0156269D01*
X0088067Y0155271D02*
X0084984Y0155271D01*
X0084873Y0152275D02*
X0088067Y0152275D01*
X0088067Y0151277D02*
X0085778Y0151277D01*
X0086191Y0150278D02*
X0088067Y0150278D01*
X0088067Y0149280D02*
X0086367Y0149280D01*
X0086367Y0148281D02*
X0088067Y0148281D01*
X0088067Y0147283D02*
X0086010Y0147283D01*
X0085432Y0146284D02*
X0088067Y0146284D01*
X0088067Y0145286D02*
X0084336Y0145286D01*
X0088067Y0138296D02*
X0023567Y0138296D01*
X0023567Y0137298D02*
X0088067Y0137298D01*
X0088067Y0136299D02*
X0023567Y0136299D01*
X0023567Y0135301D02*
X0088067Y0135301D01*
X0088067Y0134302D02*
X0023567Y0134302D01*
X0023567Y0133303D02*
X0088067Y0133303D01*
X0088067Y0132305D02*
X0023567Y0132305D01*
X0024381Y0131306D02*
X0088067Y0131306D01*
X0088067Y0130308D02*
X0025380Y0130308D01*
X0022067Y0131500D02*
X0027067Y0126500D01*
X0067067Y0126500D01*
X0064828Y0122320D02*
X0069305Y0122320D01*
X0068374Y0121321D02*
X0065759Y0121321D01*
X0066028Y0117327D02*
X0068105Y0117327D01*
X0068657Y0116329D02*
X0065477Y0116329D01*
X0064444Y0115330D02*
X0069690Y0115330D01*
X0061051Y0111662D02*
X0061767Y0109935D01*
X0061767Y0108065D01*
X0061051Y0106338D01*
X0059729Y0105016D01*
X0058002Y0104300D01*
X0056132Y0104300D01*
X0054969Y0104781D01*
X0047688Y0097500D01*
X0040188Y0097500D01*
X0037688Y0095000D01*
X0026445Y0095000D01*
X0025567Y0095879D01*
X0025567Y0095879D01*
X0024164Y0097281D01*
X0023002Y0096800D01*
X0021132Y0096800D01*
X0019404Y0097516D01*
X0018082Y0098838D01*
X0017367Y0100565D01*
X0017367Y0102435D01*
X0018082Y0104162D01*
X0019404Y0105484D01*
X0021132Y0106200D01*
X0023002Y0106200D01*
X0024729Y0105484D01*
X0026051Y0104162D01*
X0026767Y0102435D01*
X0026767Y0100565D01*
X0026285Y0099403D01*
X0027688Y0098000D01*
X0028213Y0098000D01*
X0028100Y0098112D01*
X0027619Y0098775D01*
X0027248Y0099504D01*
X0026995Y0100282D01*
X0026881Y0101000D01*
X0031567Y0101000D01*
X0031567Y0102000D01*
X0031567Y0106686D01*
X0030849Y0106572D01*
X0030071Y0106319D01*
X0029341Y0105947D01*
X0028679Y0105466D01*
X0028100Y0104888D01*
X0027619Y0104225D01*
X0027248Y0103496D01*
X0026995Y0102718D01*
X0026881Y0102000D01*
X0031567Y0102000D01*
X0032567Y0102000D01*
X0037252Y0102000D01*
X0037139Y0102718D01*
X0036886Y0103496D01*
X0036514Y0104225D01*
X0036033Y0104888D01*
X0035454Y0105466D01*
X0034792Y0105947D01*
X0034063Y0106319D01*
X0033284Y0106572D01*
X0032567Y0106686D01*
X0032567Y0102000D01*
X0032567Y0101000D01*
X0037252Y0101000D01*
X0037139Y0100282D01*
X0036886Y0099504D01*
X0036514Y0098775D01*
X0036033Y0098112D01*
X0035921Y0098000D01*
X0036445Y0098000D01*
X0038067Y0099621D01*
X0038945Y0100500D01*
X0046445Y0100500D01*
X0052848Y0106903D01*
X0052367Y0108065D01*
X0052367Y0109935D01*
X0053082Y0111662D01*
X0054404Y0112984D01*
X0056132Y0113700D01*
X0058002Y0113700D01*
X0059729Y0112984D01*
X0061051Y0111662D01*
X0061186Y0111336D02*
X0082421Y0111336D01*
X0082034Y0110338D02*
X0061600Y0110338D01*
X0061767Y0109339D02*
X0086681Y0109339D01*
X0086681Y0108341D02*
X0087452Y0108341D01*
X0087452Y0107342D02*
X0086681Y0107342D01*
X0086681Y0106344D02*
X0087452Y0106344D01*
X0087452Y0105345D02*
X0086681Y0105345D01*
X0086681Y0104347D02*
X0087452Y0104347D01*
X0087452Y0103348D02*
X0086681Y0103348D01*
X0086681Y0102350D02*
X0087452Y0102350D01*
X0087452Y0101351D02*
X0086681Y0101351D01*
X0086681Y0100353D02*
X0087452Y0100353D01*
X0086681Y0099354D02*
X0061767Y0099354D01*
X0061767Y0099935D02*
X0061051Y0101662D01*
X0059729Y0102984D01*
X0058002Y0103700D01*
X0056132Y0103700D01*
X0054404Y0102984D01*
X0053082Y0101662D01*
X0052367Y0099935D01*
X0052367Y0098065D01*
X0052848Y0096903D01*
X0051445Y0095500D01*
X0049848Y0095500D01*
X0049848Y0096195D01*
X0049262Y0096781D01*
X0044871Y0096781D01*
X0044286Y0096195D01*
X0044286Y0091805D01*
X0044871Y0091219D01*
X0047164Y0091219D01*
X0041445Y0085500D01*
X0035921Y0085500D01*
X0036033Y0085612D01*
X0036514Y0086275D01*
X0036886Y0087004D01*
X0037139Y0087782D01*
X0037252Y0088500D01*
X0032567Y0088500D01*
X0032567Y0089500D01*
X0037252Y0089500D01*
X0037139Y0090218D01*
X0036886Y0090996D01*
X0036514Y0091725D01*
X0036033Y0092388D01*
X0035454Y0092966D01*
X0034792Y0093447D01*
X0034063Y0093819D01*
X0033284Y0094072D01*
X0032567Y0094186D01*
X0032567Y0089500D01*
X0031567Y0089500D01*
X0031567Y0094186D01*
X0030849Y0094072D01*
X0030071Y0093819D01*
X0029341Y0093447D01*
X0028679Y0092966D01*
X0028100Y0092388D01*
X0027619Y0091725D01*
X0027248Y0090996D01*
X0026995Y0090218D01*
X0026881Y0089500D01*
X0031567Y0089500D01*
X0031567Y0088500D01*
X0026881Y0088500D01*
X0026995Y0087782D01*
X0027248Y0087004D01*
X0027619Y0086275D01*
X0028100Y0085612D01*
X0028213Y0085500D01*
X0027688Y0085500D01*
X0026285Y0086903D01*
X0026767Y0088065D01*
X0026767Y0089935D01*
X0026051Y0091662D01*
X0024729Y0092984D01*
X0023002Y0093700D01*
X0021132Y0093700D01*
X0019404Y0092984D01*
X0018082Y0091662D01*
X0017367Y0089935D01*
X0017367Y0088065D01*
X0018082Y0086338D01*
X0019404Y0085016D01*
X0021132Y0084300D01*
X0023002Y0084300D01*
X0024164Y0084781D01*
X0025567Y0083379D01*
X0026445Y0082500D01*
X0042688Y0082500D01*
X0052688Y0092500D01*
X0054969Y0094781D01*
X0056132Y0094300D01*
X0058002Y0094300D01*
X0059729Y0095016D01*
X0061051Y0096338D01*
X0061767Y0098065D01*
X0061767Y0099935D01*
X0061594Y0100353D02*
X0082039Y0100353D01*
X0082429Y0101351D02*
X0061180Y0101351D01*
X0060364Y0102350D02*
X0083073Y0102350D01*
X0084205Y0103348D02*
X0058851Y0103348D01*
X0058114Y0104347D02*
X0084745Y0104347D01*
X0083368Y0105345D02*
X0060059Y0105345D01*
X0061054Y0106344D02*
X0082584Y0106344D01*
X0082138Y0107342D02*
X0061467Y0107342D01*
X0061767Y0108341D02*
X0081906Y0108341D01*
X0083062Y0112335D02*
X0060379Y0112335D01*
X0058887Y0113333D02*
X0084184Y0113333D01*
X0084444Y0115330D02*
X0090488Y0115330D01*
X0090488Y0114332D02*
X0003567Y0114332D01*
X0003567Y0115330D02*
X0007767Y0115330D01*
X0007767Y0115286D02*
X0008352Y0114700D01*
X0015781Y0114700D01*
X0016367Y0115286D01*
X0016367Y0122714D01*
X0015781Y0123300D01*
X0008352Y0123300D01*
X0007767Y0122714D01*
X0007767Y0115286D01*
X0007767Y0116329D02*
X0003567Y0116329D01*
X0003567Y0117327D02*
X0007767Y0117327D01*
X0007767Y0118326D02*
X0003567Y0118326D01*
X0003567Y0119324D02*
X0007767Y0119324D01*
X0007767Y0120323D02*
X0003567Y0120323D01*
X0003567Y0121321D02*
X0007767Y0121321D01*
X0007767Y0122320D02*
X0003567Y0122320D01*
X0003567Y0123318D02*
X0088067Y0123318D01*
X0088067Y0122320D02*
X0084828Y0122320D01*
X0085759Y0121321D02*
X0087267Y0121321D01*
X0089512Y0119324D02*
X0090488Y0119324D01*
X0090488Y0118326D02*
X0088514Y0118326D01*
X0090488Y0117327D02*
X0086028Y0117327D01*
X0085477Y0116329D02*
X0090488Y0116329D01*
X0090488Y0113333D02*
X0089949Y0113333D01*
X0087452Y0113333D02*
X0086681Y0113333D01*
X0086681Y0112335D02*
X0087452Y0112335D01*
X0087452Y0111336D02*
X0086681Y0111336D01*
X0086681Y0110338D02*
X0087452Y0110338D01*
X0087452Y0098356D02*
X0086681Y0098356D01*
X0086681Y0097357D02*
X0087452Y0097357D01*
X0087452Y0096359D02*
X0086681Y0096359D01*
X0086681Y0095360D02*
X0087452Y0095360D01*
X0087452Y0094362D02*
X0086681Y0094362D01*
X0086681Y0093363D02*
X0087452Y0093363D01*
X0087452Y0092365D02*
X0086681Y0092365D01*
X0086681Y0091366D02*
X0087452Y0091366D01*
X0087452Y0090368D02*
X0086681Y0090368D01*
X0086681Y0089369D02*
X0061767Y0089369D01*
X0061767Y0089935D02*
X0061051Y0091662D01*
X0059729Y0092984D01*
X0058002Y0093700D01*
X0056132Y0093700D01*
X0054404Y0092984D01*
X0053082Y0091662D01*
X0052367Y0089935D01*
X0052367Y0088065D01*
X0052848Y0086903D01*
X0038945Y0073000D01*
X0035921Y0073000D01*
X0036033Y0073112D01*
X0036514Y0073775D01*
X0036886Y0074504D01*
X0037139Y0075282D01*
X0037252Y0076000D01*
X0032567Y0076000D01*
X0032567Y0077000D01*
X0037252Y0077000D01*
X0037139Y0077718D01*
X0036886Y0078496D01*
X0036514Y0079225D01*
X0036033Y0079888D01*
X0035454Y0080466D01*
X0034792Y0080947D01*
X0034063Y0081319D01*
X0033284Y0081572D01*
X0032567Y0081686D01*
X0032567Y0077000D01*
X0031567Y0077000D01*
X0031567Y0081686D01*
X0030849Y0081572D01*
X0030071Y0081319D01*
X0029341Y0080947D01*
X0028679Y0080466D01*
X0028100Y0079888D01*
X0027619Y0079225D01*
X0027248Y0078496D01*
X0026995Y0077718D01*
X0026881Y0077000D01*
X0031567Y0077000D01*
X0031567Y0076000D01*
X0026881Y0076000D01*
X0026995Y0075282D01*
X0027248Y0074504D01*
X0027619Y0073775D01*
X0028100Y0073112D01*
X0028213Y0073000D01*
X0027688Y0073000D01*
X0026285Y0074403D01*
X0026767Y0075565D01*
X0026767Y0077435D01*
X0026051Y0079162D01*
X0024729Y0080484D01*
X0023002Y0081200D01*
X0021132Y0081200D01*
X0019404Y0080484D01*
X0018082Y0079162D01*
X0017367Y0077435D01*
X0017367Y0075565D01*
X0018082Y0073838D01*
X0019404Y0072516D01*
X0021132Y0071800D01*
X0023002Y0071800D01*
X0024164Y0072281D01*
X0025567Y0070879D01*
X0026445Y0070000D01*
X0040188Y0070000D01*
X0054969Y0084781D01*
X0056132Y0084300D01*
X0058002Y0084300D01*
X0059729Y0085016D01*
X0061051Y0086338D01*
X0061767Y0088065D01*
X0061767Y0089935D01*
X0061587Y0090368D02*
X0082043Y0090368D01*
X0082436Y0091366D02*
X0061174Y0091366D01*
X0060349Y0092365D02*
X0083084Y0092365D01*
X0084225Y0093363D02*
X0058815Y0093363D01*
X0058150Y0094362D02*
X0084716Y0094362D01*
X0083353Y0095360D02*
X0060074Y0095360D01*
X0061060Y0096359D02*
X0082576Y0096359D01*
X0082133Y0097357D02*
X0061473Y0097357D01*
X0061767Y0098356D02*
X0081904Y0098356D01*
X0081902Y0088370D02*
X0061767Y0088370D01*
X0061480Y0087372D02*
X0082128Y0087372D01*
X0082569Y0086373D02*
X0061066Y0086373D01*
X0060088Y0085375D02*
X0083338Y0085375D01*
X0084687Y0084376D02*
X0058186Y0084376D01*
X0058002Y0083700D02*
X0059729Y0082984D01*
X0061051Y0081662D01*
X0061767Y0079935D01*
X0061767Y0078065D01*
X0061051Y0076338D01*
X0059729Y0075016D01*
X0058002Y0074300D01*
X0056132Y0074300D01*
X0054969Y0074781D01*
X0037688Y0057500D01*
X0026445Y0057500D01*
X0025567Y0058379D01*
X0024164Y0059781D01*
X0023002Y0059300D01*
X0021132Y0059300D01*
X0019404Y0060016D01*
X0018082Y0061338D01*
X0017367Y0063065D01*
X0017367Y0064935D01*
X0018082Y0066662D01*
X0019404Y0067984D01*
X0021132Y0068700D01*
X0023002Y0068700D01*
X0024729Y0067984D01*
X0026051Y0066662D01*
X0026767Y0064935D01*
X0026767Y0063065D01*
X0026285Y0061903D01*
X0027688Y0060500D01*
X0028213Y0060500D01*
X0028100Y0060612D01*
X0027619Y0061275D01*
X0027248Y0062004D01*
X0026995Y0062782D01*
X0026881Y0063500D01*
X0031567Y0063500D01*
X0031567Y0064500D01*
X0031567Y0069186D01*
X0030849Y0069072D01*
X0030071Y0068819D01*
X0029341Y0068447D01*
X0028679Y0067966D01*
X0028100Y0067388D01*
X0027619Y0066725D01*
X0027248Y0065996D01*
X0026995Y0065218D01*
X0026881Y0064500D01*
X0031567Y0064500D01*
X0032567Y0064500D01*
X0037252Y0064500D01*
X0037139Y0065218D01*
X0036886Y0065996D01*
X0036514Y0066725D01*
X0036033Y0067388D01*
X0035454Y0067966D01*
X0034792Y0068447D01*
X0034063Y0068819D01*
X0033284Y0069072D01*
X0032567Y0069186D01*
X0032567Y0064500D01*
X0032567Y0063500D01*
X0037252Y0063500D01*
X0037139Y0062782D01*
X0036886Y0062004D01*
X0036514Y0061275D01*
X0036033Y0060612D01*
X0035921Y0060500D01*
X0036445Y0060500D01*
X0052848Y0076903D01*
X0052367Y0078065D01*
X0052367Y0079935D01*
X0053082Y0081662D01*
X0054404Y0082984D01*
X0056132Y0083700D01*
X0058002Y0083700D01*
X0058779Y0083378D02*
X0084246Y0083378D01*
X0083094Y0082379D02*
X0060334Y0082379D01*
X0061168Y0081381D02*
X0082444Y0081381D01*
X0082048Y0080382D02*
X0061581Y0080382D01*
X0061767Y0079384D02*
X0086681Y0079384D01*
X0086681Y0080382D02*
X0087452Y0080382D01*
X0087452Y0081381D02*
X0086681Y0081381D01*
X0086681Y0082379D02*
X0087452Y0082379D01*
X0087452Y0083378D02*
X0086681Y0083378D01*
X0086681Y0084376D02*
X0087452Y0084376D01*
X0087452Y0085375D02*
X0086681Y0085375D01*
X0086681Y0086373D02*
X0087452Y0086373D01*
X0087452Y0087372D02*
X0086681Y0087372D01*
X0086681Y0088370D02*
X0087452Y0088370D01*
X0087452Y0078385D02*
X0086681Y0078385D01*
X0086681Y0077387D02*
X0087452Y0077387D01*
X0087452Y0076388D02*
X0086681Y0076388D01*
X0086681Y0075390D02*
X0087452Y0075390D01*
X0087452Y0074391D02*
X0086681Y0074391D01*
X0086681Y0073393D02*
X0087452Y0073393D01*
X0087452Y0072394D02*
X0086681Y0072394D01*
X0086681Y0071396D02*
X0087452Y0071396D01*
X0087452Y0070397D02*
X0086681Y0070397D01*
X0086681Y0069399D02*
X0087452Y0069399D01*
X0087452Y0068400D02*
X0086681Y0068400D01*
X0086681Y0067402D02*
X0087452Y0067402D01*
X0087452Y0066403D02*
X0086681Y0066403D01*
X0086681Y0065405D02*
X0087452Y0065405D01*
X0087452Y0064406D02*
X0086681Y0064406D01*
X0086681Y0063408D02*
X0087452Y0063408D01*
X0087452Y0062409D02*
X0086681Y0062409D01*
X0086681Y0061411D02*
X0087452Y0061411D01*
X0087452Y0060412D02*
X0086681Y0060412D01*
X0086681Y0059414D02*
X0087452Y0059414D01*
X0087452Y0058415D02*
X0086681Y0058415D01*
X0086681Y0057417D02*
X0087452Y0057417D01*
X0087452Y0056418D02*
X0086681Y0056418D01*
X0086681Y0055420D02*
X0087452Y0055420D01*
X0087452Y0054421D02*
X0086681Y0054421D01*
X0086681Y0053423D02*
X0087452Y0053423D01*
X0087452Y0052424D02*
X0086681Y0052424D01*
X0086681Y0051426D02*
X0087452Y0051426D01*
X0087452Y0050427D02*
X0086681Y0050427D01*
X0086681Y0049429D02*
X0087452Y0049429D01*
X0087452Y0048430D02*
X0086681Y0048430D01*
X0086681Y0047432D02*
X0087452Y0047432D01*
X0087452Y0046433D02*
X0086681Y0046433D01*
X0086681Y0045434D02*
X0087452Y0045434D01*
X0087452Y0044436D02*
X0086681Y0044436D01*
X0086681Y0043437D02*
X0087452Y0043437D01*
X0087452Y0042439D02*
X0086681Y0042439D01*
X0086681Y0041440D02*
X0087452Y0041440D01*
X0087452Y0040442D02*
X0086681Y0040442D01*
X0086681Y0039443D02*
X0087452Y0039443D01*
X0087452Y0038445D02*
X0086681Y0038445D01*
X0086681Y0038614D02*
X0086681Y0033800D01*
X0086657Y0033800D01*
X0085849Y0033928D01*
X0085071Y0034181D01*
X0084341Y0034553D01*
X0083679Y0035034D01*
X0083100Y0035612D01*
X0082619Y0036275D01*
X0082248Y0037004D01*
X0081995Y0037782D01*
X0081867Y0038591D01*
X0081867Y0038614D01*
X0086681Y0038614D01*
X0086681Y0037446D02*
X0087452Y0037446D01*
X0087452Y0036448D02*
X0086681Y0036448D01*
X0086681Y0035449D02*
X0087452Y0035449D01*
X0087452Y0034451D02*
X0086681Y0034451D01*
X0084541Y0034451D02*
X0080194Y0034451D01*
X0082166Y0033452D02*
X0090488Y0033452D01*
X0090488Y0032454D02*
X0083895Y0032454D01*
X0084854Y0031900D02*
X0084854Y0031900D01*
X0085267Y0031455D02*
X0090488Y0031455D01*
X0090488Y0030457D02*
X0086194Y0030457D01*
X0087120Y0029458D02*
X0090488Y0029458D01*
X0090488Y0028460D02*
X0088046Y0028460D01*
X0088200Y0028295D02*
X0088200Y0028295D01*
X0088601Y0027461D02*
X0090488Y0027461D01*
X0090488Y0026463D02*
X0089082Y0026463D01*
X0089563Y0025464D02*
X0090488Y0025464D01*
X0090488Y0024466D02*
X0090044Y0024466D01*
X0090393Y0023467D02*
X0090488Y0023467D01*
X0090488Y0034451D02*
X0089592Y0034451D01*
X0084328Y0043437D02*
X0058635Y0043437D01*
X0058330Y0044436D02*
X0084570Y0044436D01*
X0083278Y0045434D02*
X0060148Y0045434D01*
X0061091Y0046433D02*
X0082538Y0046433D01*
X0082109Y0047432D02*
X0061504Y0047432D01*
X0061767Y0048430D02*
X0081892Y0048430D01*
X0081870Y0049429D02*
X0061767Y0049429D01*
X0061563Y0050427D02*
X0082063Y0050427D01*
X0082466Y0051426D02*
X0061149Y0051426D01*
X0060289Y0052424D02*
X0083137Y0052424D01*
X0083293Y0055420D02*
X0060133Y0055420D01*
X0061084Y0056418D02*
X0082546Y0056418D01*
X0082114Y0057417D02*
X0061498Y0057417D01*
X0061767Y0058415D02*
X0081894Y0058415D01*
X0081867Y0059414D02*
X0061767Y0059414D01*
X0061569Y0060412D02*
X0082058Y0060412D01*
X0082459Y0061411D02*
X0061155Y0061411D01*
X0060304Y0062409D02*
X0083122Y0062409D01*
X0084287Y0063408D02*
X0058707Y0063408D01*
X0058258Y0064406D02*
X0084628Y0064406D01*
X0083308Y0065405D02*
X0060118Y0065405D01*
X0061078Y0066403D02*
X0082554Y0066403D01*
X0082118Y0067402D02*
X0061492Y0067402D01*
X0061767Y0068400D02*
X0081897Y0068400D01*
X0081867Y0069399D02*
X0061767Y0069399D01*
X0061575Y0070397D02*
X0082053Y0070397D01*
X0082451Y0071396D02*
X0061162Y0071396D01*
X0060319Y0072394D02*
X0083107Y0072394D01*
X0084266Y0073393D02*
X0058743Y0073393D01*
X0058222Y0074391D02*
X0084658Y0074391D01*
X0083323Y0075390D02*
X0060103Y0075390D01*
X0061072Y0076388D02*
X0082561Y0076388D01*
X0082123Y0077387D02*
X0061486Y0077387D01*
X0061767Y0078385D02*
X0081899Y0078385D01*
X0084599Y0054421D02*
X0058294Y0054421D01*
X0058671Y0053423D02*
X0084307Y0053423D01*
X0083152Y0042439D02*
X0060274Y0042439D01*
X0061143Y0041440D02*
X0082474Y0041440D01*
X0082068Y0040442D02*
X0061557Y0040442D01*
X0061767Y0039443D02*
X0081872Y0039443D01*
X0081890Y0038445D02*
X0061767Y0038445D01*
X0061510Y0037446D02*
X0082104Y0037446D01*
X0082531Y0036448D02*
X0061097Y0036448D01*
X0060163Y0035449D02*
X0075740Y0035449D01*
X0075819Y0035449D02*
X0083263Y0035449D01*
X0070895Y0035086D02*
X0070895Y0035086D01*
X0069276Y0034451D02*
X0058567Y0034451D01*
X0058567Y0033452D02*
X0066732Y0033452D01*
X0066317Y0033289D02*
X0066317Y0033289D01*
X0065269Y0032454D02*
X0058567Y0032454D01*
X0058567Y0031455D02*
X0064017Y0031455D01*
X0062765Y0030457D02*
X0058567Y0030457D01*
X0058567Y0029458D02*
X0061950Y0029458D01*
X0061269Y0028460D02*
X0058567Y0028460D01*
X0058567Y0027461D02*
X0060589Y0027461D01*
X0059908Y0026463D02*
X0058567Y0026463D01*
X0058567Y0025464D02*
X0059486Y0025464D01*
X0059701Y0026159D02*
X0059701Y0026159D01*
X0059178Y0024466D02*
X0058567Y0024466D01*
X0058567Y0023467D02*
X0058870Y0023467D01*
X0055567Y0023467D02*
X0053567Y0023467D01*
X0053567Y0024466D02*
X0055567Y0024466D01*
X0055567Y0025464D02*
X0053567Y0025464D01*
X0053567Y0026463D02*
X0055567Y0026463D01*
X0055567Y0027461D02*
X0053567Y0027461D01*
X0053567Y0028460D02*
X0055567Y0028460D01*
X0055567Y0029458D02*
X0053567Y0029458D01*
X0053567Y0030457D02*
X0055567Y0030457D01*
X0055567Y0031455D02*
X0053567Y0031455D01*
X0053567Y0032454D02*
X0055567Y0032454D01*
X0055567Y0033452D02*
X0053567Y0033452D01*
X0053567Y0034451D02*
X0055567Y0034451D01*
X0053970Y0035449D02*
X0053567Y0035449D01*
X0050567Y0034451D02*
X0049639Y0034451D01*
X0050567Y0033452D02*
X0048640Y0033452D01*
X0047067Y0034000D02*
X0049567Y0036500D01*
X0049567Y0051500D01*
X0057067Y0059000D01*
X0055839Y0054421D02*
X0054609Y0054421D01*
X0055462Y0053423D02*
X0053611Y0053423D01*
X0053844Y0052424D02*
X0052612Y0052424D01*
X0052984Y0051426D02*
X0051614Y0051426D01*
X0051067Y0050427D02*
X0052571Y0050427D01*
X0052367Y0049429D02*
X0051067Y0049429D01*
X0051067Y0048430D02*
X0052367Y0048430D01*
X0052629Y0047432D02*
X0051067Y0047432D01*
X0051067Y0046433D02*
X0052378Y0046433D01*
X0051445Y0045500D02*
X0051445Y0045500D01*
X0051380Y0045434D02*
X0051067Y0045434D01*
X0052067Y0044000D02*
X0057067Y0049000D01*
X0055803Y0044436D02*
X0054624Y0044436D01*
X0055498Y0043437D02*
X0053625Y0043437D01*
X0053567Y0042439D02*
X0053859Y0042439D01*
X0052067Y0044000D02*
X0052067Y0024000D01*
X0049567Y0021500D01*
X0027067Y0021500D01*
X0022067Y0026500D01*
X0019517Y0022469D02*
X0014616Y0022469D01*
X0014729Y0022516D02*
X0016051Y0023838D01*
X0016767Y0025565D01*
X0016767Y0027435D01*
X0016051Y0029162D01*
X0014729Y0030484D01*
X0013002Y0031200D01*
X0011132Y0031200D01*
X0009404Y0030484D01*
X0008082Y0029162D01*
X0007367Y0027435D01*
X0007367Y0025565D01*
X0008082Y0023838D01*
X0009404Y0022516D01*
X0011132Y0021800D01*
X0013002Y0021800D01*
X0014729Y0022516D01*
X0015681Y0023467D02*
X0018453Y0023467D01*
X0017822Y0024466D02*
X0016311Y0024466D01*
X0016725Y0025464D02*
X0017408Y0025464D01*
X0017367Y0026463D02*
X0016767Y0026463D01*
X0016756Y0027461D02*
X0017378Y0027461D01*
X0017791Y0028460D02*
X0016342Y0028460D01*
X0015755Y0029458D02*
X0018378Y0029458D01*
X0019377Y0030457D02*
X0014757Y0030457D01*
X0013002Y0034300D02*
X0014729Y0035016D01*
X0016051Y0036338D01*
X0016767Y0038065D01*
X0016767Y0039935D01*
X0016051Y0041662D01*
X0014729Y0042984D01*
X0013002Y0043700D01*
X0011132Y0043700D01*
X0009404Y0042984D01*
X0008082Y0041662D01*
X0007367Y0039935D01*
X0007367Y0038065D01*
X0008082Y0036338D01*
X0009404Y0035016D01*
X0011132Y0034300D01*
X0013002Y0034300D01*
X0013366Y0034451D02*
X0020768Y0034451D01*
X0018970Y0035449D02*
X0015163Y0035449D01*
X0016097Y0036448D02*
X0018037Y0036448D01*
X0017623Y0037446D02*
X0016510Y0037446D01*
X0016767Y0038445D02*
X0017367Y0038445D01*
X0017367Y0039443D02*
X0016767Y0039443D01*
X0016557Y0040442D02*
X0017577Y0040442D01*
X0017990Y0041440D02*
X0016143Y0041440D01*
X0015274Y0042439D02*
X0018859Y0042439D01*
X0020498Y0043437D02*
X0013635Y0043437D01*
X0013002Y0046800D02*
X0014729Y0047516D01*
X0016051Y0048838D01*
X0016767Y0050565D01*
X0016767Y0052435D01*
X0016051Y0054162D01*
X0014729Y0055484D01*
X0013002Y0056200D01*
X0011132Y0056200D01*
X0009404Y0055484D01*
X0008082Y0054162D01*
X0007367Y0052435D01*
X0007367Y0050565D01*
X0008082Y0048838D01*
X0009404Y0047516D01*
X0011132Y0046800D01*
X0013002Y0046800D01*
X0014526Y0047432D02*
X0019607Y0047432D01*
X0018490Y0048430D02*
X0015643Y0048430D01*
X0016296Y0049429D02*
X0017837Y0049429D01*
X0017424Y0050427D02*
X0016709Y0050427D01*
X0016767Y0051426D02*
X0017367Y0051426D01*
X0017367Y0052424D02*
X0016767Y0052424D01*
X0016358Y0053423D02*
X0017776Y0053423D01*
X0018341Y0054421D02*
X0015792Y0054421D01*
X0014794Y0055420D02*
X0019339Y0055420D01*
X0020857Y0059414D02*
X0013276Y0059414D01*
X0013002Y0059300D02*
X0014729Y0060016D01*
X0016051Y0061338D01*
X0016767Y0063065D01*
X0016767Y0064935D01*
X0016051Y0066662D01*
X0014729Y0067984D01*
X0013002Y0068700D01*
X0011132Y0068700D01*
X0009404Y0067984D01*
X0008082Y0066662D01*
X0007367Y0064935D01*
X0007367Y0063065D01*
X0008082Y0061338D01*
X0009404Y0060016D01*
X0011132Y0059300D01*
X0013002Y0059300D01*
X0010857Y0059414D02*
X0003567Y0059414D01*
X0003567Y0060412D02*
X0009008Y0060412D01*
X0008052Y0061411D02*
X0003567Y0061411D01*
X0003567Y0062409D02*
X0007638Y0062409D01*
X0007367Y0063408D02*
X0003567Y0063408D01*
X0003567Y0064406D02*
X0007367Y0064406D01*
X0007561Y0065405D02*
X0003567Y0065405D01*
X0003567Y0066403D02*
X0007975Y0066403D01*
X0008822Y0067402D02*
X0003567Y0067402D01*
X0003567Y0068400D02*
X0010408Y0068400D01*
X0011132Y0071800D02*
X0009404Y0072516D01*
X0008082Y0073838D01*
X0007367Y0075565D01*
X0007367Y0077435D01*
X0008082Y0079162D01*
X0009404Y0080484D01*
X0011132Y0081200D01*
X0013002Y0081200D01*
X0014729Y0080484D01*
X0016051Y0079162D01*
X0016767Y0077435D01*
X0016767Y0075565D01*
X0016051Y0073838D01*
X0014729Y0072516D01*
X0013002Y0071800D01*
X0011132Y0071800D01*
X0009697Y0072394D02*
X0003567Y0072394D01*
X0003567Y0071396D02*
X0025050Y0071396D01*
X0026048Y0070397D02*
X0003567Y0070397D01*
X0003567Y0069399D02*
X0045344Y0069399D01*
X0046343Y0070397D02*
X0040585Y0070397D01*
X0041584Y0071396D02*
X0047341Y0071396D01*
X0048340Y0072394D02*
X0042582Y0072394D01*
X0043581Y0073393D02*
X0049338Y0073393D01*
X0050337Y0074391D02*
X0044579Y0074391D01*
X0045578Y0075390D02*
X0051335Y0075390D01*
X0052334Y0076388D02*
X0046576Y0076388D01*
X0047575Y0077387D02*
X0052648Y0077387D01*
X0052367Y0078385D02*
X0048573Y0078385D01*
X0049572Y0079384D02*
X0052367Y0079384D01*
X0052552Y0080382D02*
X0050570Y0080382D01*
X0051569Y0081381D02*
X0052966Y0081381D01*
X0052567Y0082379D02*
X0053799Y0082379D01*
X0053566Y0083378D02*
X0055354Y0083378D01*
X0055947Y0084376D02*
X0054564Y0084376D01*
X0052654Y0087372D02*
X0047560Y0087372D01*
X0048558Y0088370D02*
X0052367Y0088370D01*
X0052367Y0089369D02*
X0049557Y0089369D01*
X0050555Y0090368D02*
X0052546Y0090368D01*
X0052959Y0091366D02*
X0051554Y0091366D01*
X0052553Y0092365D02*
X0053784Y0092365D01*
X0053551Y0093363D02*
X0055318Y0093363D01*
X0055983Y0094362D02*
X0054550Y0094362D01*
X0052660Y0097357D02*
X0040045Y0097357D01*
X0039047Y0096359D02*
X0044449Y0096359D01*
X0044286Y0095360D02*
X0038048Y0095360D01*
X0037067Y0096500D02*
X0039567Y0099000D01*
X0047067Y0099000D01*
X0057067Y0109000D01*
X0055246Y0113333D02*
X0003567Y0113333D01*
X0003567Y0112335D02*
X0053755Y0112335D01*
X0052947Y0111336D02*
X0003567Y0111336D01*
X0003567Y0110338D02*
X0052534Y0110338D01*
X0052367Y0109339D02*
X0003567Y0109339D01*
X0003567Y0108341D02*
X0052367Y0108341D01*
X0052666Y0107342D02*
X0003567Y0107342D01*
X0003567Y0106344D02*
X0030146Y0106344D01*
X0031567Y0106344D02*
X0032567Y0106344D01*
X0032567Y0105345D02*
X0031567Y0105345D01*
X0031567Y0104347D02*
X0032567Y0104347D01*
X0032567Y0103348D02*
X0031567Y0103348D01*
X0031567Y0102350D02*
X0032567Y0102350D01*
X0032567Y0101351D02*
X0047296Y0101351D01*
X0048295Y0102350D02*
X0037197Y0102350D01*
X0036934Y0103348D02*
X0049294Y0103348D01*
X0050292Y0104347D02*
X0036426Y0104347D01*
X0035575Y0105345D02*
X0051291Y0105345D01*
X0052289Y0106344D02*
X0033987Y0106344D01*
X0031567Y0101351D02*
X0026767Y0101351D01*
X0026767Y0102350D02*
X0026936Y0102350D01*
X0027200Y0103348D02*
X0026388Y0103348D01*
X0025867Y0104347D02*
X0027707Y0104347D01*
X0028558Y0105345D02*
X0024868Y0105345D01*
X0022067Y0101500D02*
X0027067Y0096500D01*
X0037067Y0096500D01*
X0036801Y0098356D02*
X0036210Y0098356D01*
X0036809Y0099354D02*
X0037799Y0099354D01*
X0037150Y0100353D02*
X0038798Y0100353D01*
X0034908Y0093363D02*
X0044286Y0093363D01*
X0044286Y0092365D02*
X0036050Y0092365D01*
X0036697Y0091366D02*
X0044724Y0091366D01*
X0045314Y0089369D02*
X0032567Y0089369D01*
X0032567Y0090368D02*
X0031567Y0090368D01*
X0031567Y0091366D02*
X0032567Y0091366D01*
X0032567Y0092365D02*
X0031567Y0092365D01*
X0031567Y0093363D02*
X0032567Y0093363D01*
X0031567Y0089369D02*
X0026767Y0089369D01*
X0026767Y0088370D02*
X0026902Y0088370D01*
X0027128Y0087372D02*
X0026480Y0087372D01*
X0026815Y0086373D02*
X0027569Y0086373D01*
X0027067Y0084000D02*
X0042067Y0084000D01*
X0057067Y0099000D01*
X0052067Y0094000D01*
X0047067Y0094000D01*
X0046313Y0090368D02*
X0037090Y0090368D01*
X0037232Y0088370D02*
X0044316Y0088370D01*
X0043317Y0087372D02*
X0037005Y0087372D01*
X0036564Y0086373D02*
X0042319Y0086373D01*
X0043566Y0083378D02*
X0049323Y0083378D01*
X0048325Y0082379D02*
X0003567Y0082379D01*
X0003567Y0081381D02*
X0030261Y0081381D01*
X0031567Y0081381D02*
X0032567Y0081381D01*
X0032567Y0080382D02*
X0031567Y0080382D01*
X0031567Y0079384D02*
X0032567Y0079384D01*
X0032567Y0078385D02*
X0031567Y0078385D01*
X0031567Y0077387D02*
X0032567Y0077387D01*
X0032567Y0076388D02*
X0042334Y0076388D01*
X0041335Y0075390D02*
X0037156Y0075390D01*
X0036828Y0074391D02*
X0040337Y0074391D01*
X0039338Y0073393D02*
X0036237Y0073393D01*
X0037191Y0077387D02*
X0043332Y0077387D01*
X0044331Y0078385D02*
X0036922Y0078385D01*
X0036399Y0079384D02*
X0045329Y0079384D01*
X0046328Y0080382D02*
X0035538Y0080382D01*
X0033872Y0081381D02*
X0047326Y0081381D01*
X0045563Y0085375D02*
X0051320Y0085375D01*
X0050322Y0084376D02*
X0044564Y0084376D01*
X0046561Y0086373D02*
X0052319Y0086373D01*
X0057067Y0089000D02*
X0039567Y0071500D01*
X0027067Y0071500D01*
X0022067Y0076500D01*
X0019697Y0072394D02*
X0014436Y0072394D01*
X0015606Y0073393D02*
X0018527Y0073393D01*
X0017853Y0074391D02*
X0016280Y0074391D01*
X0016694Y0075390D02*
X0017439Y0075390D01*
X0017367Y0076388D02*
X0016767Y0076388D01*
X0016767Y0077387D02*
X0017367Y0077387D01*
X0017760Y0078385D02*
X0016373Y0078385D01*
X0015830Y0079384D02*
X0018304Y0079384D01*
X0019302Y0080382D02*
X0014831Y0080382D01*
X0013186Y0084376D02*
X0020947Y0084376D01*
X0019045Y0085375D02*
X0015088Y0085375D01*
X0014729Y0085016D02*
X0016051Y0086338D01*
X0016767Y0088065D01*
X0016767Y0089935D01*
X0016051Y0091662D01*
X0014729Y0092984D01*
X0013002Y0093700D01*
X0011132Y0093700D01*
X0009404Y0092984D01*
X0008082Y0091662D01*
X0007367Y0089935D01*
X0007367Y0088065D01*
X0008082Y0086338D01*
X0009404Y0085016D01*
X0011132Y0084300D01*
X0013002Y0084300D01*
X0014729Y0085016D01*
X0016066Y0086373D02*
X0018067Y0086373D01*
X0017654Y0087372D02*
X0016480Y0087372D01*
X0016767Y0088370D02*
X0017367Y0088370D01*
X0017367Y0089369D02*
X0016767Y0089369D01*
X0016587Y0090368D02*
X0017546Y0090368D01*
X0017959Y0091366D02*
X0016174Y0091366D01*
X0015349Y0092365D02*
X0018784Y0092365D01*
X0020318Y0093363D02*
X0013815Y0093363D01*
X0013002Y0096800D02*
X0014729Y0097516D01*
X0016051Y0098838D01*
X0016767Y0100565D01*
X0016767Y0102435D01*
X0016051Y0104162D01*
X0014729Y0105484D01*
X0013002Y0106200D01*
X0011132Y0106200D01*
X0009404Y0105484D01*
X0008082Y0104162D01*
X0007367Y0102435D01*
X0007367Y0100565D01*
X0008082Y0098838D01*
X0009404Y0097516D01*
X0011132Y0096800D01*
X0013002Y0096800D01*
X0014346Y0097357D02*
X0019787Y0097357D01*
X0018564Y0098356D02*
X0015569Y0098356D01*
X0016265Y0099354D02*
X0017868Y0099354D01*
X0017455Y0100353D02*
X0016679Y0100353D01*
X0016767Y0101351D02*
X0017367Y0101351D01*
X0017367Y0102350D02*
X0016767Y0102350D01*
X0016388Y0103348D02*
X0017745Y0103348D01*
X0018267Y0104347D02*
X0015867Y0104347D01*
X0014868Y0105345D02*
X0019265Y0105345D01*
X0021211Y0114700D02*
X0022922Y0114700D01*
X0024502Y0115355D01*
X0025712Y0116564D01*
X0026367Y0118145D01*
X0026367Y0119855D01*
X0025712Y0121436D01*
X0024502Y0122645D01*
X0022922Y0123300D01*
X0021211Y0123300D01*
X0019631Y0122645D01*
X0018421Y0121436D01*
X0017767Y0119855D01*
X0017767Y0118145D01*
X0018421Y0116564D01*
X0019631Y0115355D01*
X0021211Y0114700D01*
X0019690Y0115330D02*
X0016367Y0115330D01*
X0016367Y0116329D02*
X0018657Y0116329D01*
X0018105Y0117327D02*
X0016367Y0117327D01*
X0016367Y0118326D02*
X0017767Y0118326D01*
X0017767Y0119324D02*
X0016367Y0119324D01*
X0016367Y0120323D02*
X0017960Y0120323D01*
X0018374Y0121321D02*
X0016367Y0121321D01*
X0016367Y0122320D02*
X0019305Y0122320D01*
X0022067Y0131500D02*
X0022067Y0149000D01*
X0019797Y0145286D02*
X0014336Y0145286D01*
X0015432Y0146284D02*
X0018701Y0146284D01*
X0018124Y0147283D02*
X0016010Y0147283D01*
X0016367Y0148281D02*
X0017767Y0148281D01*
X0017767Y0149280D02*
X0016367Y0149280D01*
X0016191Y0150278D02*
X0017942Y0150278D01*
X0018355Y0151277D02*
X0015778Y0151277D01*
X0014873Y0152275D02*
X0019261Y0152275D01*
X0019149Y0155271D02*
X0016767Y0155271D01*
X0016767Y0156269D02*
X0018151Y0156269D01*
X0017697Y0157268D02*
X0016767Y0157268D01*
X0016767Y0158266D02*
X0017367Y0158266D01*
X0017367Y0159265D02*
X0016767Y0159265D01*
X0016767Y0160263D02*
X0017503Y0160263D01*
X0017916Y0161262D02*
X0016767Y0161262D01*
X0016767Y0162260D02*
X0018680Y0162260D01*
X0022067Y0159000D02*
X0024567Y0159000D01*
X0029848Y0143289D02*
X0069286Y0143289D01*
X0069797Y0145286D02*
X0064336Y0145286D01*
X0065432Y0146284D02*
X0068701Y0146284D01*
X0068124Y0147283D02*
X0066010Y0147283D01*
X0066367Y0148281D02*
X0067767Y0148281D01*
X0067767Y0149280D02*
X0066367Y0149280D01*
X0066191Y0150278D02*
X0067942Y0150278D01*
X0068355Y0151277D02*
X0065778Y0151277D01*
X0064873Y0152275D02*
X0069261Y0152275D01*
X0069149Y0155271D02*
X0064984Y0155271D01*
X0065983Y0156269D02*
X0068151Y0156269D01*
X0067697Y0157268D02*
X0066436Y0157268D01*
X0066767Y0158266D02*
X0067367Y0158266D01*
X0067367Y0159265D02*
X0066767Y0159265D01*
X0066631Y0160263D02*
X0067503Y0160263D01*
X0067916Y0161262D02*
X0066217Y0161262D01*
X0065453Y0162260D02*
X0068680Y0162260D01*
X0070067Y0163259D02*
X0064067Y0163259D01*
X0060067Y0163259D02*
X0054067Y0163259D01*
X0055453Y0162260D02*
X0058680Y0162260D01*
X0057916Y0161262D02*
X0056217Y0161262D01*
X0056631Y0160263D02*
X0057503Y0160263D01*
X0057367Y0159265D02*
X0056767Y0159265D01*
X0056767Y0158266D02*
X0057367Y0158266D01*
X0057697Y0157268D02*
X0056436Y0157268D01*
X0055983Y0156269D02*
X0058151Y0156269D01*
X0059149Y0155271D02*
X0054984Y0155271D01*
X0054873Y0152275D02*
X0059261Y0152275D01*
X0058355Y0151277D02*
X0055778Y0151277D01*
X0056191Y0150278D02*
X0057942Y0150278D01*
X0057767Y0149280D02*
X0056367Y0149280D01*
X0056367Y0148281D02*
X0057767Y0148281D01*
X0058124Y0147283D02*
X0056010Y0147283D01*
X0055432Y0146284D02*
X0058701Y0146284D01*
X0059797Y0145286D02*
X0054336Y0145286D01*
X0049797Y0145286D02*
X0044336Y0145286D01*
X0045432Y0146284D02*
X0048701Y0146284D01*
X0048124Y0147283D02*
X0046010Y0147283D01*
X0046367Y0148281D02*
X0047767Y0148281D01*
X0047767Y0149280D02*
X0046367Y0149280D01*
X0046191Y0150278D02*
X0047942Y0150278D01*
X0048355Y0151277D02*
X0045778Y0151277D01*
X0044873Y0152275D02*
X0049261Y0152275D01*
X0047503Y0160263D02*
X0047124Y0160263D01*
X0046750Y0161262D02*
X0047916Y0161262D01*
X0048680Y0162260D02*
X0046125Y0162260D01*
X0045052Y0163259D02*
X0050067Y0163259D01*
X0042567Y0163259D02*
X0041567Y0163259D01*
X0041567Y0162260D02*
X0042567Y0162260D01*
X0042567Y0161262D02*
X0041567Y0161262D01*
X0041567Y0158266D02*
X0042567Y0158266D01*
X0042567Y0157268D02*
X0041567Y0157268D01*
X0041567Y0156269D02*
X0042567Y0156269D01*
X0042567Y0155271D02*
X0041567Y0155271D01*
X0039891Y0154272D02*
X0003567Y0154272D01*
X0003567Y0155271D02*
X0007367Y0155271D01*
X0007367Y0156269D02*
X0003567Y0156269D01*
X0003567Y0157268D02*
X0007367Y0157268D01*
X0007367Y0158266D02*
X0003567Y0158266D01*
X0003567Y0159265D02*
X0007367Y0159265D01*
X0007367Y0160263D02*
X0003567Y0160263D01*
X0003567Y0161262D02*
X0007367Y0161262D01*
X0007367Y0162260D02*
X0003567Y0162260D01*
X0003567Y0163259D02*
X0007511Y0163259D01*
X0009381Y0166254D02*
X0003567Y0166254D01*
X0003567Y0165256D02*
X0010633Y0165256D01*
X0011317Y0164711D02*
X0011317Y0164711D01*
X0012471Y0164257D02*
X0003567Y0164257D01*
X0003567Y0167253D02*
X0008129Y0167253D01*
X0007148Y0168251D02*
X0003567Y0168251D01*
X0003567Y0169250D02*
X0006467Y0169250D01*
X0005786Y0170248D02*
X0003567Y0170248D01*
X0003567Y0171247D02*
X0005106Y0171247D01*
X0004701Y0171841D02*
X0004701Y0171841D01*
X0004576Y0172245D02*
X0003567Y0172245D01*
X0003567Y0173244D02*
X0004268Y0173244D01*
X0003960Y0174242D02*
X0003567Y0174242D01*
X0003567Y0175241D02*
X0003652Y0175241D01*
X0023567Y0142290D02*
X0024286Y0142290D01*
X0024286Y0141292D02*
X0023567Y0141292D01*
X0023567Y0140293D02*
X0024286Y0140293D01*
X0024296Y0139295D02*
X0023567Y0139295D01*
X0029838Y0139295D02*
X0069296Y0139295D01*
X0074336Y0145286D02*
X0079797Y0145286D01*
X0078701Y0146284D02*
X0075432Y0146284D01*
X0076010Y0147283D02*
X0078124Y0147283D01*
X0077767Y0148281D02*
X0076367Y0148281D01*
X0076367Y0149280D02*
X0077767Y0149280D01*
X0077942Y0150278D02*
X0076191Y0150278D01*
X0075778Y0151277D02*
X0078355Y0151277D01*
X0079261Y0152275D02*
X0074873Y0152275D01*
X0074984Y0155271D02*
X0079149Y0155271D01*
X0078151Y0156269D02*
X0075983Y0156269D01*
X0076436Y0157268D02*
X0077697Y0157268D01*
X0077367Y0158266D02*
X0076767Y0158266D01*
X0076767Y0159265D02*
X0077367Y0159265D01*
X0077503Y0160263D02*
X0076631Y0160263D01*
X0076217Y0161262D02*
X0077916Y0161262D01*
X0078680Y0162260D02*
X0075453Y0162260D01*
X0074067Y0163259D02*
X0080067Y0163259D01*
X0059305Y0122320D02*
X0054828Y0122320D01*
X0054502Y0122645D02*
X0052922Y0123300D01*
X0051211Y0123300D01*
X0049631Y0122645D01*
X0048421Y0121436D01*
X0047767Y0119855D01*
X0047767Y0118145D01*
X0048421Y0116564D01*
X0049631Y0115355D01*
X0051211Y0114700D01*
X0052922Y0114700D01*
X0054502Y0115355D01*
X0055712Y0116564D01*
X0056367Y0118145D01*
X0056367Y0119855D01*
X0055712Y0121436D01*
X0054502Y0122645D01*
X0055759Y0121321D02*
X0058374Y0121321D01*
X0057960Y0120323D02*
X0056173Y0120323D01*
X0056367Y0119324D02*
X0057767Y0119324D01*
X0057767Y0118326D02*
X0056367Y0118326D01*
X0056028Y0117327D02*
X0058105Y0117327D01*
X0058657Y0116329D02*
X0055477Y0116329D01*
X0054444Y0115330D02*
X0059690Y0115330D01*
X0056019Y0104347D02*
X0054535Y0104347D01*
X0055282Y0103348D02*
X0053536Y0103348D01*
X0053770Y0102350D02*
X0052538Y0102350D01*
X0052953Y0101351D02*
X0051539Y0101351D01*
X0050541Y0100353D02*
X0052540Y0100353D01*
X0052367Y0099354D02*
X0049542Y0099354D01*
X0048544Y0098356D02*
X0052367Y0098356D01*
X0052304Y0096359D02*
X0049684Y0096359D01*
X0044286Y0094362D02*
X0003567Y0094362D01*
X0003567Y0095360D02*
X0026085Y0095360D01*
X0025087Y0096359D02*
X0003567Y0096359D01*
X0003567Y0097357D02*
X0009787Y0097357D01*
X0008564Y0098356D02*
X0003567Y0098356D01*
X0003567Y0099354D02*
X0007868Y0099354D01*
X0007455Y0100353D02*
X0003567Y0100353D01*
X0003567Y0101351D02*
X0007367Y0101351D01*
X0007367Y0102350D02*
X0003567Y0102350D01*
X0003567Y0103348D02*
X0007745Y0103348D01*
X0008267Y0104347D02*
X0003567Y0104347D01*
X0003567Y0105345D02*
X0009265Y0105345D01*
X0010318Y0093363D02*
X0003567Y0093363D01*
X0003567Y0092365D02*
X0008784Y0092365D01*
X0007959Y0091366D02*
X0003567Y0091366D01*
X0003567Y0090368D02*
X0007546Y0090368D01*
X0007367Y0089369D02*
X0003567Y0089369D01*
X0003567Y0088370D02*
X0007367Y0088370D01*
X0007654Y0087372D02*
X0003567Y0087372D01*
X0003567Y0086373D02*
X0008067Y0086373D01*
X0009045Y0085375D02*
X0003567Y0085375D01*
X0003567Y0084376D02*
X0010947Y0084376D01*
X0009302Y0080382D02*
X0003567Y0080382D01*
X0003567Y0079384D02*
X0008304Y0079384D01*
X0007760Y0078385D02*
X0003567Y0078385D01*
X0003567Y0077387D02*
X0007367Y0077387D01*
X0007367Y0076388D02*
X0003567Y0076388D01*
X0003567Y0075390D02*
X0007439Y0075390D01*
X0007853Y0074391D02*
X0003567Y0074391D01*
X0003567Y0073393D02*
X0008527Y0073393D01*
X0013725Y0068400D02*
X0020408Y0068400D01*
X0018822Y0067402D02*
X0015312Y0067402D01*
X0016158Y0066403D02*
X0017975Y0066403D01*
X0017561Y0065405D02*
X0016572Y0065405D01*
X0016767Y0064406D02*
X0017367Y0064406D01*
X0017367Y0063408D02*
X0016767Y0063408D01*
X0016495Y0062409D02*
X0017638Y0062409D01*
X0018052Y0061411D02*
X0016081Y0061411D01*
X0015126Y0060412D02*
X0019008Y0060412D01*
X0022067Y0064000D02*
X0027067Y0059000D01*
X0037067Y0059000D01*
X0057067Y0079000D01*
X0055911Y0074391D02*
X0054579Y0074391D01*
X0055390Y0073393D02*
X0053581Y0073393D01*
X0053814Y0072394D02*
X0052582Y0072394D01*
X0052972Y0071396D02*
X0051584Y0071396D01*
X0052558Y0070397D02*
X0050585Y0070397D01*
X0049587Y0069399D02*
X0052367Y0069399D01*
X0052367Y0068400D02*
X0048588Y0068400D01*
X0047590Y0067402D02*
X0052641Y0067402D01*
X0052349Y0066403D02*
X0046591Y0066403D01*
X0045593Y0065405D02*
X0051350Y0065405D01*
X0050352Y0064406D02*
X0044594Y0064406D01*
X0043596Y0063408D02*
X0049353Y0063408D01*
X0048355Y0062409D02*
X0042597Y0062409D01*
X0041599Y0061411D02*
X0047356Y0061411D01*
X0046358Y0060412D02*
X0040600Y0060412D01*
X0039602Y0059414D02*
X0045567Y0059414D01*
X0045567Y0058415D02*
X0038603Y0058415D01*
X0037356Y0061411D02*
X0036583Y0061411D01*
X0037017Y0062409D02*
X0038355Y0062409D01*
X0039353Y0063408D02*
X0037238Y0063408D01*
X0037078Y0065405D02*
X0041350Y0065405D01*
X0042349Y0066403D02*
X0036678Y0066403D01*
X0036019Y0067402D02*
X0043347Y0067402D01*
X0044346Y0068400D02*
X0034857Y0068400D01*
X0032567Y0068400D02*
X0031567Y0068400D01*
X0031567Y0067402D02*
X0032567Y0067402D01*
X0032567Y0066403D02*
X0031567Y0066403D01*
X0031567Y0065405D02*
X0032567Y0065405D01*
X0032567Y0064406D02*
X0040352Y0064406D01*
X0045567Y0057417D02*
X0003567Y0057417D01*
X0003567Y0058415D02*
X0025530Y0058415D01*
X0024532Y0059414D02*
X0023276Y0059414D01*
X0024794Y0055420D02*
X0028632Y0055420D01*
X0027761Y0054421D02*
X0025792Y0054421D01*
X0026358Y0053423D02*
X0027224Y0053423D01*
X0026948Y0052424D02*
X0026767Y0052424D01*
X0026767Y0051426D02*
X0031567Y0051426D01*
X0031567Y0052424D02*
X0032567Y0052424D01*
X0032567Y0051426D02*
X0045567Y0051426D01*
X0045567Y0052424D02*
X0037185Y0052424D01*
X0036910Y0053423D02*
X0045567Y0053423D01*
X0045567Y0054421D02*
X0036372Y0054421D01*
X0035501Y0055420D02*
X0045567Y0055420D01*
X0045567Y0056418D02*
X0033758Y0056418D01*
X0032567Y0056418D02*
X0031567Y0056418D01*
X0031567Y0055420D02*
X0032567Y0055420D01*
X0032567Y0054421D02*
X0031567Y0054421D01*
X0031567Y0053423D02*
X0032567Y0053423D01*
X0030376Y0056418D02*
X0003567Y0056418D01*
X0003567Y0055420D02*
X0009339Y0055420D01*
X0008341Y0054421D02*
X0003567Y0054421D01*
X0003567Y0053423D02*
X0007776Y0053423D01*
X0007367Y0052424D02*
X0003567Y0052424D01*
X0003567Y0051426D02*
X0007367Y0051426D01*
X0007424Y0050427D02*
X0003567Y0050427D01*
X0003567Y0049429D02*
X0007837Y0049429D01*
X0008490Y0048430D02*
X0003567Y0048430D01*
X0003567Y0047432D02*
X0009607Y0047432D01*
X0010498Y0043437D02*
X0003567Y0043437D01*
X0003567Y0042439D02*
X0008859Y0042439D01*
X0007990Y0041440D02*
X0003567Y0041440D01*
X0003567Y0040442D02*
X0007577Y0040442D01*
X0007367Y0039443D02*
X0003567Y0039443D01*
X0003567Y0038445D02*
X0007367Y0038445D01*
X0007623Y0037446D02*
X0003567Y0037446D01*
X0003567Y0036448D02*
X0008037Y0036448D01*
X0008970Y0035449D02*
X0003567Y0035449D01*
X0003567Y0034451D02*
X0010768Y0034451D01*
X0009377Y0030457D02*
X0003567Y0030457D01*
X0003567Y0031455D02*
X0030490Y0031455D01*
X0031567Y0031455D02*
X0032567Y0031455D01*
X0032567Y0030457D02*
X0031567Y0030457D01*
X0031567Y0029458D02*
X0032567Y0029458D01*
X0032567Y0028460D02*
X0031567Y0028460D01*
X0031567Y0027461D02*
X0032567Y0027461D01*
X0032567Y0026463D02*
X0050567Y0026463D01*
X0050567Y0027461D02*
X0037179Y0027461D01*
X0036897Y0028460D02*
X0050567Y0028460D01*
X0050567Y0029458D02*
X0036345Y0029458D01*
X0035464Y0030457D02*
X0050567Y0030457D01*
X0050567Y0031455D02*
X0033643Y0031455D01*
X0031567Y0026463D02*
X0026767Y0026463D01*
X0026756Y0027461D02*
X0026954Y0027461D01*
X0027236Y0028460D02*
X0026342Y0028460D01*
X0025755Y0029458D02*
X0027788Y0029458D01*
X0028670Y0030457D02*
X0024757Y0030457D01*
X0025493Y0033452D02*
X0003567Y0033452D01*
X0003567Y0032454D02*
X0050567Y0032454D01*
X0048067Y0037446D02*
X0037029Y0037446D01*
X0037244Y0038445D02*
X0048067Y0038445D01*
X0048067Y0039443D02*
X0032567Y0039443D01*
X0032567Y0040442D02*
X0031567Y0040442D01*
X0031567Y0041440D02*
X0032567Y0041440D01*
X0032567Y0042439D02*
X0031567Y0042439D01*
X0031567Y0043437D02*
X0032567Y0043437D01*
X0031567Y0039443D02*
X0026767Y0039443D01*
X0026767Y0038445D02*
X0026890Y0038445D01*
X0027104Y0037446D02*
X0026510Y0037446D01*
X0026740Y0036448D02*
X0027531Y0036448D01*
X0027067Y0034000D02*
X0047067Y0034000D01*
X0047393Y0036448D02*
X0036602Y0036448D01*
X0037066Y0040442D02*
X0048067Y0040442D01*
X0048067Y0041440D02*
X0036659Y0041440D01*
X0035982Y0042439D02*
X0048067Y0042439D01*
X0048067Y0043437D02*
X0034806Y0043437D01*
X0036264Y0048430D02*
X0044375Y0048430D01*
X0045374Y0049429D02*
X0036847Y0049429D01*
X0037162Y0050427D02*
X0045567Y0050427D01*
X0047067Y0049000D02*
X0044567Y0046500D01*
X0027067Y0046500D01*
X0022067Y0051500D01*
X0025012Y0046433D02*
X0003567Y0046433D01*
X0003567Y0045434D02*
X0026011Y0045434D01*
X0025274Y0042439D02*
X0028152Y0042439D01*
X0027474Y0041440D02*
X0026143Y0041440D01*
X0026557Y0040442D02*
X0027068Y0040442D01*
X0029328Y0043437D02*
X0023635Y0043437D01*
X0022067Y0039000D02*
X0027067Y0034000D01*
X0024494Y0034451D02*
X0023366Y0034451D01*
X0026725Y0025464D02*
X0026966Y0025464D01*
X0027267Y0024466D02*
X0026311Y0024466D01*
X0027221Y0023467D02*
X0027843Y0023467D01*
X0025974Y0020472D02*
X0003567Y0020472D01*
X0003567Y0021470D02*
X0024975Y0021470D01*
X0023545Y0018475D02*
X0029395Y0018475D01*
X0029341Y0018447D02*
X0028679Y0017966D01*
X0028100Y0017388D01*
X0027619Y0016725D01*
X0027248Y0015996D01*
X0026995Y0015218D01*
X0026881Y0014500D01*
X0031567Y0014500D01*
X0031567Y0019186D01*
X0030849Y0019072D01*
X0030071Y0018819D01*
X0029341Y0018447D01*
X0028189Y0017476D02*
X0025237Y0017476D01*
X0026128Y0016478D02*
X0027493Y0016478D01*
X0027080Y0015479D02*
X0026541Y0015479D01*
X0026767Y0014481D02*
X0031567Y0014481D01*
X0031567Y0014500D02*
X0031567Y0013500D01*
X0032567Y0013500D01*
X0032567Y0014500D01*
X0037252Y0014500D01*
X0037139Y0015218D01*
X0036886Y0015996D01*
X0036514Y0016725D01*
X0036033Y0017388D01*
X0035454Y0017966D01*
X0034792Y0018447D01*
X0034063Y0018819D01*
X0033284Y0019072D01*
X0032567Y0019186D01*
X0032567Y0014500D01*
X0031567Y0014500D01*
X0031567Y0015479D02*
X0032567Y0015479D01*
X0032567Y0014481D02*
X0055567Y0014481D01*
X0055567Y0015479D02*
X0037054Y0015479D01*
X0036640Y0016478D02*
X0055567Y0016478D01*
X0055567Y0017476D02*
X0035944Y0017476D01*
X0034739Y0018475D02*
X0055567Y0018475D01*
X0055567Y0019473D02*
X0003567Y0019473D01*
X0003567Y0018475D02*
X0010588Y0018475D01*
X0011132Y0018700D02*
X0009404Y0017984D01*
X0008082Y0016662D01*
X0007367Y0014935D01*
X0007367Y0013065D01*
X0008082Y0011338D01*
X0009404Y0010016D01*
X0011132Y0009300D01*
X0013002Y0009300D01*
X0014729Y0010016D01*
X0016051Y0011338D01*
X0016767Y0013065D01*
X0016767Y0014935D01*
X0016051Y0016662D01*
X0014729Y0017984D01*
X0013002Y0018700D01*
X0011132Y0018700D01*
X0008896Y0017476D02*
X0003567Y0017476D01*
X0003567Y0016478D02*
X0008006Y0016478D01*
X0007592Y0015479D02*
X0003567Y0015479D01*
X0003567Y0014481D02*
X0007367Y0014481D01*
X0007367Y0013482D02*
X0003567Y0013482D01*
X0003567Y0012484D02*
X0007608Y0012484D01*
X0008021Y0011485D02*
X0003567Y0011485D01*
X0003567Y0010487D02*
X0008933Y0010487D01*
X0010678Y0009488D02*
X0003567Y0009488D01*
X0003567Y0008490D02*
X0022956Y0008490D01*
X0023954Y0007491D02*
X0003567Y0007491D01*
X0003567Y0006493D02*
X0024953Y0006493D01*
X0025951Y0005494D02*
X0003567Y0005494D01*
X0003567Y0004496D02*
X0066865Y0004496D01*
X0065334Y0005494D02*
X0053182Y0005494D01*
X0054181Y0006493D02*
X0064082Y0006493D01*
X0062830Y0007491D02*
X0055179Y0007491D01*
X0056178Y0008490D02*
X0061986Y0008490D01*
X0061305Y0009488D02*
X0057176Y0009488D01*
X0058175Y0010487D02*
X0060624Y0010487D01*
X0059943Y0011485D02*
X0058567Y0011485D01*
X0058567Y0012484D02*
X0059502Y0012484D01*
X0059701Y0011841D02*
X0059701Y0011841D01*
X0059194Y0013482D02*
X0058567Y0013482D01*
X0058567Y0014481D02*
X0058886Y0014481D01*
X0058578Y0015479D02*
X0058567Y0015479D01*
X0057067Y0011500D02*
X0057067Y0039000D01*
X0050567Y0025464D02*
X0037167Y0025464D01*
X0036866Y0024466D02*
X0050411Y0024466D01*
X0049413Y0023467D02*
X0036291Y0023467D01*
X0032567Y0018475D02*
X0031567Y0018475D01*
X0031567Y0017476D02*
X0032567Y0017476D01*
X0032567Y0016478D02*
X0031567Y0016478D01*
X0031567Y0013500D02*
X0026881Y0013500D01*
X0026995Y0012782D01*
X0027248Y0012004D01*
X0027619Y0011275D01*
X0028100Y0010612D01*
X0028679Y0010034D01*
X0029341Y0009553D01*
X0030071Y0009181D01*
X0030849Y0008928D01*
X0031567Y0008814D01*
X0031567Y0013500D01*
X0031567Y0013482D02*
X0032567Y0013482D01*
X0032567Y0013500D02*
X0032567Y0008814D01*
X0033284Y0008928D01*
X0034063Y0009181D01*
X0034792Y0009553D01*
X0035454Y0010034D01*
X0036033Y0010612D01*
X0036514Y0011275D01*
X0036886Y0012004D01*
X0037139Y0012782D01*
X0037252Y0013500D01*
X0032567Y0013500D01*
X0032567Y0012484D02*
X0031567Y0012484D01*
X0031567Y0011485D02*
X0032567Y0011485D01*
X0032567Y0010487D02*
X0031567Y0010487D01*
X0031567Y0009488D02*
X0032567Y0009488D01*
X0034666Y0009488D02*
X0052933Y0009488D01*
X0051935Y0008490D02*
X0027198Y0008490D01*
X0026200Y0009488D02*
X0029468Y0009488D01*
X0028226Y0010487D02*
X0025201Y0010487D01*
X0026112Y0011485D02*
X0027512Y0011485D01*
X0027092Y0012484D02*
X0026526Y0012484D01*
X0026767Y0013482D02*
X0026884Y0013482D01*
X0022067Y0011500D02*
X0027067Y0006500D01*
X0052067Y0006500D01*
X0057067Y0011500D01*
X0055567Y0012484D02*
X0037042Y0012484D01*
X0037249Y0013482D02*
X0055567Y0013482D01*
X0054930Y0011485D02*
X0036621Y0011485D01*
X0035907Y0010487D02*
X0053932Y0010487D01*
X0055567Y0020472D02*
X0050660Y0020472D01*
X0051658Y0021470D02*
X0055567Y0021470D01*
X0055567Y0022469D02*
X0052657Y0022469D01*
X0048067Y0044436D02*
X0003567Y0044436D01*
X0003567Y0029458D02*
X0008378Y0029458D01*
X0007791Y0028460D02*
X0003567Y0028460D01*
X0003567Y0027461D02*
X0007378Y0027461D01*
X0007367Y0026463D02*
X0003567Y0026463D01*
X0003567Y0025464D02*
X0007408Y0025464D01*
X0007822Y0024466D02*
X0003567Y0024466D01*
X0003567Y0023467D02*
X0008453Y0023467D01*
X0009517Y0022469D02*
X0003567Y0022469D01*
X0003567Y0003497D02*
X0069409Y0003497D01*
X0048067Y0045434D02*
X0045622Y0045434D01*
X0046621Y0046433D02*
X0048067Y0046433D01*
X0048067Y0047432D02*
X0047620Y0047432D01*
X0047067Y0049000D02*
X0047067Y0059000D01*
X0057067Y0069000D01*
X0055875Y0064406D02*
X0054594Y0064406D01*
X0055426Y0063408D02*
X0053596Y0063408D01*
X0053829Y0062409D02*
X0052597Y0062409D01*
X0052978Y0061411D02*
X0051599Y0061411D01*
X0052564Y0060412D02*
X0050600Y0060412D01*
X0049602Y0059414D02*
X0052367Y0059414D01*
X0052367Y0058415D02*
X0048603Y0058415D01*
X0048567Y0057417D02*
X0052635Y0057417D01*
X0052363Y0056418D02*
X0048567Y0056418D01*
X0048567Y0055420D02*
X0051365Y0055420D01*
X0050366Y0054421D02*
X0048567Y0054421D01*
X0048567Y0053423D02*
X0049368Y0053423D01*
X0031567Y0064406D02*
X0026767Y0064406D01*
X0026767Y0063408D02*
X0026896Y0063408D01*
X0027116Y0062409D02*
X0026495Y0062409D01*
X0026777Y0061411D02*
X0027550Y0061411D01*
X0027055Y0065405D02*
X0026572Y0065405D01*
X0026158Y0066403D02*
X0027455Y0066403D01*
X0028115Y0067402D02*
X0025312Y0067402D01*
X0023725Y0068400D02*
X0029276Y0068400D01*
X0027897Y0073393D02*
X0027295Y0073393D01*
X0027305Y0074391D02*
X0026297Y0074391D01*
X0026694Y0075390D02*
X0026978Y0075390D01*
X0026767Y0076388D02*
X0031567Y0076388D01*
X0028595Y0080382D02*
X0024831Y0080382D01*
X0025830Y0079384D02*
X0027734Y0079384D01*
X0027212Y0078385D02*
X0026373Y0078385D01*
X0026767Y0077387D02*
X0026942Y0077387D01*
X0025567Y0083378D02*
X0003567Y0083378D01*
X0022067Y0089000D02*
X0027067Y0084000D01*
X0024569Y0084376D02*
X0023186Y0084376D01*
X0026587Y0090368D02*
X0027043Y0090368D01*
X0027436Y0091366D02*
X0026174Y0091366D01*
X0025349Y0092365D02*
X0028084Y0092365D01*
X0029225Y0093363D02*
X0023815Y0093363D01*
X0026334Y0099354D02*
X0027324Y0099354D01*
X0027332Y0098356D02*
X0027924Y0098356D01*
X0026984Y0100353D02*
X0026679Y0100353D01*
X0031211Y0114700D02*
X0032922Y0114700D01*
X0034502Y0115355D01*
X0035712Y0116564D01*
X0036367Y0118145D01*
X0036367Y0119855D01*
X0035712Y0121436D01*
X0034502Y0122645D01*
X0032922Y0123300D01*
X0031211Y0123300D01*
X0029631Y0122645D01*
X0028421Y0121436D01*
X0027767Y0119855D01*
X0027767Y0118145D01*
X0028421Y0116564D01*
X0029631Y0115355D01*
X0031211Y0114700D01*
X0029690Y0115330D02*
X0024444Y0115330D01*
X0025477Y0116329D02*
X0028657Y0116329D01*
X0028105Y0117327D02*
X0026028Y0117327D01*
X0026367Y0118326D02*
X0027767Y0118326D01*
X0027767Y0119324D02*
X0026367Y0119324D01*
X0026173Y0120323D02*
X0027960Y0120323D01*
X0028374Y0121321D02*
X0025759Y0121321D01*
X0024828Y0122320D02*
X0029305Y0122320D01*
X0034444Y0115330D02*
X0039690Y0115330D01*
X0039631Y0115355D02*
X0041211Y0114700D01*
X0042922Y0114700D01*
X0044502Y0115355D01*
X0045712Y0116564D01*
X0046367Y0118145D01*
X0046367Y0119855D01*
X0045712Y0121436D01*
X0044502Y0122645D01*
X0042922Y0123300D01*
X0041211Y0123300D01*
X0039631Y0122645D01*
X0038421Y0121436D01*
X0037767Y0119855D01*
X0037767Y0118145D01*
X0038421Y0116564D01*
X0039631Y0115355D01*
X0038657Y0116329D02*
X0035477Y0116329D01*
X0036028Y0117327D02*
X0038105Y0117327D01*
X0037767Y0118326D02*
X0036367Y0118326D01*
X0036367Y0119324D02*
X0037767Y0119324D01*
X0037960Y0120323D02*
X0036173Y0120323D01*
X0035759Y0121321D02*
X0038374Y0121321D01*
X0039305Y0122320D02*
X0034828Y0122320D01*
X0044828Y0122320D02*
X0049305Y0122320D01*
X0048374Y0121321D02*
X0045759Y0121321D01*
X0046173Y0120323D02*
X0047960Y0120323D01*
X0047767Y0119324D02*
X0046367Y0119324D01*
X0046367Y0118326D02*
X0047767Y0118326D01*
X0048105Y0117327D02*
X0046028Y0117327D01*
X0045477Y0116329D02*
X0048657Y0116329D01*
X0049690Y0115330D02*
X0044444Y0115330D01*
X0037010Y0160263D02*
X0036631Y0160263D01*
X0036217Y0161262D02*
X0037383Y0161262D01*
X0038008Y0162260D02*
X0035453Y0162260D01*
X0034067Y0163259D02*
X0039082Y0163259D01*
X0026972Y0050427D02*
X0026709Y0050427D01*
X0026296Y0049429D02*
X0027286Y0049429D01*
X0027258Y0048430D02*
X0027870Y0048430D01*
X0020588Y0018475D02*
X0013545Y0018475D01*
X0015237Y0017476D02*
X0018896Y0017476D01*
X0018006Y0016478D02*
X0016128Y0016478D01*
X0016541Y0015479D02*
X0017592Y0015479D01*
X0017367Y0014481D02*
X0016767Y0014481D01*
X0016767Y0013482D02*
X0017367Y0013482D01*
X0017608Y0012484D02*
X0016526Y0012484D01*
X0016112Y0011485D02*
X0018021Y0011485D01*
X0018933Y0010487D02*
X0015200Y0010487D01*
X0013456Y0009488D02*
X0020678Y0009488D01*
X0022067Y0011500D02*
X0022067Y0014000D01*
D18*
X0047067Y0094000D03*
X0067067Y0126500D03*
X0072067Y0141500D03*
X0027067Y0141500D03*
M02*
