G75*
%MOIN*%
%OFA0B0*%
%FSLAX25Y25*%
%IPPOS*%
%LPD*%
%AMOC8*
5,1,8,0,0,1.08239X$1,22.5*
%
%ADD10C,0.00100*%
%ADD11C,0.00000*%
D10*
X0002067Y0001500D02*
X0002067Y0195201D01*
X0091988Y0195201D01*
X0091988Y0001500D01*
X0002067Y0001500D01*
D11*
X0068661Y0019000D02*
X0068663Y0019153D01*
X0068669Y0019307D01*
X0068679Y0019460D01*
X0068693Y0019612D01*
X0068711Y0019765D01*
X0068733Y0019916D01*
X0068758Y0020067D01*
X0068788Y0020218D01*
X0068822Y0020368D01*
X0068859Y0020516D01*
X0068900Y0020664D01*
X0068945Y0020810D01*
X0068994Y0020956D01*
X0069047Y0021100D01*
X0069103Y0021242D01*
X0069163Y0021383D01*
X0069227Y0021523D01*
X0069294Y0021661D01*
X0069365Y0021797D01*
X0069440Y0021931D01*
X0069517Y0022063D01*
X0069599Y0022193D01*
X0069683Y0022321D01*
X0069771Y0022447D01*
X0069862Y0022570D01*
X0069956Y0022691D01*
X0070054Y0022809D01*
X0070154Y0022925D01*
X0070258Y0023038D01*
X0070364Y0023149D01*
X0070473Y0023257D01*
X0070585Y0023362D01*
X0070699Y0023463D01*
X0070817Y0023562D01*
X0070936Y0023658D01*
X0071058Y0023751D01*
X0071183Y0023840D01*
X0071310Y0023927D01*
X0071439Y0024009D01*
X0071570Y0024089D01*
X0071703Y0024165D01*
X0071838Y0024238D01*
X0071975Y0024307D01*
X0072114Y0024372D01*
X0072254Y0024434D01*
X0072396Y0024492D01*
X0072539Y0024547D01*
X0072684Y0024598D01*
X0072830Y0024645D01*
X0072977Y0024688D01*
X0073125Y0024727D01*
X0073274Y0024763D01*
X0073424Y0024794D01*
X0073575Y0024822D01*
X0073726Y0024846D01*
X0073879Y0024866D01*
X0074031Y0024882D01*
X0074184Y0024894D01*
X0074337Y0024902D01*
X0074490Y0024906D01*
X0074644Y0024906D01*
X0074797Y0024902D01*
X0074950Y0024894D01*
X0075103Y0024882D01*
X0075255Y0024866D01*
X0075408Y0024846D01*
X0075559Y0024822D01*
X0075710Y0024794D01*
X0075860Y0024763D01*
X0076009Y0024727D01*
X0076157Y0024688D01*
X0076304Y0024645D01*
X0076450Y0024598D01*
X0076595Y0024547D01*
X0076738Y0024492D01*
X0076880Y0024434D01*
X0077020Y0024372D01*
X0077159Y0024307D01*
X0077296Y0024238D01*
X0077431Y0024165D01*
X0077564Y0024089D01*
X0077695Y0024009D01*
X0077824Y0023927D01*
X0077951Y0023840D01*
X0078076Y0023751D01*
X0078198Y0023658D01*
X0078317Y0023562D01*
X0078435Y0023463D01*
X0078549Y0023362D01*
X0078661Y0023257D01*
X0078770Y0023149D01*
X0078876Y0023038D01*
X0078980Y0022925D01*
X0079080Y0022809D01*
X0079178Y0022691D01*
X0079272Y0022570D01*
X0079363Y0022447D01*
X0079451Y0022321D01*
X0079535Y0022193D01*
X0079617Y0022063D01*
X0079694Y0021931D01*
X0079769Y0021797D01*
X0079840Y0021661D01*
X0079907Y0021523D01*
X0079971Y0021383D01*
X0080031Y0021242D01*
X0080087Y0021100D01*
X0080140Y0020956D01*
X0080189Y0020810D01*
X0080234Y0020664D01*
X0080275Y0020516D01*
X0080312Y0020368D01*
X0080346Y0020218D01*
X0080376Y0020067D01*
X0080401Y0019916D01*
X0080423Y0019765D01*
X0080441Y0019612D01*
X0080455Y0019460D01*
X0080465Y0019307D01*
X0080471Y0019153D01*
X0080473Y0019000D01*
X0080471Y0018847D01*
X0080465Y0018693D01*
X0080455Y0018540D01*
X0080441Y0018388D01*
X0080423Y0018235D01*
X0080401Y0018084D01*
X0080376Y0017933D01*
X0080346Y0017782D01*
X0080312Y0017632D01*
X0080275Y0017484D01*
X0080234Y0017336D01*
X0080189Y0017190D01*
X0080140Y0017044D01*
X0080087Y0016900D01*
X0080031Y0016758D01*
X0079971Y0016617D01*
X0079907Y0016477D01*
X0079840Y0016339D01*
X0079769Y0016203D01*
X0079694Y0016069D01*
X0079617Y0015937D01*
X0079535Y0015807D01*
X0079451Y0015679D01*
X0079363Y0015553D01*
X0079272Y0015430D01*
X0079178Y0015309D01*
X0079080Y0015191D01*
X0078980Y0015075D01*
X0078876Y0014962D01*
X0078770Y0014851D01*
X0078661Y0014743D01*
X0078549Y0014638D01*
X0078435Y0014537D01*
X0078317Y0014438D01*
X0078198Y0014342D01*
X0078076Y0014249D01*
X0077951Y0014160D01*
X0077824Y0014073D01*
X0077695Y0013991D01*
X0077564Y0013911D01*
X0077431Y0013835D01*
X0077296Y0013762D01*
X0077159Y0013693D01*
X0077020Y0013628D01*
X0076880Y0013566D01*
X0076738Y0013508D01*
X0076595Y0013453D01*
X0076450Y0013402D01*
X0076304Y0013355D01*
X0076157Y0013312D01*
X0076009Y0013273D01*
X0075860Y0013237D01*
X0075710Y0013206D01*
X0075559Y0013178D01*
X0075408Y0013154D01*
X0075255Y0013134D01*
X0075103Y0013118D01*
X0074950Y0013106D01*
X0074797Y0013098D01*
X0074644Y0013094D01*
X0074490Y0013094D01*
X0074337Y0013098D01*
X0074184Y0013106D01*
X0074031Y0013118D01*
X0073879Y0013134D01*
X0073726Y0013154D01*
X0073575Y0013178D01*
X0073424Y0013206D01*
X0073274Y0013237D01*
X0073125Y0013273D01*
X0072977Y0013312D01*
X0072830Y0013355D01*
X0072684Y0013402D01*
X0072539Y0013453D01*
X0072396Y0013508D01*
X0072254Y0013566D01*
X0072114Y0013628D01*
X0071975Y0013693D01*
X0071838Y0013762D01*
X0071703Y0013835D01*
X0071570Y0013911D01*
X0071439Y0013991D01*
X0071310Y0014073D01*
X0071183Y0014160D01*
X0071058Y0014249D01*
X0070936Y0014342D01*
X0070817Y0014438D01*
X0070699Y0014537D01*
X0070585Y0014638D01*
X0070473Y0014743D01*
X0070364Y0014851D01*
X0070258Y0014962D01*
X0070154Y0015075D01*
X0070054Y0015191D01*
X0069956Y0015309D01*
X0069862Y0015430D01*
X0069771Y0015553D01*
X0069683Y0015679D01*
X0069599Y0015807D01*
X0069517Y0015937D01*
X0069440Y0016069D01*
X0069365Y0016203D01*
X0069294Y0016339D01*
X0069227Y0016477D01*
X0069163Y0016617D01*
X0069103Y0016758D01*
X0069047Y0016900D01*
X0068994Y0017044D01*
X0068945Y0017190D01*
X0068900Y0017336D01*
X0068859Y0017484D01*
X0068822Y0017632D01*
X0068788Y0017782D01*
X0068758Y0017933D01*
X0068733Y0018084D01*
X0068711Y0018235D01*
X0068693Y0018388D01*
X0068679Y0018540D01*
X0068669Y0018693D01*
X0068663Y0018847D01*
X0068661Y0019000D01*
X0013661Y0179000D02*
X0013663Y0179153D01*
X0013669Y0179307D01*
X0013679Y0179460D01*
X0013693Y0179612D01*
X0013711Y0179765D01*
X0013733Y0179916D01*
X0013758Y0180067D01*
X0013788Y0180218D01*
X0013822Y0180368D01*
X0013859Y0180516D01*
X0013900Y0180664D01*
X0013945Y0180810D01*
X0013994Y0180956D01*
X0014047Y0181100D01*
X0014103Y0181242D01*
X0014163Y0181383D01*
X0014227Y0181523D01*
X0014294Y0181661D01*
X0014365Y0181797D01*
X0014440Y0181931D01*
X0014517Y0182063D01*
X0014599Y0182193D01*
X0014683Y0182321D01*
X0014771Y0182447D01*
X0014862Y0182570D01*
X0014956Y0182691D01*
X0015054Y0182809D01*
X0015154Y0182925D01*
X0015258Y0183038D01*
X0015364Y0183149D01*
X0015473Y0183257D01*
X0015585Y0183362D01*
X0015699Y0183463D01*
X0015817Y0183562D01*
X0015936Y0183658D01*
X0016058Y0183751D01*
X0016183Y0183840D01*
X0016310Y0183927D01*
X0016439Y0184009D01*
X0016570Y0184089D01*
X0016703Y0184165D01*
X0016838Y0184238D01*
X0016975Y0184307D01*
X0017114Y0184372D01*
X0017254Y0184434D01*
X0017396Y0184492D01*
X0017539Y0184547D01*
X0017684Y0184598D01*
X0017830Y0184645D01*
X0017977Y0184688D01*
X0018125Y0184727D01*
X0018274Y0184763D01*
X0018424Y0184794D01*
X0018575Y0184822D01*
X0018726Y0184846D01*
X0018879Y0184866D01*
X0019031Y0184882D01*
X0019184Y0184894D01*
X0019337Y0184902D01*
X0019490Y0184906D01*
X0019644Y0184906D01*
X0019797Y0184902D01*
X0019950Y0184894D01*
X0020103Y0184882D01*
X0020255Y0184866D01*
X0020408Y0184846D01*
X0020559Y0184822D01*
X0020710Y0184794D01*
X0020860Y0184763D01*
X0021009Y0184727D01*
X0021157Y0184688D01*
X0021304Y0184645D01*
X0021450Y0184598D01*
X0021595Y0184547D01*
X0021738Y0184492D01*
X0021880Y0184434D01*
X0022020Y0184372D01*
X0022159Y0184307D01*
X0022296Y0184238D01*
X0022431Y0184165D01*
X0022564Y0184089D01*
X0022695Y0184009D01*
X0022824Y0183927D01*
X0022951Y0183840D01*
X0023076Y0183751D01*
X0023198Y0183658D01*
X0023317Y0183562D01*
X0023435Y0183463D01*
X0023549Y0183362D01*
X0023661Y0183257D01*
X0023770Y0183149D01*
X0023876Y0183038D01*
X0023980Y0182925D01*
X0024080Y0182809D01*
X0024178Y0182691D01*
X0024272Y0182570D01*
X0024363Y0182447D01*
X0024451Y0182321D01*
X0024535Y0182193D01*
X0024617Y0182063D01*
X0024694Y0181931D01*
X0024769Y0181797D01*
X0024840Y0181661D01*
X0024907Y0181523D01*
X0024971Y0181383D01*
X0025031Y0181242D01*
X0025087Y0181100D01*
X0025140Y0180956D01*
X0025189Y0180810D01*
X0025234Y0180664D01*
X0025275Y0180516D01*
X0025312Y0180368D01*
X0025346Y0180218D01*
X0025376Y0180067D01*
X0025401Y0179916D01*
X0025423Y0179765D01*
X0025441Y0179612D01*
X0025455Y0179460D01*
X0025465Y0179307D01*
X0025471Y0179153D01*
X0025473Y0179000D01*
X0025471Y0178847D01*
X0025465Y0178693D01*
X0025455Y0178540D01*
X0025441Y0178388D01*
X0025423Y0178235D01*
X0025401Y0178084D01*
X0025376Y0177933D01*
X0025346Y0177782D01*
X0025312Y0177632D01*
X0025275Y0177484D01*
X0025234Y0177336D01*
X0025189Y0177190D01*
X0025140Y0177044D01*
X0025087Y0176900D01*
X0025031Y0176758D01*
X0024971Y0176617D01*
X0024907Y0176477D01*
X0024840Y0176339D01*
X0024769Y0176203D01*
X0024694Y0176069D01*
X0024617Y0175937D01*
X0024535Y0175807D01*
X0024451Y0175679D01*
X0024363Y0175553D01*
X0024272Y0175430D01*
X0024178Y0175309D01*
X0024080Y0175191D01*
X0023980Y0175075D01*
X0023876Y0174962D01*
X0023770Y0174851D01*
X0023661Y0174743D01*
X0023549Y0174638D01*
X0023435Y0174537D01*
X0023317Y0174438D01*
X0023198Y0174342D01*
X0023076Y0174249D01*
X0022951Y0174160D01*
X0022824Y0174073D01*
X0022695Y0173991D01*
X0022564Y0173911D01*
X0022431Y0173835D01*
X0022296Y0173762D01*
X0022159Y0173693D01*
X0022020Y0173628D01*
X0021880Y0173566D01*
X0021738Y0173508D01*
X0021595Y0173453D01*
X0021450Y0173402D01*
X0021304Y0173355D01*
X0021157Y0173312D01*
X0021009Y0173273D01*
X0020860Y0173237D01*
X0020710Y0173206D01*
X0020559Y0173178D01*
X0020408Y0173154D01*
X0020255Y0173134D01*
X0020103Y0173118D01*
X0019950Y0173106D01*
X0019797Y0173098D01*
X0019644Y0173094D01*
X0019490Y0173094D01*
X0019337Y0173098D01*
X0019184Y0173106D01*
X0019031Y0173118D01*
X0018879Y0173134D01*
X0018726Y0173154D01*
X0018575Y0173178D01*
X0018424Y0173206D01*
X0018274Y0173237D01*
X0018125Y0173273D01*
X0017977Y0173312D01*
X0017830Y0173355D01*
X0017684Y0173402D01*
X0017539Y0173453D01*
X0017396Y0173508D01*
X0017254Y0173566D01*
X0017114Y0173628D01*
X0016975Y0173693D01*
X0016838Y0173762D01*
X0016703Y0173835D01*
X0016570Y0173911D01*
X0016439Y0173991D01*
X0016310Y0174073D01*
X0016183Y0174160D01*
X0016058Y0174249D01*
X0015936Y0174342D01*
X0015817Y0174438D01*
X0015699Y0174537D01*
X0015585Y0174638D01*
X0015473Y0174743D01*
X0015364Y0174851D01*
X0015258Y0174962D01*
X0015154Y0175075D01*
X0015054Y0175191D01*
X0014956Y0175309D01*
X0014862Y0175430D01*
X0014771Y0175553D01*
X0014683Y0175679D01*
X0014599Y0175807D01*
X0014517Y0175937D01*
X0014440Y0176069D01*
X0014365Y0176203D01*
X0014294Y0176339D01*
X0014227Y0176477D01*
X0014163Y0176617D01*
X0014103Y0176758D01*
X0014047Y0176900D01*
X0013994Y0177044D01*
X0013945Y0177190D01*
X0013900Y0177336D01*
X0013859Y0177484D01*
X0013822Y0177632D01*
X0013788Y0177782D01*
X0013758Y0177933D01*
X0013733Y0178084D01*
X0013711Y0178235D01*
X0013693Y0178388D01*
X0013679Y0178540D01*
X0013669Y0178693D01*
X0013663Y0178847D01*
X0013661Y0179000D01*
M02*
