%
M48
M72
T01C0.0276
T02C0.0354
T03C0.0400
T04C0.0440
T05C0.1181
%
T01
X5227Y18003
X4227Y18003
T02
X5437Y3898
X5437Y4898
X5437Y5898
X5437Y6898
X5437Y7898
X5437Y8898
X5437Y9898
X5437Y10898
X8437Y10898
X8437Y9898
X8437Y8898
X8437Y7898
X8437Y6898
X8437Y5898
X8437Y4898
X8437Y3898
T03
X1483Y1713
X1483Y2963
X1483Y4213
X1483Y5463
X1483Y6713
X1483Y7963
X1483Y9213
X1483Y10463
X2483Y10463
X2483Y9213
X2483Y7963
X2483Y6713
X2483Y5463
X2483Y4213
X2483Y2963
X2483Y1713
X3483Y1713
X3483Y2963
X3483Y4213
X3483Y5463
X3483Y6713
X3483Y7963
X3483Y9213
X3483Y10463
X3205Y15798
X4205Y15798
X5205Y15798
X6205Y15798
X7205Y15798
X8205Y15798
T04
X1210Y11814
X2210Y11814
X3210Y11814
X4210Y11814
X5210Y11814
X6210Y11814
X7210Y11814
X8210Y11814
X8210Y14814
X7210Y14814
X6210Y14814
X5210Y14814
X4210Y14814
X3210Y14814
X2210Y14814
X1210Y14814
T05
X7477Y1800
X1715Y17922
M30
