%
M48
M72
T01C0.0236
T02C0.0276
T03C0.0354
T04C0.0400
T05C0.0440
T06C0.1181
%
T01
X4707Y9400
X6707Y12650
X7207Y14150
X2707Y14150
T02
X5457Y17650
X4457Y17650
T03
X5707Y3900
X5707Y4900
X5707Y5900
X5707Y6900
X5707Y7900
X5707Y8900
X5707Y9900
X5707Y10900
X8707Y10900
X8707Y9900
X8707Y8900
X8707Y7900
X8707Y6900
X8707Y5900
X8707Y4900
X8707Y3900
T04
X1207Y1400
X1207Y2650
X1207Y3900
X1207Y5150
X1207Y6400
X1207Y7650
X1207Y8900
X1207Y10150
X2207Y10150
X2207Y8900
X2207Y7650
X2207Y6400
X2207Y5150
X2207Y3900
X2207Y2650
X2207Y1400
X3207Y1400
X3207Y2650
X3207Y3900
X3207Y5150
X3207Y6400
X3207Y7650
X3207Y8900
X3207Y10150
X3207Y15900
X4207Y15900
X5207Y15900
X6207Y15900
X7207Y15900
X8207Y15900
X2207Y15900
X1207Y15900
T05
X1207Y11900
X2207Y11900
X3207Y11900
X4207Y11900
X5207Y11900
X6207Y11900
X7207Y11900
X8207Y11900
X8207Y14900
X7207Y14900
X6207Y14900
X5207Y14900
X4207Y14900
X3207Y14900
X2207Y14900
X1207Y14900
T06
X7457Y1900
X1957Y17900
M30
