%
M48
M72
T01C0.0120
T02C0.0354
T03C0.0380
T04C0.0394
T05C0.0400
T06C0.1083
%
T01
X13280Y12081
X12920Y15561
X19580Y17481
T02
X2000Y7000
X2000Y4000
T03
X12500Y19000
X12500Y18000
X12500Y17000
X12500Y16000
X12500Y15000
X13500Y15000
X13500Y16000
X14500Y16000
X14500Y15000
X15500Y15000
X16500Y15000
X16500Y16000
X15500Y16000
X17500Y16000
X17500Y15000
X18500Y15000
X18500Y16000
X19500Y16000
X19500Y15000
X20500Y14000
X20500Y13000
X19500Y13000
X18500Y13000
X17500Y13000
X16500Y13000
X15500Y13000
X14500Y13000
X13500Y13000
X12500Y13000
X12500Y14000
X13500Y19000
X14500Y19000
X15500Y19000
X16500Y19000
X17500Y19000
X18500Y19000
X19500Y19000
X20500Y19000
X21500Y19000
X22500Y19000
X23500Y19000
X24500Y19000
X25500Y19000
X24500Y14000
X24500Y13000
X23500Y13000
X22500Y13000
X21500Y13000
X21500Y14000
X22500Y14000
X25500Y13000
T04
X3795Y20669
X4795Y20669
X5795Y20669
X6795Y20669
X7795Y20669
X8795Y20669
X9795Y20669
X10795Y20669
X11795Y20669
X12795Y20669
X13795Y20669
X14795Y20669
X15795Y20669
X16795Y20669
X17795Y20669
X18795Y20669
X19795Y20669
X20795Y20669
X21795Y20669
X22795Y20669
X22795Y21669
X21795Y21669
X20795Y21669
X19795Y21669
X18795Y21669
X17795Y21669
X16795Y21669
X15795Y21669
X14795Y21669
X13795Y21669
X12795Y21669
X11795Y21669
X10795Y21669
X9795Y21669
X8795Y21669
X7795Y21669
X6795Y21669
X5795Y21669
X4795Y21669
X3795Y21669
T05
X4500Y5000
X4500Y6000
X4500Y7000
X4500Y8000
X4500Y9000
X4500Y10000
X6500Y10000
X6500Y9000
X6500Y8000
X6500Y7000
X6500Y6000
X6500Y5000
X8500Y5000
X8500Y6000
X8500Y7000
X8500Y8000
X8500Y9000
X8500Y10000
X10500Y10000
X10500Y9000
X10500Y8000
X10500Y7000
X10500Y6000
X10500Y5000
X12500Y5000
X12500Y6000
X12500Y7000
X12500Y8000
X12500Y9000
X12500Y10000
X14500Y10000
X14500Y9000
X14500Y8000
X14500Y7000
X14500Y6000
X14500Y5000
X16500Y5000
X16500Y6000
X16500Y7000
X16500Y8000
X16500Y9000
X16500Y10000
X18500Y10000
X18500Y9000
X18500Y8000
X18500Y7000
X18500Y6000
X18500Y5000
X20500Y5000
X20500Y6000
X20500Y7000
X20500Y8000
X20500Y9000
X20500Y10000
X22500Y10000
X22500Y9000
X22500Y8000
X22500Y7000
X22500Y6000
X22500Y5000
X21403Y2319
X21403Y1319
X19403Y1319
X19403Y2319
X17403Y2319
X17403Y1319
X15403Y1319
X15403Y2319
X13403Y2319
X13403Y1319
X11403Y1319
X11403Y2319
X9403Y2319
X9403Y1319
X7403Y1319
X7403Y2319
X5403Y2319
X5403Y1319
X2000Y8500
X2000Y9500
X2000Y10500
X4850Y13501
X4850Y14501
X6850Y14501
X6850Y13501
X8850Y13501
X8850Y14501
X10850Y14501
X10850Y13501
X10850Y16501
X10850Y17501
X8850Y17501
X8850Y16501
X6850Y16501
X6850Y17501
X4850Y17501
X4850Y16501
X2750Y16001
X2750Y15001
X2750Y14001
X2750Y17001
T06
X1878Y1878
X1878Y21169
X24713Y21169
X24713Y1878
M30
